<?xml version="1.0" encoding="utf-8" standalone="no"?>
<!DOCTYPE svg PUBLIC "-//W3C//DTD SVG 1.1//EN"
  "http://www.w3.org/Graphics/SVG/1.1/DTD/svg11.dtd">
<!-- Created with matplotlib (https://matplotlib.org/) -->
<svg height="396pt" version="1.1" viewBox="0 0 648 396" width="648pt" xmlns="http://www.w3.org/2000/svg" xmlns:xlink="http://www.w3.org/1999/xlink">
 <defs>
  <style type="text/css">
*{stroke-linecap:butt;stroke-linejoin:round;}
  </style>
 </defs>
 <g id="figure_1">
  <g id="patch_1">
   <path d="M 0 396 
L 648 396 
L 648 0 
L 0 0 
z
" style="fill:#ffffff;"/>
  </g>
  <g id="axes_1">
   <g id="patch_2">
    <path d="M 81 346.5 
L 583.2 346.5 
L 583.2 47.52 
L 81 47.52 
z
" style="fill:#ffffff;"/>
   </g>
   <g id="matplotlib.axis_1">
    <g id="xtick_1">
     <g id="line2d_1">
      <defs>
       <path d="M 0 0 
L 0 3.5 
" id="m92f2558fae" style="stroke:#000000;stroke-width:0.8;"/>
      </defs>
      <g>
       <use style="stroke:#000000;stroke-width:0.8;" x="223.508259" xlink:href="#m92f2558fae" y="346.5"/>
      </g>
     </g>
     <g id="text_1">
      <!-- $\mathdefault{10^{1}}$ -->
      <defs>
       <path d="M 12.40625 8.296875 
L 28.515625 8.296875 
L 28.515625 63.921875 
L 10.984375 60.40625 
L 10.984375 69.390625 
L 28.421875 72.90625 
L 38.28125 72.90625 
L 38.28125 8.296875 
L 54.390625 8.296875 
L 54.390625 0 
L 12.40625 0 
z
" id="DejaVuSans-49"/>
       <path d="M 31.78125 66.40625 
Q 24.171875 66.40625 20.328125 58.90625 
Q 16.5 51.421875 16.5 36.375 
Q 16.5 21.390625 20.328125 13.890625 
Q 24.171875 6.390625 31.78125 6.390625 
Q 39.453125 6.390625 43.28125 13.890625 
Q 47.125 21.390625 47.125 36.375 
Q 47.125 51.421875 43.28125 58.90625 
Q 39.453125 66.40625 31.78125 66.40625 
z
M 31.78125 74.21875 
Q 44.046875 74.21875 50.515625 64.515625 
Q 56.984375 54.828125 56.984375 36.375 
Q 56.984375 17.96875 50.515625 8.265625 
Q 44.046875 -1.421875 31.78125 -1.421875 
Q 19.53125 -1.421875 13.0625 8.265625 
Q 6.59375 17.96875 6.59375 36.375 
Q 6.59375 54.828125 13.0625 64.515625 
Q 19.53125 74.21875 31.78125 74.21875 
z
" id="DejaVuSans-48"/>
      </defs>
      <g transform="translate(214.708259 361.098437)scale(0.1 -0.1)">
       <use transform="translate(0 0.684375)" xlink:href="#DejaVuSans-49"/>
       <use transform="translate(63.623047 0.684375)" xlink:href="#DejaVuSans-48"/>
       <use transform="translate(128.203125 38.965625)scale(0.7)" xlink:href="#DejaVuSans-49"/>
      </g>
     </g>
    </g>
    <g id="xtick_2">
     <g id="line2d_2">
      <g>
       <use style="stroke:#000000;stroke-width:0.8;" x="435.815873" xlink:href="#m92f2558fae" y="346.5"/>
      </g>
     </g>
     <g id="text_2">
      <!-- $\mathdefault{10^{2}}$ -->
      <defs>
       <path d="M 19.1875 8.296875 
L 53.609375 8.296875 
L 53.609375 0 
L 7.328125 0 
L 7.328125 8.296875 
Q 12.9375 14.109375 22.625 23.890625 
Q 32.328125 33.6875 34.8125 36.53125 
Q 39.546875 41.84375 41.421875 45.53125 
Q 43.3125 49.21875 43.3125 52.78125 
Q 43.3125 58.59375 39.234375 62.25 
Q 35.15625 65.921875 28.609375 65.921875 
Q 23.96875 65.921875 18.8125 64.3125 
Q 13.671875 62.703125 7.8125 59.421875 
L 7.8125 69.390625 
Q 13.765625 71.78125 18.9375 73 
Q 24.125 74.21875 28.421875 74.21875 
Q 39.75 74.21875 46.484375 68.546875 
Q 53.21875 62.890625 53.21875 53.421875 
Q 53.21875 48.921875 51.53125 44.890625 
Q 49.859375 40.875 45.40625 35.40625 
Q 44.1875 33.984375 37.640625 27.21875 
Q 31.109375 20.453125 19.1875 8.296875 
z
" id="DejaVuSans-50"/>
      </defs>
      <g transform="translate(427.015873 361.098437)scale(0.1 -0.1)">
       <use transform="translate(0 0.765625)" xlink:href="#DejaVuSans-49"/>
       <use transform="translate(63.623047 0.765625)" xlink:href="#DejaVuSans-48"/>
       <use transform="translate(128.203125 39.046875)scale(0.7)" xlink:href="#DejaVuSans-50"/>
      </g>
     </g>
    </g>
    <g id="xtick_3">
     <g id="line2d_3">
      <path clip-path="url(#p42ebe8fa97)" d="M 112.49712 346.5 
L 112.49712 47.52 
" style="fill:none;stroke:#d3d3d3;stroke-dasharray:2.96,1.28;stroke-dashoffset:0;stroke-width:0.8;"/>
     </g>
     <g id="line2d_4">
      <defs>
       <path d="M 0 0 
L 0 2 
" id="mf345b5d920" style="stroke:#000000;stroke-width:0.6;"/>
      </defs>
      <g>
       <use style="stroke:#000000;stroke-width:0.6;" x="112.49712" xlink:href="#mf345b5d920" y="346.5"/>
      </g>
     </g>
    </g>
    <g id="xtick_4">
     <g id="line2d_5">
      <path clip-path="url(#p42ebe8fa97)" d="M 139.022565 346.5 
L 139.022565 47.52 
" style="fill:none;stroke:#d3d3d3;stroke-dasharray:2.96,1.28;stroke-dashoffset:0;stroke-width:0.8;"/>
     </g>
     <g id="line2d_6">
      <g>
       <use style="stroke:#000000;stroke-width:0.6;" x="139.022565" xlink:href="#mf345b5d920" y="346.5"/>
      </g>
     </g>
    </g>
    <g id="xtick_5">
     <g id="line2d_7">
      <path clip-path="url(#p42ebe8fa97)" d="M 159.597299 346.5 
L 159.597299 47.52 
" style="fill:none;stroke:#d3d3d3;stroke-dasharray:2.96,1.28;stroke-dashoffset:0;stroke-width:0.8;"/>
     </g>
     <g id="line2d_8">
      <g>
       <use style="stroke:#000000;stroke-width:0.6;" x="159.597299" xlink:href="#mf345b5d920" y="346.5"/>
      </g>
     </g>
    </g>
    <g id="xtick_6">
     <g id="line2d_9">
      <path clip-path="url(#p42ebe8fa97)" d="M 176.40808 346.5 
L 176.40808 47.52 
" style="fill:none;stroke:#d3d3d3;stroke-dasharray:2.96,1.28;stroke-dashoffset:0;stroke-width:0.8;"/>
     </g>
     <g id="line2d_10">
      <g>
       <use style="stroke:#000000;stroke-width:0.6;" x="176.40808" xlink:href="#mf345b5d920" y="346.5"/>
      </g>
     </g>
    </g>
    <g id="xtick_7">
     <g id="line2d_11">
      <path clip-path="url(#p42ebe8fa97)" d="M 190.621394 346.5 
L 190.621394 47.52 
" style="fill:none;stroke:#d3d3d3;stroke-dasharray:2.96,1.28;stroke-dashoffset:0;stroke-width:0.8;"/>
     </g>
     <g id="line2d_12">
      <g>
       <use style="stroke:#000000;stroke-width:0.6;" x="190.621394" xlink:href="#mf345b5d920" y="346.5"/>
      </g>
     </g>
    </g>
    <g id="xtick_8">
     <g id="line2d_13">
      <path clip-path="url(#p42ebe8fa97)" d="M 202.933525 346.5 
L 202.933525 47.52 
" style="fill:none;stroke:#d3d3d3;stroke-dasharray:2.96,1.28;stroke-dashoffset:0;stroke-width:0.8;"/>
     </g>
     <g id="line2d_14">
      <g>
       <use style="stroke:#000000;stroke-width:0.6;" x="202.933525" xlink:href="#mf345b5d920" y="346.5"/>
      </g>
     </g>
    </g>
    <g id="xtick_9">
     <g id="line2d_15">
      <path clip-path="url(#p42ebe8fa97)" d="M 213.793595 346.5 
L 213.793595 47.52 
" style="fill:none;stroke:#d3d3d3;stroke-dasharray:2.96,1.28;stroke-dashoffset:0;stroke-width:0.8;"/>
     </g>
     <g id="line2d_16">
      <g>
       <use style="stroke:#000000;stroke-width:0.6;" x="213.793595" xlink:href="#mf345b5d920" y="346.5"/>
      </g>
     </g>
    </g>
    <g id="xtick_10">
     <g id="line2d_17">
      <path clip-path="url(#p42ebe8fa97)" d="M 287.419219 346.5 
L 287.419219 47.52 
" style="fill:none;stroke:#d3d3d3;stroke-dasharray:2.96,1.28;stroke-dashoffset:0;stroke-width:0.8;"/>
     </g>
     <g id="line2d_18">
      <g>
       <use style="stroke:#000000;stroke-width:0.6;" x="287.419219" xlink:href="#mf345b5d920" y="346.5"/>
      </g>
     </g>
    </g>
    <g id="xtick_11">
     <g id="line2d_19">
      <path clip-path="url(#p42ebe8fa97)" d="M 324.804734 346.5 
L 324.804734 47.52 
" style="fill:none;stroke:#d3d3d3;stroke-dasharray:2.96,1.28;stroke-dashoffset:0;stroke-width:0.8;"/>
     </g>
     <g id="line2d_20">
      <g>
       <use style="stroke:#000000;stroke-width:0.6;" x="324.804734" xlink:href="#mf345b5d920" y="346.5"/>
      </g>
     </g>
    </g>
    <g id="xtick_12">
     <g id="line2d_21">
      <path clip-path="url(#p42ebe8fa97)" d="M 351.330179 346.5 
L 351.330179 47.52 
" style="fill:none;stroke:#d3d3d3;stroke-dasharray:2.96,1.28;stroke-dashoffset:0;stroke-width:0.8;"/>
     </g>
     <g id="line2d_22">
      <g>
       <use style="stroke:#000000;stroke-width:0.6;" x="351.330179" xlink:href="#mf345b5d920" y="346.5"/>
      </g>
     </g>
    </g>
    <g id="xtick_13">
     <g id="line2d_23">
      <path clip-path="url(#p42ebe8fa97)" d="M 371.904913 346.5 
L 371.904913 47.52 
" style="fill:none;stroke:#d3d3d3;stroke-dasharray:2.96,1.28;stroke-dashoffset:0;stroke-width:0.8;"/>
     </g>
     <g id="line2d_24">
      <g>
       <use style="stroke:#000000;stroke-width:0.6;" x="371.904913" xlink:href="#mf345b5d920" y="346.5"/>
      </g>
     </g>
    </g>
    <g id="xtick_14">
     <g id="line2d_25">
      <path clip-path="url(#p42ebe8fa97)" d="M 388.715694 346.5 
L 388.715694 47.52 
" style="fill:none;stroke:#d3d3d3;stroke-dasharray:2.96,1.28;stroke-dashoffset:0;stroke-width:0.8;"/>
     </g>
     <g id="line2d_26">
      <g>
       <use style="stroke:#000000;stroke-width:0.6;" x="388.715694" xlink:href="#mf345b5d920" y="346.5"/>
      </g>
     </g>
    </g>
    <g id="xtick_15">
     <g id="line2d_27">
      <path clip-path="url(#p42ebe8fa97)" d="M 402.929007 346.5 
L 402.929007 47.52 
" style="fill:none;stroke:#d3d3d3;stroke-dasharray:2.96,1.28;stroke-dashoffset:0;stroke-width:0.8;"/>
     </g>
     <g id="line2d_28">
      <g>
       <use style="stroke:#000000;stroke-width:0.6;" x="402.929007" xlink:href="#mf345b5d920" y="346.5"/>
      </g>
     </g>
    </g>
    <g id="xtick_16">
     <g id="line2d_29">
      <path clip-path="url(#p42ebe8fa97)" d="M 415.241139 346.5 
L 415.241139 47.52 
" style="fill:none;stroke:#d3d3d3;stroke-dasharray:2.96,1.28;stroke-dashoffset:0;stroke-width:0.8;"/>
     </g>
     <g id="line2d_30">
      <g>
       <use style="stroke:#000000;stroke-width:0.6;" x="415.241139" xlink:href="#mf345b5d920" y="346.5"/>
      </g>
     </g>
    </g>
    <g id="xtick_17">
     <g id="line2d_31">
      <path clip-path="url(#p42ebe8fa97)" d="M 426.101209 346.5 
L 426.101209 47.52 
" style="fill:none;stroke:#d3d3d3;stroke-dasharray:2.96,1.28;stroke-dashoffset:0;stroke-width:0.8;"/>
     </g>
     <g id="line2d_32">
      <g>
       <use style="stroke:#000000;stroke-width:0.6;" x="426.101209" xlink:href="#mf345b5d920" y="346.5"/>
      </g>
     </g>
    </g>
    <g id="xtick_18">
     <g id="line2d_33">
      <path clip-path="url(#p42ebe8fa97)" d="M 499.726833 346.5 
L 499.726833 47.52 
" style="fill:none;stroke:#d3d3d3;stroke-dasharray:2.96,1.28;stroke-dashoffset:0;stroke-width:0.8;"/>
     </g>
     <g id="line2d_34">
      <g>
       <use style="stroke:#000000;stroke-width:0.6;" x="499.726833" xlink:href="#mf345b5d920" y="346.5"/>
      </g>
     </g>
    </g>
    <g id="xtick_19">
     <g id="line2d_35">
      <path clip-path="url(#p42ebe8fa97)" d="M 537.112348 346.5 
L 537.112348 47.52 
" style="fill:none;stroke:#d3d3d3;stroke-dasharray:2.96,1.28;stroke-dashoffset:0;stroke-width:0.8;"/>
     </g>
     <g id="line2d_36">
      <g>
       <use style="stroke:#000000;stroke-width:0.6;" x="537.112348" xlink:href="#mf345b5d920" y="346.5"/>
      </g>
     </g>
    </g>
    <g id="xtick_20">
     <g id="line2d_37">
      <path clip-path="url(#p42ebe8fa97)" d="M 563.637793 346.5 
L 563.637793 47.52 
" style="fill:none;stroke:#d3d3d3;stroke-dasharray:2.96,1.28;stroke-dashoffset:0;stroke-width:0.8;"/>
     </g>
     <g id="line2d_38">
      <g>
       <use style="stroke:#000000;stroke-width:0.6;" x="563.637793" xlink:href="#mf345b5d920" y="346.5"/>
      </g>
     </g>
    </g>
    <g id="text_3">
     <!-- PPM Concentration -->
     <defs>
      <path d="M 19.671875 64.796875 
L 19.671875 37.40625 
L 32.078125 37.40625 
Q 38.96875 37.40625 42.71875 40.96875 
Q 46.484375 44.53125 46.484375 51.125 
Q 46.484375 57.671875 42.71875 61.234375 
Q 38.96875 64.796875 32.078125 64.796875 
z
M 9.8125 72.90625 
L 32.078125 72.90625 
Q 44.34375 72.90625 50.609375 67.359375 
Q 56.890625 61.8125 56.890625 51.125 
Q 56.890625 40.328125 50.609375 34.8125 
Q 44.34375 29.296875 32.078125 29.296875 
L 19.671875 29.296875 
L 19.671875 0 
L 9.8125 0 
z
" id="DejaVuSans-80"/>
      <path d="M 9.8125 72.90625 
L 24.515625 72.90625 
L 43.109375 23.296875 
L 61.8125 72.90625 
L 76.515625 72.90625 
L 76.515625 0 
L 66.890625 0 
L 66.890625 64.015625 
L 48.09375 14.015625 
L 38.1875 14.015625 
L 19.390625 64.015625 
L 19.390625 0 
L 9.8125 0 
z
" id="DejaVuSans-77"/>
      <path id="DejaVuSans-32"/>
      <path d="M 64.40625 67.28125 
L 64.40625 56.890625 
Q 59.421875 61.53125 53.78125 63.8125 
Q 48.140625 66.109375 41.796875 66.109375 
Q 29.296875 66.109375 22.65625 58.46875 
Q 16.015625 50.828125 16.015625 36.375 
Q 16.015625 21.96875 22.65625 14.328125 
Q 29.296875 6.6875 41.796875 6.6875 
Q 48.140625 6.6875 53.78125 8.984375 
Q 59.421875 11.28125 64.40625 15.921875 
L 64.40625 5.609375 
Q 59.234375 2.09375 53.4375 0.328125 
Q 47.65625 -1.421875 41.21875 -1.421875 
Q 24.65625 -1.421875 15.125 8.703125 
Q 5.609375 18.84375 5.609375 36.375 
Q 5.609375 53.953125 15.125 64.078125 
Q 24.65625 74.21875 41.21875 74.21875 
Q 47.75 74.21875 53.53125 72.484375 
Q 59.328125 70.75 64.40625 67.28125 
z
" id="DejaVuSans-67"/>
      <path d="M 30.609375 48.390625 
Q 23.390625 48.390625 19.1875 42.75 
Q 14.984375 37.109375 14.984375 27.296875 
Q 14.984375 17.484375 19.15625 11.84375 
Q 23.34375 6.203125 30.609375 6.203125 
Q 37.796875 6.203125 41.984375 11.859375 
Q 46.1875 17.53125 46.1875 27.296875 
Q 46.1875 37.015625 41.984375 42.703125 
Q 37.796875 48.390625 30.609375 48.390625 
z
M 30.609375 56 
Q 42.328125 56 49.015625 48.375 
Q 55.71875 40.765625 55.71875 27.296875 
Q 55.71875 13.875 49.015625 6.21875 
Q 42.328125 -1.421875 30.609375 -1.421875 
Q 18.84375 -1.421875 12.171875 6.21875 
Q 5.515625 13.875 5.515625 27.296875 
Q 5.515625 40.765625 12.171875 48.375 
Q 18.84375 56 30.609375 56 
z
" id="DejaVuSans-111"/>
      <path d="M 54.890625 33.015625 
L 54.890625 0 
L 45.90625 0 
L 45.90625 32.71875 
Q 45.90625 40.484375 42.875 44.328125 
Q 39.84375 48.1875 33.796875 48.1875 
Q 26.515625 48.1875 22.3125 43.546875 
Q 18.109375 38.921875 18.109375 30.90625 
L 18.109375 0 
L 9.078125 0 
L 9.078125 54.6875 
L 18.109375 54.6875 
L 18.109375 46.1875 
Q 21.34375 51.125 25.703125 53.5625 
Q 30.078125 56 35.796875 56 
Q 45.21875 56 50.046875 50.171875 
Q 54.890625 44.34375 54.890625 33.015625 
z
" id="DejaVuSans-110"/>
      <path d="M 48.78125 52.59375 
L 48.78125 44.1875 
Q 44.96875 46.296875 41.140625 47.34375 
Q 37.3125 48.390625 33.40625 48.390625 
Q 24.65625 48.390625 19.8125 42.84375 
Q 14.984375 37.3125 14.984375 27.296875 
Q 14.984375 17.28125 19.8125 11.734375 
Q 24.65625 6.203125 33.40625 6.203125 
Q 37.3125 6.203125 41.140625 7.25 
Q 44.96875 8.296875 48.78125 10.40625 
L 48.78125 2.09375 
Q 45.015625 0.34375 40.984375 -0.53125 
Q 36.96875 -1.421875 32.421875 -1.421875 
Q 20.0625 -1.421875 12.78125 6.34375 
Q 5.515625 14.109375 5.515625 27.296875 
Q 5.515625 40.671875 12.859375 48.328125 
Q 20.21875 56 33.015625 56 
Q 37.15625 56 41.109375 55.140625 
Q 45.0625 54.296875 48.78125 52.59375 
z
" id="DejaVuSans-99"/>
      <path d="M 56.203125 29.59375 
L 56.203125 25.203125 
L 14.890625 25.203125 
Q 15.484375 15.921875 20.484375 11.0625 
Q 25.484375 6.203125 34.421875 6.203125 
Q 39.59375 6.203125 44.453125 7.46875 
Q 49.3125 8.734375 54.109375 11.28125 
L 54.109375 2.78125 
Q 49.265625 0.734375 44.1875 -0.34375 
Q 39.109375 -1.421875 33.890625 -1.421875 
Q 20.796875 -1.421875 13.15625 6.1875 
Q 5.515625 13.8125 5.515625 26.8125 
Q 5.515625 40.234375 12.765625 48.109375 
Q 20.015625 56 32.328125 56 
Q 43.359375 56 49.78125 48.890625 
Q 56.203125 41.796875 56.203125 29.59375 
z
M 47.21875 32.234375 
Q 47.125 39.59375 43.09375 43.984375 
Q 39.0625 48.390625 32.421875 48.390625 
Q 24.90625 48.390625 20.390625 44.140625 
Q 15.875 39.890625 15.1875 32.171875 
z
" id="DejaVuSans-101"/>
      <path d="M 18.3125 70.21875 
L 18.3125 54.6875 
L 36.8125 54.6875 
L 36.8125 47.703125 
L 18.3125 47.703125 
L 18.3125 18.015625 
Q 18.3125 11.328125 20.140625 9.421875 
Q 21.96875 7.515625 27.59375 7.515625 
L 36.8125 7.515625 
L 36.8125 0 
L 27.59375 0 
Q 17.1875 0 13.234375 3.875 
Q 9.28125 7.765625 9.28125 18.015625 
L 9.28125 47.703125 
L 2.6875 47.703125 
L 2.6875 54.6875 
L 9.28125 54.6875 
L 9.28125 70.21875 
z
" id="DejaVuSans-116"/>
      <path d="M 41.109375 46.296875 
Q 39.59375 47.171875 37.8125 47.578125 
Q 36.03125 48 33.890625 48 
Q 26.265625 48 22.1875 43.046875 
Q 18.109375 38.09375 18.109375 28.8125 
L 18.109375 0 
L 9.078125 0 
L 9.078125 54.6875 
L 18.109375 54.6875 
L 18.109375 46.1875 
Q 20.953125 51.171875 25.484375 53.578125 
Q 30.03125 56 36.53125 56 
Q 37.453125 56 38.578125 55.875 
Q 39.703125 55.765625 41.0625 55.515625 
z
" id="DejaVuSans-114"/>
      <path d="M 34.28125 27.484375 
Q 23.390625 27.484375 19.1875 25 
Q 14.984375 22.515625 14.984375 16.5 
Q 14.984375 11.71875 18.140625 8.90625 
Q 21.296875 6.109375 26.703125 6.109375 
Q 34.1875 6.109375 38.703125 11.40625 
Q 43.21875 16.703125 43.21875 25.484375 
L 43.21875 27.484375 
z
M 52.203125 31.203125 
L 52.203125 0 
L 43.21875 0 
L 43.21875 8.296875 
Q 40.140625 3.328125 35.546875 0.953125 
Q 30.953125 -1.421875 24.3125 -1.421875 
Q 15.921875 -1.421875 10.953125 3.296875 
Q 6 8.015625 6 15.921875 
Q 6 25.140625 12.171875 29.828125 
Q 18.359375 34.515625 30.609375 34.515625 
L 43.21875 34.515625 
L 43.21875 35.40625 
Q 43.21875 41.609375 39.140625 45 
Q 35.0625 48.390625 27.6875 48.390625 
Q 23 48.390625 18.546875 47.265625 
Q 14.109375 46.140625 10.015625 43.890625 
L 10.015625 52.203125 
Q 14.9375 54.109375 19.578125 55.046875 
Q 24.21875 56 28.609375 56 
Q 40.484375 56 46.34375 49.84375 
Q 52.203125 43.703125 52.203125 31.203125 
z
" id="DejaVuSans-97"/>
      <path d="M 9.421875 54.6875 
L 18.40625 54.6875 
L 18.40625 0 
L 9.421875 0 
z
M 9.421875 75.984375 
L 18.40625 75.984375 
L 18.40625 64.59375 
L 9.421875 64.59375 
z
" id="DejaVuSans-105"/>
     </defs>
     <g transform="translate(284.796094 374.776563)scale(0.1 -0.1)">
      <use xlink:href="#DejaVuSans-80"/>
      <use x="60.302734" xlink:href="#DejaVuSans-80"/>
      <use x="120.605469" xlink:href="#DejaVuSans-77"/>
      <use x="206.884766" xlink:href="#DejaVuSans-32"/>
      <use x="238.671875" xlink:href="#DejaVuSans-67"/>
      <use x="308.496094" xlink:href="#DejaVuSans-111"/>
      <use x="369.677734" xlink:href="#DejaVuSans-110"/>
      <use x="433.056641" xlink:href="#DejaVuSans-99"/>
      <use x="488.037109" xlink:href="#DejaVuSans-101"/>
      <use x="549.560547" xlink:href="#DejaVuSans-110"/>
      <use x="612.939453" xlink:href="#DejaVuSans-116"/>
      <use x="652.148438" xlink:href="#DejaVuSans-114"/>
      <use x="693.261719" xlink:href="#DejaVuSans-97"/>
      <use x="754.541016" xlink:href="#DejaVuSans-116"/>
      <use x="793.75" xlink:href="#DejaVuSans-105"/>
      <use x="821.533203" xlink:href="#DejaVuSans-111"/>
      <use x="882.714844" xlink:href="#DejaVuSans-110"/>
     </g>
    </g>
   </g>
   <g id="matplotlib.axis_2">
    <g id="ytick_1">
     <g id="line2d_39">
      <defs>
       <path d="M 0 0 
L -3.5 0 
" id="m0811694342" style="stroke:#000000;stroke-width:0.8;"/>
      </defs>
      <g>
       <use style="stroke:#000000;stroke-width:0.8;" x="81" xlink:href="#m0811694342" y="221.089281"/>
      </g>
     </g>
     <g id="text_4">
      <!-- $\mathdefault{10^{0}}$ -->
      <g transform="translate(56.4 224.8885)scale(0.1 -0.1)">
       <use transform="translate(0 0.765625)" xlink:href="#DejaVuSans-49"/>
       <use transform="translate(63.623047 0.765625)" xlink:href="#DejaVuSans-48"/>
       <use transform="translate(128.203125 39.046875)scale(0.7)" xlink:href="#DejaVuSans-48"/>
      </g>
     </g>
    </g>
    <g id="ytick_2">
     <g id="line2d_40">
      <g>
       <use style="stroke:#000000;stroke-width:0.8;" x="81" xlink:href="#m0811694342" y="61.11"/>
      </g>
     </g>
     <g id="text_5">
      <!-- $\mathdefault{10^{1}}$ -->
      <g transform="translate(56.4 64.909219)scale(0.1 -0.1)">
       <use transform="translate(0 0.684375)" xlink:href="#DejaVuSans-49"/>
       <use transform="translate(63.623047 0.684375)" xlink:href="#DejaVuSans-48"/>
       <use transform="translate(128.203125 38.965625)scale(0.7)" xlink:href="#DejaVuSans-49"/>
      </g>
     </g>
    </g>
    <g id="ytick_3">
     <g id="line2d_41">
      <path clip-path="url(#p42ebe8fa97)" d="M 81 332.91 
L 583.2 332.91 
" style="fill:none;stroke:#d3d3d3;stroke-dasharray:2.96,1.28;stroke-dashoffset:0;stroke-width:0.8;"/>
     </g>
     <g id="line2d_42">
      <defs>
       <path d="M 0 0 
L -2 0 
" id="mc3559b716e" style="stroke:#000000;stroke-width:0.6;"/>
      </defs>
      <g>
       <use style="stroke:#000000;stroke-width:0.6;" x="81" xlink:href="#mc3559b716e" y="332.91"/>
      </g>
     </g>
    </g>
    <g id="ytick_4">
     <g id="line2d_43">
      <path clip-path="url(#p42ebe8fa97)" d="M 81 304.739047 
L 583.2 304.739047 
" style="fill:none;stroke:#d3d3d3;stroke-dasharray:2.96,1.28;stroke-dashoffset:0;stroke-width:0.8;"/>
     </g>
     <g id="line2d_44">
      <g>
       <use style="stroke:#000000;stroke-width:0.6;" x="81" xlink:href="#mc3559b716e" y="304.739047"/>
      </g>
     </g>
    </g>
    <g id="ytick_5">
     <g id="line2d_45">
      <path clip-path="url(#p42ebe8fa97)" d="M 81 284.751438 
L 583.2 284.751438 
" style="fill:none;stroke:#d3d3d3;stroke-dasharray:2.96,1.28;stroke-dashoffset:0;stroke-width:0.8;"/>
     </g>
     <g id="line2d_46">
      <g>
       <use style="stroke:#000000;stroke-width:0.6;" x="81" xlink:href="#mc3559b716e" y="284.751438"/>
      </g>
     </g>
    </g>
    <g id="ytick_6">
     <g id="line2d_47">
      <path clip-path="url(#p42ebe8fa97)" d="M 81 269.247843 
L 583.2 269.247843 
" style="fill:none;stroke:#d3d3d3;stroke-dasharray:2.96,1.28;stroke-dashoffset:0;stroke-width:0.8;"/>
     </g>
     <g id="line2d_48">
      <g>
       <use style="stroke:#000000;stroke-width:0.6;" x="81" xlink:href="#mc3559b716e" y="269.247843"/>
      </g>
     </g>
    </g>
    <g id="ytick_7">
     <g id="line2d_49">
      <path clip-path="url(#p42ebe8fa97)" d="M 81 256.580485 
L 583.2 256.580485 
" style="fill:none;stroke:#d3d3d3;stroke-dasharray:2.96,1.28;stroke-dashoffset:0;stroke-width:0.8;"/>
     </g>
     <g id="line2d_50">
      <g>
       <use style="stroke:#000000;stroke-width:0.6;" x="81" xlink:href="#mc3559b716e" y="256.580485"/>
      </g>
     </g>
    </g>
    <g id="ytick_8">
     <g id="line2d_51">
      <path clip-path="url(#p42ebe8fa97)" d="M 81 245.870385 
L 583.2 245.870385 
" style="fill:none;stroke:#d3d3d3;stroke-dasharray:2.96,1.28;stroke-dashoffset:0;stroke-width:0.8;"/>
     </g>
     <g id="line2d_52">
      <g>
       <use style="stroke:#000000;stroke-width:0.6;" x="81" xlink:href="#mc3559b716e" y="245.870385"/>
      </g>
     </g>
    </g>
    <g id="ytick_9">
     <g id="line2d_53">
      <path clip-path="url(#p42ebe8fa97)" d="M 81 236.592875 
L 583.2 236.592875 
" style="fill:none;stroke:#d3d3d3;stroke-dasharray:2.96,1.28;stroke-dashoffset:0;stroke-width:0.8;"/>
     </g>
     <g id="line2d_54">
      <g>
       <use style="stroke:#000000;stroke-width:0.6;" x="81" xlink:href="#mc3559b716e" y="236.592875"/>
      </g>
     </g>
    </g>
    <g id="ytick_10">
     <g id="line2d_55">
      <path clip-path="url(#p42ebe8fa97)" d="M 81 228.409532 
L 583.2 228.409532 
" style="fill:none;stroke:#d3d3d3;stroke-dasharray:2.96,1.28;stroke-dashoffset:0;stroke-width:0.8;"/>
     </g>
     <g id="line2d_56">
      <g>
       <use style="stroke:#000000;stroke-width:0.6;" x="81" xlink:href="#mc3559b716e" y="228.409532"/>
      </g>
     </g>
    </g>
    <g id="ytick_11">
     <g id="line2d_57">
      <path clip-path="url(#p42ebe8fa97)" d="M 81 172.930719 
L 583.2 172.930719 
" style="fill:none;stroke:#d3d3d3;stroke-dasharray:2.96,1.28;stroke-dashoffset:0;stroke-width:0.8;"/>
     </g>
     <g id="line2d_58">
      <g>
       <use style="stroke:#000000;stroke-width:0.6;" x="81" xlink:href="#mc3559b716e" y="172.930719"/>
      </g>
     </g>
    </g>
    <g id="ytick_12">
     <g id="line2d_59">
      <path clip-path="url(#p42ebe8fa97)" d="M 81 144.759766 
L 583.2 144.759766 
" style="fill:none;stroke:#d3d3d3;stroke-dasharray:2.96,1.28;stroke-dashoffset:0;stroke-width:0.8;"/>
     </g>
     <g id="line2d_60">
      <g>
       <use style="stroke:#000000;stroke-width:0.6;" x="81" xlink:href="#mc3559b716e" y="144.759766"/>
      </g>
     </g>
    </g>
    <g id="ytick_13">
     <g id="line2d_61">
      <path clip-path="url(#p42ebe8fa97)" d="M 81 124.772157 
L 583.2 124.772157 
" style="fill:none;stroke:#d3d3d3;stroke-dasharray:2.96,1.28;stroke-dashoffset:0;stroke-width:0.8;"/>
     </g>
     <g id="line2d_62">
      <g>
       <use style="stroke:#000000;stroke-width:0.6;" x="81" xlink:href="#mc3559b716e" y="124.772157"/>
      </g>
     </g>
    </g>
    <g id="ytick_14">
     <g id="line2d_63">
      <path clip-path="url(#p42ebe8fa97)" d="M 81 109.268562 
L 583.2 109.268562 
" style="fill:none;stroke:#d3d3d3;stroke-dasharray:2.96,1.28;stroke-dashoffset:0;stroke-width:0.8;"/>
     </g>
     <g id="line2d_64">
      <g>
       <use style="stroke:#000000;stroke-width:0.6;" x="81" xlink:href="#mc3559b716e" y="109.268562"/>
      </g>
     </g>
    </g>
    <g id="ytick_15">
     <g id="line2d_65">
      <path clip-path="url(#p42ebe8fa97)" d="M 81 96.601203 
L 583.2 96.601203 
" style="fill:none;stroke:#d3d3d3;stroke-dasharray:2.96,1.28;stroke-dashoffset:0;stroke-width:0.8;"/>
     </g>
     <g id="line2d_66">
      <g>
       <use style="stroke:#000000;stroke-width:0.6;" x="81" xlink:href="#mc3559b716e" y="96.601203"/>
      </g>
     </g>
    </g>
    <g id="ytick_16">
     <g id="line2d_67">
      <path clip-path="url(#p42ebe8fa97)" d="M 81 85.891104 
L 583.2 85.891104 
" style="fill:none;stroke:#d3d3d3;stroke-dasharray:2.96,1.28;stroke-dashoffset:0;stroke-width:0.8;"/>
     </g>
     <g id="line2d_68">
      <g>
       <use style="stroke:#000000;stroke-width:0.6;" x="81" xlink:href="#mc3559b716e" y="85.891104"/>
      </g>
     </g>
    </g>
    <g id="ytick_17">
     <g id="line2d_69">
      <path clip-path="url(#p42ebe8fa97)" d="M 81 76.613594 
L 583.2 76.613594 
" style="fill:none;stroke:#d3d3d3;stroke-dasharray:2.96,1.28;stroke-dashoffset:0;stroke-width:0.8;"/>
     </g>
     <g id="line2d_70">
      <g>
       <use style="stroke:#000000;stroke-width:0.6;" x="81" xlink:href="#mc3559b716e" y="76.613594"/>
      </g>
     </g>
    </g>
    <g id="ytick_18">
     <g id="line2d_71">
      <path clip-path="url(#p42ebe8fa97)" d="M 81 68.43025 
L 583.2 68.43025 
" style="fill:none;stroke:#d3d3d3;stroke-dasharray:2.96,1.28;stroke-dashoffset:0;stroke-width:0.8;"/>
     </g>
     <g id="line2d_72">
      <g>
       <use style="stroke:#000000;stroke-width:0.6;" x="81" xlink:href="#mc3559b716e" y="68.43025"/>
      </g>
     </g>
    </g>
    <g id="text_6">
     <!-- Rs/Ro -->
     <defs>
      <path d="M 44.390625 34.1875 
Q 47.5625 33.109375 50.5625 29.59375 
Q 53.5625 26.078125 56.59375 19.921875 
L 66.609375 0 
L 56 0 
L 46.6875 18.703125 
Q 43.0625 26.03125 39.671875 28.421875 
Q 36.28125 30.8125 30.421875 30.8125 
L 19.671875 30.8125 
L 19.671875 0 
L 9.8125 0 
L 9.8125 72.90625 
L 32.078125 72.90625 
Q 44.578125 72.90625 50.734375 67.671875 
Q 56.890625 62.453125 56.890625 51.90625 
Q 56.890625 45.015625 53.6875 40.46875 
Q 50.484375 35.9375 44.390625 34.1875 
z
M 19.671875 64.796875 
L 19.671875 38.921875 
L 32.078125 38.921875 
Q 39.203125 38.921875 42.84375 42.21875 
Q 46.484375 45.515625 46.484375 51.90625 
Q 46.484375 58.296875 42.84375 61.546875 
Q 39.203125 64.796875 32.078125 64.796875 
z
" id="DejaVuSans-82"/>
      <path d="M 44.28125 53.078125 
L 44.28125 44.578125 
Q 40.484375 46.53125 36.375 47.5 
Q 32.28125 48.484375 27.875 48.484375 
Q 21.1875 48.484375 17.84375 46.4375 
Q 14.5 44.390625 14.5 40.28125 
Q 14.5 37.15625 16.890625 35.375 
Q 19.28125 33.59375 26.515625 31.984375 
L 29.59375 31.296875 
Q 39.15625 29.25 43.1875 25.515625 
Q 47.21875 21.78125 47.21875 15.09375 
Q 47.21875 7.46875 41.1875 3.015625 
Q 35.15625 -1.421875 24.609375 -1.421875 
Q 20.21875 -1.421875 15.453125 -0.5625 
Q 10.6875 0.296875 5.421875 2 
L 5.421875 11.28125 
Q 10.40625 8.6875 15.234375 7.390625 
Q 20.0625 6.109375 24.8125 6.109375 
Q 31.15625 6.109375 34.5625 8.28125 
Q 37.984375 10.453125 37.984375 14.40625 
Q 37.984375 18.0625 35.515625 20.015625 
Q 33.0625 21.96875 24.703125 23.78125 
L 21.578125 24.515625 
Q 13.234375 26.265625 9.515625 29.90625 
Q 5.8125 33.546875 5.8125 39.890625 
Q 5.8125 47.609375 11.28125 51.796875 
Q 16.75 56 26.8125 56 
Q 31.78125 56 36.171875 55.265625 
Q 40.578125 54.546875 44.28125 53.078125 
z
" id="DejaVuSans-115"/>
      <path d="M 25.390625 72.90625 
L 33.6875 72.90625 
L 8.296875 -9.28125 
L 0 -9.28125 
z
" id="DejaVuSans-47"/>
     </defs>
     <g transform="translate(50.320312 211.30375)rotate(-90)scale(0.1 -0.1)">
      <use xlink:href="#DejaVuSans-82"/>
      <use x="69.482422" xlink:href="#DejaVuSans-115"/>
      <use x="121.582031" xlink:href="#DejaVuSans-47"/>
      <use x="155.273438" xlink:href="#DejaVuSans-82"/>
      <use x="224.693359" xlink:href="#DejaVuSans-111"/>
     </g>
    </g>
   </g>
   <g id="line2d_73">
    <path clip-path="url(#p42ebe8fa97)" d="M 519.680822 332.91 
L 514.490344 304.739047 
L 508.990155 284.751438 
L 503.140936 269.247843 
L 496.895371 256.580485 
L 490.195816 245.870385 
L 482.97106 236.592875 
L 475.131701 228.409532 
L 466.563366 221.089281 
L 130.661154 172.930719 
L -1 172.913259 
" style="fill:none;stroke:#1f77b4;stroke-linecap:square;"/>
    <defs>
     <path d="M 0 3 
C 0.795609 3 1.55874 2.683901 2.12132 2.12132 
C 2.683901 1.55874 3 0.795609 3 0 
C 3 -0.795609 2.683901 -1.55874 2.12132 -2.12132 
C 1.55874 -2.683901 0.795609 -3 0 -3 
C -0.795609 -3 -1.55874 -2.683901 -2.12132 -2.12132 
C -2.683901 -1.55874 -3 -0.795609 -3 0 
C -3 0.795609 -2.683901 1.55874 -2.12132 2.12132 
C -1.55874 2.683901 -0.795609 3 0 3 
z
" id="m1352958f75" style="stroke:#1f77b4;"/>
    </defs>
    <g clip-path="url(#p42ebe8fa97)">
     <use style="fill:#1f77b4;stroke:#1f77b4;" x="519.680822" xlink:href="#m1352958f75" y="332.91"/>
     <use style="fill:#1f77b4;stroke:#1f77b4;" x="514.490344" xlink:href="#m1352958f75" y="304.739047"/>
     <use style="fill:#1f77b4;stroke:#1f77b4;" x="508.990155" xlink:href="#m1352958f75" y="284.751438"/>
     <use style="fill:#1f77b4;stroke:#1f77b4;" x="503.140936" xlink:href="#m1352958f75" y="269.247843"/>
     <use style="fill:#1f77b4;stroke:#1f77b4;" x="496.895371" xlink:href="#m1352958f75" y="256.580485"/>
     <use style="fill:#1f77b4;stroke:#1f77b4;" x="490.195816" xlink:href="#m1352958f75" y="245.870385"/>
     <use style="fill:#1f77b4;stroke:#1f77b4;" x="482.97106" xlink:href="#m1352958f75" y="236.592875"/>
     <use style="fill:#1f77b4;stroke:#1f77b4;" x="475.131701" xlink:href="#m1352958f75" y="228.409532"/>
     <use style="fill:#1f77b4;stroke:#1f77b4;" x="466.563366" xlink:href="#m1352958f75" y="221.089281"/>
     <use style="fill:#1f77b4;stroke:#1f77b4;" x="130.661154" xlink:href="#m1352958f75" y="172.930719"/>
     <use style="fill:#1f77b4;stroke:#1f77b4;" x="-1" xlink:href="#m1352958f75" y="172.913259"/>
    </g>
   </g>
   <g id="line2d_74">
    <path clip-path="url(#p42ebe8fa97)" d="M 529.364075 332.91 
L 526.135797 304.739047 
L 522.790375 284.751438 
L 519.318987 269.247843 
L 515.711774 256.580485 
L 511.957674 245.870385 
L 508.044214 236.592875 
L 503.957262 228.409532 
L 499.680719 221.089281 
L 440.314522 172.930719 
L 224.42572 144.759766 
L -1 144.738564 
" style="fill:none;stroke:#ff7f0e;stroke-linecap:square;"/>
    <defs>
     <path d="M 0 3 
C 0.795609 3 1.55874 2.683901 2.12132 2.12132 
C 2.683901 1.55874 3 0.795609 3 0 
C 3 -0.795609 2.683901 -1.55874 2.12132 -2.12132 
C 1.55874 -2.683901 0.795609 -3 0 -3 
C -0.795609 -3 -1.55874 -2.683901 -2.12132 -2.12132 
C -2.683901 -1.55874 -3 -0.795609 -3 0 
C -3 0.795609 -2.683901 1.55874 -2.12132 2.12132 
C -1.55874 2.683901 -0.795609 3 0 3 
z
" id="mef8fe6c810" style="stroke:#ff7f0e;"/>
    </defs>
    <g clip-path="url(#p42ebe8fa97)">
     <use style="fill:#ff7f0e;stroke:#ff7f0e;" x="529.364075" xlink:href="#mef8fe6c810" y="332.91"/>
     <use style="fill:#ff7f0e;stroke:#ff7f0e;" x="526.135797" xlink:href="#mef8fe6c810" y="304.739047"/>
     <use style="fill:#ff7f0e;stroke:#ff7f0e;" x="522.790375" xlink:href="#mef8fe6c810" y="284.751438"/>
     <use style="fill:#ff7f0e;stroke:#ff7f0e;" x="519.318987" xlink:href="#mef8fe6c810" y="269.247843"/>
     <use style="fill:#ff7f0e;stroke:#ff7f0e;" x="515.711774" xlink:href="#mef8fe6c810" y="256.580485"/>
     <use style="fill:#ff7f0e;stroke:#ff7f0e;" x="511.957674" xlink:href="#mef8fe6c810" y="245.870385"/>
     <use style="fill:#ff7f0e;stroke:#ff7f0e;" x="508.044214" xlink:href="#mef8fe6c810" y="236.592875"/>
     <use style="fill:#ff7f0e;stroke:#ff7f0e;" x="503.957262" xlink:href="#mef8fe6c810" y="228.409532"/>
     <use style="fill:#ff7f0e;stroke:#ff7f0e;" x="499.680719" xlink:href="#mef8fe6c810" y="221.089281"/>
     <use style="fill:#ff7f0e;stroke:#ff7f0e;" x="440.314522" xlink:href="#mef8fe6c810" y="172.930719"/>
     <use style="fill:#ff7f0e;stroke:#ff7f0e;" x="224.42572" xlink:href="#mef8fe6c810" y="144.759766"/>
     <use style="fill:#ff7f0e;stroke:#ff7f0e;" x="-1" xlink:href="#mef8fe6c810" y="144.738564"/>
    </g>
   </g>
   <g id="line2d_75">
    <path clip-path="url(#p42ebe8fa97)" d="M 511.612635 332.91 
L 506.437381 304.739047 
L 500.954286 284.751438 
L 495.124395 269.247843 
L 488.900863 256.580485 
L 482.226655 245.870385 
L 475.031369 236.592875 
L 467.226699 228.409532 
L 458.699792 221.089281 
L 138.708412 172.930719 
L -1 172.912192 
" style="fill:none;stroke:#2ca02c;stroke-linecap:square;"/>
    <defs>
     <path d="M 0 3 
C 0.795609 3 1.55874 2.683901 2.12132 2.12132 
C 2.683901 1.55874 3 0.795609 3 0 
C 3 -0.795609 2.683901 -1.55874 2.12132 -2.12132 
C 1.55874 -2.683901 0.795609 -3 0 -3 
C -0.795609 -3 -1.55874 -2.683901 -2.12132 -2.12132 
C -2.683901 -1.55874 -3 -0.795609 -3 0 
C -3 0.795609 -2.683901 1.55874 -2.12132 2.12132 
C -1.55874 2.683901 -0.795609 3 0 3 
z
" id="mbb1ca6773b" style="stroke:#2ca02c;"/>
    </defs>
    <g clip-path="url(#p42ebe8fa97)">
     <use style="fill:#2ca02c;stroke:#2ca02c;" x="511.612635" xlink:href="#mbb1ca6773b" y="332.91"/>
     <use style="fill:#2ca02c;stroke:#2ca02c;" x="506.437381" xlink:href="#mbb1ca6773b" y="304.739047"/>
     <use style="fill:#2ca02c;stroke:#2ca02c;" x="500.954286" xlink:href="#mbb1ca6773b" y="284.751438"/>
     <use style="fill:#2ca02c;stroke:#2ca02c;" x="495.124395" xlink:href="#mbb1ca6773b" y="269.247843"/>
     <use style="fill:#2ca02c;stroke:#2ca02c;" x="488.900863" xlink:href="#mbb1ca6773b" y="256.580485"/>
     <use style="fill:#2ca02c;stroke:#2ca02c;" x="482.226655" xlink:href="#mbb1ca6773b" y="245.870385"/>
     <use style="fill:#2ca02c;stroke:#2ca02c;" x="475.031369" xlink:href="#mbb1ca6773b" y="236.592875"/>
     <use style="fill:#2ca02c;stroke:#2ca02c;" x="467.226699" xlink:href="#mbb1ca6773b" y="228.409532"/>
     <use style="fill:#2ca02c;stroke:#2ca02c;" x="458.699792" xlink:href="#mbb1ca6773b" y="221.089281"/>
     <use style="fill:#2ca02c;stroke:#2ca02c;" x="138.708412" xlink:href="#mbb1ca6773b" y="172.930719"/>
     <use style="fill:#2ca02c;stroke:#2ca02c;" x="-1" xlink:href="#mbb1ca6773b" y="172.912192"/>
    </g>
   </g>
   <g id="line2d_76">
    <path clip-path="url(#p42ebe8fa97)" d="M 500.014003 332.91 
L 496.763562 304.739047 
L 493.394333 284.751438 
L 489.897304 269.247843 
L 486.262397 256.580485 
L 482.478291 245.870385 
L 478.532212 236.592875 
L 474.409671 228.409532 
L 470.094145 221.089281 
L 409.94708 172.930719 
L 177.063358 144.759766 
L -1 144.743015 
" style="fill:none;stroke:#d62728;stroke-linecap:square;"/>
    <defs>
     <path d="M 0 3 
C 0.795609 3 1.55874 2.683901 2.12132 2.12132 
C 2.683901 1.55874 3 0.795609 3 0 
C 3 -0.795609 2.683901 -1.55874 2.12132 -2.12132 
C 1.55874 -2.683901 0.795609 -3 0 -3 
C -0.795609 -3 -1.55874 -2.683901 -2.12132 -2.12132 
C -2.683901 -1.55874 -3 -0.795609 -3 0 
C -3 0.795609 -2.683901 1.55874 -2.12132 2.12132 
C -1.55874 2.683901 -0.795609 3 0 3 
z
" id="m9925e6b4f2" style="stroke:#d62728;"/>
    </defs>
    <g clip-path="url(#p42ebe8fa97)">
     <use style="fill:#d62728;stroke:#d62728;" x="500.014003" xlink:href="#m9925e6b4f2" y="332.91"/>
     <use style="fill:#d62728;stroke:#d62728;" x="496.763562" xlink:href="#m9925e6b4f2" y="304.739047"/>
     <use style="fill:#d62728;stroke:#d62728;" x="493.394333" xlink:href="#m9925e6b4f2" y="284.751438"/>
     <use style="fill:#d62728;stroke:#d62728;" x="489.897304" xlink:href="#m9925e6b4f2" y="269.247843"/>
     <use style="fill:#d62728;stroke:#d62728;" x="486.262397" xlink:href="#m9925e6b4f2" y="256.580485"/>
     <use style="fill:#d62728;stroke:#d62728;" x="482.478291" xlink:href="#m9925e6b4f2" y="245.870385"/>
     <use style="fill:#d62728;stroke:#d62728;" x="478.532212" xlink:href="#m9925e6b4f2" y="236.592875"/>
     <use style="fill:#d62728;stroke:#d62728;" x="474.409671" xlink:href="#m9925e6b4f2" y="228.409532"/>
     <use style="fill:#d62728;stroke:#d62728;" x="470.094145" xlink:href="#m9925e6b4f2" y="221.089281"/>
     <use style="fill:#d62728;stroke:#d62728;" x="409.94708" xlink:href="#m9925e6b4f2" y="172.930719"/>
     <use style="fill:#d62728;stroke:#d62728;" x="177.063358" xlink:href="#m9925e6b4f2" y="144.759766"/>
     <use style="fill:#d62728;stroke:#d62728;" x="-1" xlink:href="#m9925e6b4f2" y="144.743015"/>
    </g>
   </g>
   <g id="line2d_77">
    <path clip-path="url(#p42ebe8fa97)" d="M 560.372727 332.91 
L 548.369972 304.739047 
L 534.567552 284.751438 
L 518.328963 269.247843 
L 498.605915 256.580485 
L 473.482693 245.870385 
L 438.839226 236.592875 
L 382.696658 228.409532 
L 214.643408 221.089281 
L -1 221.040413 
" style="fill:none;stroke:#9467bd;stroke-linecap:square;"/>
    <defs>
     <path d="M 0 3 
C 0.795609 3 1.55874 2.683901 2.12132 2.12132 
C 2.683901 1.55874 3 0.795609 3 0 
C 3 -0.795609 2.683901 -1.55874 2.12132 -2.12132 
C 1.55874 -2.683901 0.795609 -3 0 -3 
C -0.795609 -3 -1.55874 -2.683901 -2.12132 -2.12132 
C -2.683901 -1.55874 -3 -0.795609 -3 0 
C -3 0.795609 -2.683901 1.55874 -2.12132 2.12132 
C -1.55874 2.683901 -0.795609 3 0 3 
z
" id="mb887588f53" style="stroke:#9467bd;"/>
    </defs>
    <g clip-path="url(#p42ebe8fa97)">
     <use style="fill:#9467bd;stroke:#9467bd;" x="560.372727" xlink:href="#mb887588f53" y="332.91"/>
     <use style="fill:#9467bd;stroke:#9467bd;" x="548.369972" xlink:href="#mb887588f53" y="304.739047"/>
     <use style="fill:#9467bd;stroke:#9467bd;" x="534.567552" xlink:href="#mb887588f53" y="284.751438"/>
     <use style="fill:#9467bd;stroke:#9467bd;" x="518.328963" xlink:href="#mb887588f53" y="269.247843"/>
     <use style="fill:#9467bd;stroke:#9467bd;" x="498.605915" xlink:href="#mb887588f53" y="256.580485"/>
     <use style="fill:#9467bd;stroke:#9467bd;" x="473.482693" xlink:href="#mb887588f53" y="245.870385"/>
     <use style="fill:#9467bd;stroke:#9467bd;" x="438.839226" xlink:href="#mb887588f53" y="236.592875"/>
     <use style="fill:#9467bd;stroke:#9467bd;" x="382.696658" xlink:href="#mb887588f53" y="228.409532"/>
     <use style="fill:#9467bd;stroke:#9467bd;" x="214.643408" xlink:href="#mb887588f53" y="221.089281"/>
     <use style="fill:#9467bd;stroke:#9467bd;" x="-1" xlink:href="#mb887588f53" y="221.040413"/>
    </g>
   </g>
   <g id="line2d_78">
    <path clip-path="url(#p42ebe8fa97)" d="M 550.705509 332.91 
L 538.496783 304.739047 
L 524.421165 284.751438 
L 507.802811 269.247843 
L 487.515968 256.580485 
L 461.468353 245.870385 
L 425.031131 236.592875 
L 363.907901 228.409532 
L 103.827273 221.089281 
L -1 221.065513 
" style="fill:none;stroke:#8c564b;stroke-linecap:square;"/>
    <defs>
     <path d="M 0 3 
C 0.795609 3 1.55874 2.683901 2.12132 2.12132 
C 2.683901 1.55874 3 0.795609 3 0 
C 3 -0.795609 2.683901 -1.55874 2.12132 -2.12132 
C 1.55874 -2.683901 0.795609 -3 0 -3 
C -0.795609 -3 -1.55874 -2.683901 -2.12132 -2.12132 
C -2.683901 -1.55874 -3 -0.795609 -3 0 
C -3 0.795609 -2.683901 1.55874 -2.12132 2.12132 
C -1.55874 2.683901 -0.795609 3 0 3 
z
" id="mf4b1e53787" style="stroke:#8c564b;"/>
    </defs>
    <g clip-path="url(#p42ebe8fa97)">
     <use style="fill:#8c564b;stroke:#8c564b;" x="550.705509" xlink:href="#mf4b1e53787" y="332.91"/>
     <use style="fill:#8c564b;stroke:#8c564b;" x="538.496783" xlink:href="#mf4b1e53787" y="304.739047"/>
     <use style="fill:#8c564b;stroke:#8c564b;" x="524.421165" xlink:href="#mf4b1e53787" y="284.751438"/>
     <use style="fill:#8c564b;stroke:#8c564b;" x="507.802811" xlink:href="#mf4b1e53787" y="269.247843"/>
     <use style="fill:#8c564b;stroke:#8c564b;" x="487.515968" xlink:href="#mf4b1e53787" y="256.580485"/>
     <use style="fill:#8c564b;stroke:#8c564b;" x="461.468353" xlink:href="#mf4b1e53787" y="245.870385"/>
     <use style="fill:#8c564b;stroke:#8c564b;" x="425.031131" xlink:href="#mf4b1e53787" y="236.592875"/>
     <use style="fill:#8c564b;stroke:#8c564b;" x="363.907901" xlink:href="#mf4b1e53787" y="228.409532"/>
     <use style="fill:#8c564b;stroke:#8c564b;" x="103.827273" xlink:href="#mf4b1e53787" y="221.089281"/>
     <use style="fill:#8c564b;stroke:#8c564b;" x="-1" xlink:href="#mf4b1e53787" y="221.065513"/>
    </g>
   </g>
   <g id="patch_3">
    <path d="M 81 346.5 
L 81 47.52 
" style="fill:none;stroke:#000000;stroke-linecap:square;stroke-linejoin:miter;stroke-width:0.8;"/>
   </g>
   <g id="patch_4">
    <path d="M 583.2 346.5 
L 583.2 47.52 
" style="fill:none;stroke:#000000;stroke-linecap:square;stroke-linejoin:miter;stroke-width:0.8;"/>
   </g>
   <g id="patch_5">
    <path d="M 81 346.5 
L 583.2 346.5 
" style="fill:none;stroke:#000000;stroke-linecap:square;stroke-linejoin:miter;stroke-width:0.8;"/>
   </g>
   <g id="patch_6">
    <path d="M 81 47.52 
L 583.2 47.52 
" style="fill:none;stroke:#000000;stroke-linecap:square;stroke-linejoin:miter;stroke-width:0.8;"/>
   </g>
   <g id="legend_1">
    <g id="patch_7">
     <path d="M 503.204688 143.58875 
L 576.2 143.58875 
Q 578.2 143.58875 578.2 141.58875 
L 578.2 54.52 
Q 578.2 52.52 576.2 52.52 
L 503.204688 52.52 
Q 501.204688 52.52 501.204688 54.52 
L 501.204688 141.58875 
Q 501.204688 143.58875 503.204688 143.58875 
z
" style="fill:#ffffff;opacity:0.8;stroke:#cccccc;stroke-linejoin:miter;"/>
    </g>
    <g id="line2d_79">
     <path d="M 505.204688 60.618437 
L 525.204688 60.618437 
" style="fill:none;stroke:#1f77b4;stroke-linecap:square;"/>
    </g>
    <g id="line2d_80">
     <g>
      <use style="fill:#1f77b4;stroke:#1f77b4;" x="515.204688" xlink:href="#m1352958f75" y="60.618437"/>
     </g>
    </g>
    <g id="text_7">
     <!-- CO2 -->
     <defs>
      <path d="M 39.40625 66.21875 
Q 28.65625 66.21875 22.328125 58.203125 
Q 16.015625 50.203125 16.015625 36.375 
Q 16.015625 22.609375 22.328125 14.59375 
Q 28.65625 6.59375 39.40625 6.59375 
Q 50.140625 6.59375 56.421875 14.59375 
Q 62.703125 22.609375 62.703125 36.375 
Q 62.703125 50.203125 56.421875 58.203125 
Q 50.140625 66.21875 39.40625 66.21875 
z
M 39.40625 74.21875 
Q 54.734375 74.21875 63.90625 63.9375 
Q 73.09375 53.65625 73.09375 36.375 
Q 73.09375 19.140625 63.90625 8.859375 
Q 54.734375 -1.421875 39.40625 -1.421875 
Q 24.03125 -1.421875 14.8125 8.828125 
Q 5.609375 19.09375 5.609375 36.375 
Q 5.609375 53.65625 14.8125 63.9375 
Q 24.03125 74.21875 39.40625 74.21875 
z
" id="DejaVuSans-79"/>
     </defs>
     <g transform="translate(533.204688 64.118437)scale(0.1 -0.1)">
      <use xlink:href="#DejaVuSans-67"/>
      <use x="69.824219" xlink:href="#DejaVuSans-79"/>
      <use x="148.535156" xlink:href="#DejaVuSans-50"/>
     </g>
    </g>
    <g id="line2d_81">
     <path d="M 505.204688 75.296562 
L 525.204688 75.296562 
" style="fill:none;stroke:#ff7f0e;stroke-linecap:square;"/>
    </g>
    <g id="line2d_82">
     <g>
      <use style="fill:#ff7f0e;stroke:#ff7f0e;" x="515.204688" xlink:href="#mef8fe6c810" y="75.296562"/>
     </g>
    </g>
    <g id="text_8">
     <!-- CO -->
     <g transform="translate(533.204688 78.796562)scale(0.1 -0.1)">
      <use xlink:href="#DejaVuSans-67"/>
      <use x="69.824219" xlink:href="#DejaVuSans-79"/>
     </g>
    </g>
    <g id="line2d_83">
     <path d="M 505.204688 89.974687 
L 525.204688 89.974687 
" style="fill:none;stroke:#2ca02c;stroke-linecap:square;"/>
    </g>
    <g id="line2d_84">
     <g>
      <use style="fill:#2ca02c;stroke:#2ca02c;" x="515.204688" xlink:href="#mbb1ca6773b" y="89.974687"/>
     </g>
    </g>
    <g id="text_9">
     <!-- Alcohol -->
     <defs>
      <path d="M 34.1875 63.1875 
L 20.796875 26.90625 
L 47.609375 26.90625 
z
M 28.609375 72.90625 
L 39.796875 72.90625 
L 67.578125 0 
L 57.328125 0 
L 50.6875 18.703125 
L 17.828125 18.703125 
L 11.1875 0 
L 0.78125 0 
z
" id="DejaVuSans-65"/>
      <path d="M 9.421875 75.984375 
L 18.40625 75.984375 
L 18.40625 0 
L 9.421875 0 
z
" id="DejaVuSans-108"/>
      <path d="M 54.890625 33.015625 
L 54.890625 0 
L 45.90625 0 
L 45.90625 32.71875 
Q 45.90625 40.484375 42.875 44.328125 
Q 39.84375 48.1875 33.796875 48.1875 
Q 26.515625 48.1875 22.3125 43.546875 
Q 18.109375 38.921875 18.109375 30.90625 
L 18.109375 0 
L 9.078125 0 
L 9.078125 75.984375 
L 18.109375 75.984375 
L 18.109375 46.1875 
Q 21.34375 51.125 25.703125 53.5625 
Q 30.078125 56 35.796875 56 
Q 45.21875 56 50.046875 50.171875 
Q 54.890625 44.34375 54.890625 33.015625 
z
" id="DejaVuSans-104"/>
     </defs>
     <g transform="translate(533.204688 93.474687)scale(0.1 -0.1)">
      <use xlink:href="#DejaVuSans-65"/>
      <use x="68.408203" xlink:href="#DejaVuSans-108"/>
      <use x="96.191406" xlink:href="#DejaVuSans-99"/>
      <use x="151.171875" xlink:href="#DejaVuSans-111"/>
      <use x="212.353516" xlink:href="#DejaVuSans-104"/>
      <use x="275.732422" xlink:href="#DejaVuSans-111"/>
      <use x="336.914062" xlink:href="#DejaVuSans-108"/>
     </g>
    </g>
    <g id="line2d_85">
     <path d="M 505.204688 104.652812 
L 525.204688 104.652812 
" style="fill:none;stroke:#d62728;stroke-linecap:square;"/>
    </g>
    <g id="line2d_86">
     <g>
      <use style="fill:#d62728;stroke:#d62728;" x="515.204688" xlink:href="#m9925e6b4f2" y="104.652812"/>
     </g>
    </g>
    <g id="text_10">
     <!-- NH4 -->
     <defs>
      <path d="M 9.8125 72.90625 
L 23.09375 72.90625 
L 55.421875 11.921875 
L 55.421875 72.90625 
L 64.984375 72.90625 
L 64.984375 0 
L 51.703125 0 
L 19.390625 60.984375 
L 19.390625 0 
L 9.8125 0 
z
" id="DejaVuSans-78"/>
      <path d="M 9.8125 72.90625 
L 19.671875 72.90625 
L 19.671875 43.015625 
L 55.515625 43.015625 
L 55.515625 72.90625 
L 65.375 72.90625 
L 65.375 0 
L 55.515625 0 
L 55.515625 34.71875 
L 19.671875 34.71875 
L 19.671875 0 
L 9.8125 0 
z
" id="DejaVuSans-72"/>
      <path d="M 37.796875 64.3125 
L 12.890625 25.390625 
L 37.796875 25.390625 
z
M 35.203125 72.90625 
L 47.609375 72.90625 
L 47.609375 25.390625 
L 58.015625 25.390625 
L 58.015625 17.1875 
L 47.609375 17.1875 
L 47.609375 0 
L 37.796875 0 
L 37.796875 17.1875 
L 4.890625 17.1875 
L 4.890625 26.703125 
z
" id="DejaVuSans-52"/>
     </defs>
     <g transform="translate(533.204688 108.152812)scale(0.1 -0.1)">
      <use xlink:href="#DejaVuSans-78"/>
      <use x="74.804688" xlink:href="#DejaVuSans-72"/>
      <use x="150" xlink:href="#DejaVuSans-52"/>
     </g>
    </g>
    <g id="line2d_87">
     <path d="M 505.204688 119.330938 
L 525.204688 119.330938 
" style="fill:none;stroke:#9467bd;stroke-linecap:square;"/>
    </g>
    <g id="line2d_88">
     <g>
      <use style="fill:#9467bd;stroke:#9467bd;" x="515.204688" xlink:href="#mb887588f53" y="119.330938"/>
     </g>
    </g>
    <g id="text_11">
     <!-- Tolueno -->
     <defs>
      <path d="M -0.296875 72.90625 
L 61.375 72.90625 
L 61.375 64.59375 
L 35.5 64.59375 
L 35.5 0 
L 25.59375 0 
L 25.59375 64.59375 
L -0.296875 64.59375 
z
" id="DejaVuSans-84"/>
      <path d="M 8.5 21.578125 
L 8.5 54.6875 
L 17.484375 54.6875 
L 17.484375 21.921875 
Q 17.484375 14.15625 20.5 10.265625 
Q 23.53125 6.390625 29.59375 6.390625 
Q 36.859375 6.390625 41.078125 11.03125 
Q 45.3125 15.671875 45.3125 23.6875 
L 45.3125 54.6875 
L 54.296875 54.6875 
L 54.296875 0 
L 45.3125 0 
L 45.3125 8.40625 
Q 42.046875 3.421875 37.71875 1 
Q 33.40625 -1.421875 27.6875 -1.421875 
Q 18.265625 -1.421875 13.375 4.4375 
Q 8.5 10.296875 8.5 21.578125 
z
M 31.109375 56 
z
" id="DejaVuSans-117"/>
     </defs>
     <g transform="translate(533.204688 122.830938)scale(0.1 -0.1)">
      <use xlink:href="#DejaVuSans-84"/>
      <use x="60.818359" xlink:href="#DejaVuSans-111"/>
      <use x="122" xlink:href="#DejaVuSans-108"/>
      <use x="149.783203" xlink:href="#DejaVuSans-117"/>
      <use x="213.162109" xlink:href="#DejaVuSans-101"/>
      <use x="274.685547" xlink:href="#DejaVuSans-110"/>
      <use x="338.064453" xlink:href="#DejaVuSans-111"/>
     </g>
    </g>
    <g id="line2d_89">
     <path d="M 505.204688 134.009062 
L 525.204688 134.009062 
" style="fill:none;stroke:#8c564b;stroke-linecap:square;"/>
    </g>
    <g id="line2d_90">
     <g>
      <use style="fill:#8c564b;stroke:#8c564b;" x="515.204688" xlink:href="#mf4b1e53787" y="134.009062"/>
     </g>
    </g>
    <g id="text_12">
     <!-- Acetona -->
     <g transform="translate(533.204688 137.509062)scale(0.1 -0.1)">
      <use xlink:href="#DejaVuSans-65"/>
      <use x="68.392578" xlink:href="#DejaVuSans-99"/>
      <use x="123.373047" xlink:href="#DejaVuSans-101"/>
      <use x="184.896484" xlink:href="#DejaVuSans-116"/>
      <use x="224.105469" xlink:href="#DejaVuSans-111"/>
      <use x="285.287109" xlink:href="#DejaVuSans-110"/>
      <use x="348.666016" xlink:href="#DejaVuSans-97"/>
     </g>
    </g>
   </g>
  </g>
  <g id="text_13">
   <!-- Calibration plot for MQ-135 data -->
   <defs>
    <path d="M 48.6875 27.296875 
Q 48.6875 37.203125 44.609375 42.84375 
Q 40.53125 48.484375 33.40625 48.484375 
Q 26.265625 48.484375 22.1875 42.84375 
Q 18.109375 37.203125 18.109375 27.296875 
Q 18.109375 17.390625 22.1875 11.75 
Q 26.265625 6.109375 33.40625 6.109375 
Q 40.53125 6.109375 44.609375 11.75 
Q 48.6875 17.390625 48.6875 27.296875 
z
M 18.109375 46.390625 
Q 20.953125 51.265625 25.265625 53.625 
Q 29.59375 56 35.59375 56 
Q 45.5625 56 51.78125 48.09375 
Q 58.015625 40.1875 58.015625 27.296875 
Q 58.015625 14.40625 51.78125 6.484375 
Q 45.5625 -1.421875 35.59375 -1.421875 
Q 29.59375 -1.421875 25.265625 0.953125 
Q 20.953125 3.328125 18.109375 8.203125 
L 18.109375 0 
L 9.078125 0 
L 9.078125 75.984375 
L 18.109375 75.984375 
z
" id="DejaVuSans-98"/>
    <path d="M 18.109375 8.203125 
L 18.109375 -20.796875 
L 9.078125 -20.796875 
L 9.078125 54.6875 
L 18.109375 54.6875 
L 18.109375 46.390625 
Q 20.953125 51.265625 25.265625 53.625 
Q 29.59375 56 35.59375 56 
Q 45.5625 56 51.78125 48.09375 
Q 58.015625 40.1875 58.015625 27.296875 
Q 58.015625 14.40625 51.78125 6.484375 
Q 45.5625 -1.421875 35.59375 -1.421875 
Q 29.59375 -1.421875 25.265625 0.953125 
Q 20.953125 3.328125 18.109375 8.203125 
z
M 48.6875 27.296875 
Q 48.6875 37.203125 44.609375 42.84375 
Q 40.53125 48.484375 33.40625 48.484375 
Q 26.265625 48.484375 22.1875 42.84375 
Q 18.109375 37.203125 18.109375 27.296875 
Q 18.109375 17.390625 22.1875 11.75 
Q 26.265625 6.109375 33.40625 6.109375 
Q 40.53125 6.109375 44.609375 11.75 
Q 48.6875 17.390625 48.6875 27.296875 
z
" id="DejaVuSans-112"/>
    <path d="M 37.109375 75.984375 
L 37.109375 68.5 
L 28.515625 68.5 
Q 23.6875 68.5 21.796875 66.546875 
Q 19.921875 64.59375 19.921875 59.515625 
L 19.921875 54.6875 
L 34.71875 54.6875 
L 34.71875 47.703125 
L 19.921875 47.703125 
L 19.921875 0 
L 10.890625 0 
L 10.890625 47.703125 
L 2.296875 47.703125 
L 2.296875 54.6875 
L 10.890625 54.6875 
L 10.890625 58.5 
Q 10.890625 67.625 15.140625 71.796875 
Q 19.390625 75.984375 28.609375 75.984375 
z
" id="DejaVuSans-102"/>
    <path d="M 39.40625 66.21875 
Q 28.65625 66.21875 22.328125 58.203125 
Q 16.015625 50.203125 16.015625 36.375 
Q 16.015625 22.609375 22.328125 14.59375 
Q 28.65625 6.59375 39.40625 6.59375 
Q 50.140625 6.59375 56.421875 14.59375 
Q 62.703125 22.609375 62.703125 36.375 
Q 62.703125 50.203125 56.421875 58.203125 
Q 50.140625 66.21875 39.40625 66.21875 
z
M 53.21875 1.3125 
L 66.21875 -12.890625 
L 54.296875 -12.890625 
L 43.5 -1.21875 
Q 41.890625 -1.3125 41.03125 -1.359375 
Q 40.1875 -1.421875 39.40625 -1.421875 
Q 24.03125 -1.421875 14.8125 8.859375 
Q 5.609375 19.140625 5.609375 36.375 
Q 5.609375 53.65625 14.8125 63.9375 
Q 24.03125 74.21875 39.40625 74.21875 
Q 54.734375 74.21875 63.90625 63.9375 
Q 73.09375 53.65625 73.09375 36.375 
Q 73.09375 23.6875 67.984375 14.640625 
Q 62.890625 5.609375 53.21875 1.3125 
z
" id="DejaVuSans-81"/>
    <path d="M 4.890625 31.390625 
L 31.203125 31.390625 
L 31.203125 23.390625 
L 4.890625 23.390625 
z
" id="DejaVuSans-45"/>
    <path d="M 40.578125 39.3125 
Q 47.65625 37.796875 51.625 33 
Q 55.609375 28.21875 55.609375 21.1875 
Q 55.609375 10.40625 48.1875 4.484375 
Q 40.765625 -1.421875 27.09375 -1.421875 
Q 22.515625 -1.421875 17.65625 -0.515625 
Q 12.796875 0.390625 7.625 2.203125 
L 7.625 11.71875 
Q 11.71875 9.328125 16.59375 8.109375 
Q 21.484375 6.890625 26.8125 6.890625 
Q 36.078125 6.890625 40.9375 10.546875 
Q 45.796875 14.203125 45.796875 21.1875 
Q 45.796875 27.640625 41.28125 31.265625 
Q 36.765625 34.90625 28.71875 34.90625 
L 20.21875 34.90625 
L 20.21875 43.015625 
L 29.109375 43.015625 
Q 36.375 43.015625 40.234375 45.921875 
Q 44.09375 48.828125 44.09375 54.296875 
Q 44.09375 59.90625 40.109375 62.90625 
Q 36.140625 65.921875 28.71875 65.921875 
Q 24.65625 65.921875 20.015625 65.03125 
Q 15.375 64.15625 9.8125 62.3125 
L 9.8125 71.09375 
Q 15.4375 72.65625 20.34375 73.4375 
Q 25.25 74.21875 29.59375 74.21875 
Q 40.828125 74.21875 47.359375 69.109375 
Q 53.90625 64.015625 53.90625 55.328125 
Q 53.90625 49.265625 50.4375 45.09375 
Q 46.96875 40.921875 40.578125 39.3125 
z
" id="DejaVuSans-51"/>
    <path d="M 10.796875 72.90625 
L 49.515625 72.90625 
L 49.515625 64.59375 
L 19.828125 64.59375 
L 19.828125 46.734375 
Q 21.96875 47.46875 24.109375 47.828125 
Q 26.265625 48.1875 28.421875 48.1875 
Q 40.625 48.1875 47.75 41.5 
Q 54.890625 34.8125 54.890625 23.390625 
Q 54.890625 11.625 47.5625 5.09375 
Q 40.234375 -1.421875 26.90625 -1.421875 
Q 22.3125 -1.421875 17.546875 -0.640625 
Q 12.796875 0.140625 7.71875 1.703125 
L 7.71875 11.625 
Q 12.109375 9.234375 16.796875 8.0625 
Q 21.484375 6.890625 26.703125 6.890625 
Q 35.15625 6.890625 40.078125 11.328125 
Q 45.015625 15.765625 45.015625 23.390625 
Q 45.015625 31 40.078125 35.4375 
Q 35.15625 39.890625 26.703125 39.890625 
Q 22.75 39.890625 18.8125 39.015625 
Q 14.890625 38.140625 10.796875 36.28125 
z
" id="DejaVuSans-53"/>
    <path d="M 45.40625 46.390625 
L 45.40625 75.984375 
L 54.390625 75.984375 
L 54.390625 0 
L 45.40625 0 
L 45.40625 8.203125 
Q 42.578125 3.328125 38.25 0.953125 
Q 33.9375 -1.421875 27.875 -1.421875 
Q 17.96875 -1.421875 11.734375 6.484375 
Q 5.515625 14.40625 5.515625 27.296875 
Q 5.515625 40.1875 11.734375 48.09375 
Q 17.96875 56 27.875 56 
Q 33.9375 56 38.25 53.625 
Q 42.578125 51.265625 45.40625 46.390625 
z
M 14.796875 27.296875 
Q 14.796875 17.390625 18.875 11.75 
Q 22.953125 6.109375 30.078125 6.109375 
Q 37.203125 6.109375 41.296875 11.75 
Q 45.40625 17.390625 45.40625 27.296875 
Q 45.40625 37.203125 41.296875 42.84375 
Q 37.203125 48.484375 30.078125 48.484375 
Q 22.953125 48.484375 18.875 42.84375 
Q 14.796875 37.203125 14.796875 27.296875 
z
" id="DejaVuSans-100"/>
   </defs>
   <g transform="translate(226.943438 17.038125)scale(0.12 -0.12)">
    <use xlink:href="#DejaVuSans-67"/>
    <use x="69.824219" xlink:href="#DejaVuSans-97"/>
    <use x="131.103516" xlink:href="#DejaVuSans-108"/>
    <use x="158.886719" xlink:href="#DejaVuSans-105"/>
    <use x="186.669922" xlink:href="#DejaVuSans-98"/>
    <use x="250.146484" xlink:href="#DejaVuSans-114"/>
    <use x="291.259766" xlink:href="#DejaVuSans-97"/>
    <use x="352.539062" xlink:href="#DejaVuSans-116"/>
    <use x="391.748047" xlink:href="#DejaVuSans-105"/>
    <use x="419.53125" xlink:href="#DejaVuSans-111"/>
    <use x="480.712891" xlink:href="#DejaVuSans-110"/>
    <use x="544.091797" xlink:href="#DejaVuSans-32"/>
    <use x="575.878906" xlink:href="#DejaVuSans-112"/>
    <use x="639.355469" xlink:href="#DejaVuSans-108"/>
    <use x="667.138672" xlink:href="#DejaVuSans-111"/>
    <use x="728.320312" xlink:href="#DejaVuSans-116"/>
    <use x="767.529297" xlink:href="#DejaVuSans-32"/>
    <use x="799.316406" xlink:href="#DejaVuSans-102"/>
    <use x="834.521484" xlink:href="#DejaVuSans-111"/>
    <use x="895.703125" xlink:href="#DejaVuSans-114"/>
    <use x="936.816406" xlink:href="#DejaVuSans-32"/>
    <use x="968.603516" xlink:href="#DejaVuSans-77"/>
    <use x="1054.882812" xlink:href="#DejaVuSans-81"/>
    <use x="1133.625" xlink:href="#DejaVuSans-45"/>
    <use x="1169.708984" xlink:href="#DejaVuSans-49"/>
    <use x="1233.332031" xlink:href="#DejaVuSans-51"/>
    <use x="1296.955078" xlink:href="#DejaVuSans-53"/>
    <use x="1360.578125" xlink:href="#DejaVuSans-32"/>
    <use x="1392.365234" xlink:href="#DejaVuSans-100"/>
    <use x="1455.841797" xlink:href="#DejaVuSans-97"/>
    <use x="1517.121094" xlink:href="#DejaVuSans-116"/>
    <use x="1556.330078" xlink:href="#DejaVuSans-97"/>
   </g>
  </g>
 </g>
 <defs>
  <clipPath id="p42ebe8fa97">
   <rect height="298.98" width="502.2" x="81" y="47.52"/>
  </clipPath>
 </defs>
</svg>
