<?xml version="1.0" encoding="utf-8" standalone="no"?>
<!DOCTYPE svg PUBLIC "-//W3C//DTD SVG 1.1//EN"
  "http://www.w3.org/Graphics/SVG/1.1/DTD/svg11.dtd">
<!-- Created with matplotlib (https://matplotlib.org/) -->
<svg height="396pt" version="1.1" viewBox="0 0 648 396" width="648pt" xmlns="http://www.w3.org/2000/svg" xmlns:xlink="http://www.w3.org/1999/xlink">
 <defs>
  <style type="text/css">
*{stroke-linecap:butt;stroke-linejoin:round;}
  </style>
 </defs>
 <g id="figure_1">
  <g id="patch_1">
   <path d="M 0 396 
L 648 396 
L 648 0 
L 0 0 
z
" style="fill:#ffffff;"/>
  </g>
  <g id="axes_1">
   <g id="patch_2">
    <path d="M 81 346.5 
L 583.2 346.5 
L 583.2 47.52 
L 81 47.52 
z
" style="fill:#ffffff;"/>
   </g>
   <g id="matplotlib.axis_1">
    <g id="xtick_1">
     <g id="line2d_1">
      <defs>
       <path d="M 0 0 
L 0 3.5 
" id="mbb0021faef" style="stroke:#000000;stroke-width:0.8;"/>
      </defs>
      <g>
       <use style="stroke:#000000;stroke-width:0.8;" x="203.286318" xlink:href="#mbb0021faef" y="346.5"/>
      </g>
     </g>
     <g id="text_1">
      <!-- $\mathdefault{10^{2}}$ -->
      <defs>
       <path d="M 12.40625 8.296875 
L 28.515625 8.296875 
L 28.515625 63.921875 
L 10.984375 60.40625 
L 10.984375 69.390625 
L 28.421875 72.90625 
L 38.28125 72.90625 
L 38.28125 8.296875 
L 54.390625 8.296875 
L 54.390625 0 
L 12.40625 0 
z
" id="DejaVuSans-49"/>
       <path d="M 31.78125 66.40625 
Q 24.171875 66.40625 20.328125 58.90625 
Q 16.5 51.421875 16.5 36.375 
Q 16.5 21.390625 20.328125 13.890625 
Q 24.171875 6.390625 31.78125 6.390625 
Q 39.453125 6.390625 43.28125 13.890625 
Q 47.125 21.390625 47.125 36.375 
Q 47.125 51.421875 43.28125 58.90625 
Q 39.453125 66.40625 31.78125 66.40625 
z
M 31.78125 74.21875 
Q 44.046875 74.21875 50.515625 64.515625 
Q 56.984375 54.828125 56.984375 36.375 
Q 56.984375 17.96875 50.515625 8.265625 
Q 44.046875 -1.421875 31.78125 -1.421875 
Q 19.53125 -1.421875 13.0625 8.265625 
Q 6.59375 17.96875 6.59375 36.375 
Q 6.59375 54.828125 13.0625 64.515625 
Q 19.53125 74.21875 31.78125 74.21875 
z
" id="DejaVuSans-48"/>
       <path d="M 19.1875 8.296875 
L 53.609375 8.296875 
L 53.609375 0 
L 7.328125 0 
L 7.328125 8.296875 
Q 12.9375 14.109375 22.625 23.890625 
Q 32.328125 33.6875 34.8125 36.53125 
Q 39.546875 41.84375 41.421875 45.53125 
Q 43.3125 49.21875 43.3125 52.78125 
Q 43.3125 58.59375 39.234375 62.25 
Q 35.15625 65.921875 28.609375 65.921875 
Q 23.96875 65.921875 18.8125 64.3125 
Q 13.671875 62.703125 7.8125 59.421875 
L 7.8125 69.390625 
Q 13.765625 71.78125 18.9375 73 
Q 24.125 74.21875 28.421875 74.21875 
Q 39.75 74.21875 46.484375 68.546875 
Q 53.21875 62.890625 53.21875 53.421875 
Q 53.21875 48.921875 51.53125 44.890625 
Q 49.859375 40.875 45.40625 35.40625 
Q 44.1875 33.984375 37.640625 27.21875 
Q 31.109375 20.453125 19.1875 8.296875 
z
" id="DejaVuSans-50"/>
      </defs>
      <g transform="translate(194.486318 361.098437)scale(0.1 -0.1)">
       <use transform="translate(0 0.765625)" xlink:href="#DejaVuSans-49"/>
       <use transform="translate(63.623047 0.765625)" xlink:href="#DejaVuSans-48"/>
       <use transform="translate(128.203125 39.046875)scale(0.7)" xlink:href="#DejaVuSans-50"/>
      </g>
     </g>
    </g>
    <g id="xtick_2">
     <g id="line2d_2">
      <g>
       <use style="stroke:#000000;stroke-width:0.8;" x="385.383992" xlink:href="#mbb0021faef" y="346.5"/>
      </g>
     </g>
     <g id="text_2">
      <!-- $\mathdefault{10^{3}}$ -->
      <defs>
       <path d="M 40.578125 39.3125 
Q 47.65625 37.796875 51.625 33 
Q 55.609375 28.21875 55.609375 21.1875 
Q 55.609375 10.40625 48.1875 4.484375 
Q 40.765625 -1.421875 27.09375 -1.421875 
Q 22.515625 -1.421875 17.65625 -0.515625 
Q 12.796875 0.390625 7.625 2.203125 
L 7.625 11.71875 
Q 11.71875 9.328125 16.59375 8.109375 
Q 21.484375 6.890625 26.8125 6.890625 
Q 36.078125 6.890625 40.9375 10.546875 
Q 45.796875 14.203125 45.796875 21.1875 
Q 45.796875 27.640625 41.28125 31.265625 
Q 36.765625 34.90625 28.71875 34.90625 
L 20.21875 34.90625 
L 20.21875 43.015625 
L 29.109375 43.015625 
Q 36.375 43.015625 40.234375 45.921875 
Q 44.09375 48.828125 44.09375 54.296875 
Q 44.09375 59.90625 40.109375 62.90625 
Q 36.140625 65.921875 28.71875 65.921875 
Q 24.65625 65.921875 20.015625 65.03125 
Q 15.375 64.15625 9.8125 62.3125 
L 9.8125 71.09375 
Q 15.4375 72.65625 20.34375 73.4375 
Q 25.25 74.21875 29.59375 74.21875 
Q 40.828125 74.21875 47.359375 69.109375 
Q 53.90625 64.015625 53.90625 55.328125 
Q 53.90625 49.265625 50.4375 45.09375 
Q 46.96875 40.921875 40.578125 39.3125 
z
" id="DejaVuSans-51"/>
      </defs>
      <g transform="translate(376.583992 361.098437)scale(0.1 -0.1)">
       <use transform="translate(0 0.765625)" xlink:href="#DejaVuSans-49"/>
       <use transform="translate(63.623047 0.765625)" xlink:href="#DejaVuSans-48"/>
       <use transform="translate(128.203125 39.046875)scale(0.7)" xlink:href="#DejaVuSans-51"/>
      </g>
     </g>
    </g>
    <g id="xtick_3">
     <g id="line2d_3">
      <g>
       <use style="stroke:#000000;stroke-width:0.8;" x="567.481666" xlink:href="#mbb0021faef" y="346.5"/>
      </g>
     </g>
     <g id="text_3">
      <!-- $\mathdefault{10^{4}}$ -->
      <defs>
       <path d="M 37.796875 64.3125 
L 12.890625 25.390625 
L 37.796875 25.390625 
z
M 35.203125 72.90625 
L 47.609375 72.90625 
L 47.609375 25.390625 
L 58.015625 25.390625 
L 58.015625 17.1875 
L 47.609375 17.1875 
L 47.609375 0 
L 37.796875 0 
L 37.796875 17.1875 
L 4.890625 17.1875 
L 4.890625 26.703125 
z
" id="DejaVuSans-52"/>
      </defs>
      <g transform="translate(558.681666 361.098437)scale(0.1 -0.1)">
       <use transform="translate(0 0.684375)" xlink:href="#DejaVuSans-49"/>
       <use transform="translate(63.623047 0.684375)" xlink:href="#DejaVuSans-48"/>
       <use transform="translate(128.203125 38.965625)scale(0.7)" xlink:href="#DejaVuSans-52"/>
      </g>
     </g>
    </g>
    <g id="xtick_4">
     <g id="line2d_4">
      <path clip-path="url(#pbb35fd3048)" d="M 108.071315 346.5 
L 108.071315 47.52 
" style="fill:none;stroke:#d3d3d3;stroke-dasharray:2.96,1.28;stroke-dashoffset:0;stroke-width:0.8;"/>
     </g>
     <g id="line2d_5">
      <defs>
       <path d="M 0 0 
L 0 2 
" id="m9747c7ee25" style="stroke:#000000;stroke-width:0.6;"/>
      </defs>
      <g>
       <use style="stroke:#000000;stroke-width:0.6;" x="108.071315" xlink:href="#m9747c7ee25" y="346.5"/>
      </g>
     </g>
    </g>
    <g id="xtick_5">
     <g id="line2d_6">
      <path clip-path="url(#pbb35fd3048)" d="M 130.822368 346.5 
L 130.822368 47.52 
" style="fill:none;stroke:#d3d3d3;stroke-dasharray:2.96,1.28;stroke-dashoffset:0;stroke-width:0.8;"/>
     </g>
     <g id="line2d_7">
      <g>
       <use style="stroke:#000000;stroke-width:0.6;" x="130.822368" xlink:href="#m9747c7ee25" y="346.5"/>
      </g>
     </g>
    </g>
    <g id="xtick_6">
     <g id="line2d_8">
      <path clip-path="url(#pbb35fd3048)" d="M 148.469456 346.5 
L 148.469456 47.52 
" style="fill:none;stroke:#d3d3d3;stroke-dasharray:2.96,1.28;stroke-dashoffset:0;stroke-width:0.8;"/>
     </g>
     <g id="line2d_9">
      <g>
       <use style="stroke:#000000;stroke-width:0.6;" x="148.469456" xlink:href="#m9747c7ee25" y="346.5"/>
      </g>
     </g>
    </g>
    <g id="xtick_7">
     <g id="line2d_10">
      <path clip-path="url(#pbb35fd3048)" d="M 162.888177 346.5 
L 162.888177 47.52 
" style="fill:none;stroke:#d3d3d3;stroke-dasharray:2.96,1.28;stroke-dashoffset:0;stroke-width:0.8;"/>
     </g>
     <g id="line2d_11">
      <g>
       <use style="stroke:#000000;stroke-width:0.6;" x="162.888177" xlink:href="#m9747c7ee25" y="346.5"/>
      </g>
     </g>
    </g>
    <g id="xtick_8">
     <g id="line2d_12">
      <path clip-path="url(#pbb35fd3048)" d="M 175.079031 346.5 
L 175.079031 47.52 
" style="fill:none;stroke:#d3d3d3;stroke-dasharray:2.96,1.28;stroke-dashoffset:0;stroke-width:0.8;"/>
     </g>
     <g id="line2d_13">
      <g>
       <use style="stroke:#000000;stroke-width:0.6;" x="175.079031" xlink:href="#m9747c7ee25" y="346.5"/>
      </g>
     </g>
    </g>
    <g id="xtick_9">
     <g id="line2d_14">
      <path clip-path="url(#pbb35fd3048)" d="M 185.63923 346.5 
L 185.63923 47.52 
" style="fill:none;stroke:#d3d3d3;stroke-dasharray:2.96,1.28;stroke-dashoffset:0;stroke-width:0.8;"/>
     </g>
     <g id="line2d_15">
      <g>
       <use style="stroke:#000000;stroke-width:0.6;" x="185.63923" xlink:href="#m9747c7ee25" y="346.5"/>
      </g>
     </g>
    </g>
    <g id="xtick_10">
     <g id="line2d_16">
      <path clip-path="url(#pbb35fd3048)" d="M 194.953985 346.5 
L 194.953985 47.52 
" style="fill:none;stroke:#d3d3d3;stroke-dasharray:2.96,1.28;stroke-dashoffset:0;stroke-width:0.8;"/>
     </g>
     <g id="line2d_17">
      <g>
       <use style="stroke:#000000;stroke-width:0.6;" x="194.953985" xlink:href="#m9747c7ee25" y="346.5"/>
      </g>
     </g>
    </g>
    <g id="xtick_11">
     <g id="line2d_18">
      <path clip-path="url(#pbb35fd3048)" d="M 258.10318 346.5 
L 258.10318 47.52 
" style="fill:none;stroke:#d3d3d3;stroke-dasharray:2.96,1.28;stroke-dashoffset:0;stroke-width:0.8;"/>
     </g>
     <g id="line2d_19">
      <g>
       <use style="stroke:#000000;stroke-width:0.6;" x="258.10318" xlink:href="#m9747c7ee25" y="346.5"/>
      </g>
     </g>
    </g>
    <g id="xtick_12">
     <g id="line2d_20">
      <path clip-path="url(#pbb35fd3048)" d="M 290.168988 346.5 
L 290.168988 47.52 
" style="fill:none;stroke:#d3d3d3;stroke-dasharray:2.96,1.28;stroke-dashoffset:0;stroke-width:0.8;"/>
     </g>
     <g id="line2d_21">
      <g>
       <use style="stroke:#000000;stroke-width:0.6;" x="290.168988" xlink:href="#m9747c7ee25" y="346.5"/>
      </g>
     </g>
    </g>
    <g id="xtick_13">
     <g id="line2d_22">
      <path clip-path="url(#pbb35fd3048)" d="M 312.920042 346.5 
L 312.920042 47.52 
" style="fill:none;stroke:#d3d3d3;stroke-dasharray:2.96,1.28;stroke-dashoffset:0;stroke-width:0.8;"/>
     </g>
     <g id="line2d_23">
      <g>
       <use style="stroke:#000000;stroke-width:0.6;" x="312.920042" xlink:href="#m9747c7ee25" y="346.5"/>
      </g>
     </g>
    </g>
    <g id="xtick_14">
     <g id="line2d_24">
      <path clip-path="url(#pbb35fd3048)" d="M 330.56713 346.5 
L 330.56713 47.52 
" style="fill:none;stroke:#d3d3d3;stroke-dasharray:2.96,1.28;stroke-dashoffset:0;stroke-width:0.8;"/>
     </g>
     <g id="line2d_25">
      <g>
       <use style="stroke:#000000;stroke-width:0.6;" x="330.56713" xlink:href="#m9747c7ee25" y="346.5"/>
      </g>
     </g>
    </g>
    <g id="xtick_15">
     <g id="line2d_26">
      <path clip-path="url(#pbb35fd3048)" d="M 344.98585 346.5 
L 344.98585 47.52 
" style="fill:none;stroke:#d3d3d3;stroke-dasharray:2.96,1.28;stroke-dashoffset:0;stroke-width:0.8;"/>
     </g>
     <g id="line2d_27">
      <g>
       <use style="stroke:#000000;stroke-width:0.6;" x="344.98585" xlink:href="#m9747c7ee25" y="346.5"/>
      </g>
     </g>
    </g>
    <g id="xtick_16">
     <g id="line2d_28">
      <path clip-path="url(#pbb35fd3048)" d="M 357.176705 346.5 
L 357.176705 47.52 
" style="fill:none;stroke:#d3d3d3;stroke-dasharray:2.96,1.28;stroke-dashoffset:0;stroke-width:0.8;"/>
     </g>
     <g id="line2d_29">
      <g>
       <use style="stroke:#000000;stroke-width:0.6;" x="357.176705" xlink:href="#m9747c7ee25" y="346.5"/>
      </g>
     </g>
    </g>
    <g id="xtick_17">
     <g id="line2d_30">
      <path clip-path="url(#pbb35fd3048)" d="M 367.736904 346.5 
L 367.736904 47.52 
" style="fill:none;stroke:#d3d3d3;stroke-dasharray:2.96,1.28;stroke-dashoffset:0;stroke-width:0.8;"/>
     </g>
     <g id="line2d_31">
      <g>
       <use style="stroke:#000000;stroke-width:0.6;" x="367.736904" xlink:href="#m9747c7ee25" y="346.5"/>
      </g>
     </g>
    </g>
    <g id="xtick_18">
     <g id="line2d_32">
      <path clip-path="url(#pbb35fd3048)" d="M 377.051659 346.5 
L 377.051659 47.52 
" style="fill:none;stroke:#d3d3d3;stroke-dasharray:2.96,1.28;stroke-dashoffset:0;stroke-width:0.8;"/>
     </g>
     <g id="line2d_33">
      <g>
       <use style="stroke:#000000;stroke-width:0.6;" x="377.051659" xlink:href="#m9747c7ee25" y="346.5"/>
      </g>
     </g>
    </g>
    <g id="xtick_19">
     <g id="line2d_34">
      <path clip-path="url(#pbb35fd3048)" d="M 440.200854 346.5 
L 440.200854 47.52 
" style="fill:none;stroke:#d3d3d3;stroke-dasharray:2.96,1.28;stroke-dashoffset:0;stroke-width:0.8;"/>
     </g>
     <g id="line2d_35">
      <g>
       <use style="stroke:#000000;stroke-width:0.6;" x="440.200854" xlink:href="#m9747c7ee25" y="346.5"/>
      </g>
     </g>
    </g>
    <g id="xtick_20">
     <g id="line2d_36">
      <path clip-path="url(#pbb35fd3048)" d="M 472.266662 346.5 
L 472.266662 47.52 
" style="fill:none;stroke:#d3d3d3;stroke-dasharray:2.96,1.28;stroke-dashoffset:0;stroke-width:0.8;"/>
     </g>
     <g id="line2d_37">
      <g>
       <use style="stroke:#000000;stroke-width:0.6;" x="472.266662" xlink:href="#m9747c7ee25" y="346.5"/>
      </g>
     </g>
    </g>
    <g id="xtick_21">
     <g id="line2d_38">
      <path clip-path="url(#pbb35fd3048)" d="M 495.017716 346.5 
L 495.017716 47.52 
" style="fill:none;stroke:#d3d3d3;stroke-dasharray:2.96,1.28;stroke-dashoffset:0;stroke-width:0.8;"/>
     </g>
     <g id="line2d_39">
      <g>
       <use style="stroke:#000000;stroke-width:0.6;" x="495.017716" xlink:href="#m9747c7ee25" y="346.5"/>
      </g>
     </g>
    </g>
    <g id="xtick_22">
     <g id="line2d_40">
      <path clip-path="url(#pbb35fd3048)" d="M 512.664804 346.5 
L 512.664804 47.52 
" style="fill:none;stroke:#d3d3d3;stroke-dasharray:2.96,1.28;stroke-dashoffset:0;stroke-width:0.8;"/>
     </g>
     <g id="line2d_41">
      <g>
       <use style="stroke:#000000;stroke-width:0.6;" x="512.664804" xlink:href="#m9747c7ee25" y="346.5"/>
      </g>
     </g>
    </g>
    <g id="xtick_23">
     <g id="line2d_42">
      <path clip-path="url(#pbb35fd3048)" d="M 527.083524 346.5 
L 527.083524 47.52 
" style="fill:none;stroke:#d3d3d3;stroke-dasharray:2.96,1.28;stroke-dashoffset:0;stroke-width:0.8;"/>
     </g>
     <g id="line2d_43">
      <g>
       <use style="stroke:#000000;stroke-width:0.6;" x="527.083524" xlink:href="#m9747c7ee25" y="346.5"/>
      </g>
     </g>
    </g>
    <g id="xtick_24">
     <g id="line2d_44">
      <path clip-path="url(#pbb35fd3048)" d="M 539.274379 346.5 
L 539.274379 47.52 
" style="fill:none;stroke:#d3d3d3;stroke-dasharray:2.96,1.28;stroke-dashoffset:0;stroke-width:0.8;"/>
     </g>
     <g id="line2d_45">
      <g>
       <use style="stroke:#000000;stroke-width:0.6;" x="539.274379" xlink:href="#m9747c7ee25" y="346.5"/>
      </g>
     </g>
    </g>
    <g id="xtick_25">
     <g id="line2d_46">
      <path clip-path="url(#pbb35fd3048)" d="M 549.834578 346.5 
L 549.834578 47.52 
" style="fill:none;stroke:#d3d3d3;stroke-dasharray:2.96,1.28;stroke-dashoffset:0;stroke-width:0.8;"/>
     </g>
     <g id="line2d_47">
      <g>
       <use style="stroke:#000000;stroke-width:0.6;" x="549.834578" xlink:href="#m9747c7ee25" y="346.5"/>
      </g>
     </g>
    </g>
    <g id="xtick_26">
     <g id="line2d_48">
      <path clip-path="url(#pbb35fd3048)" d="M 559.149333 346.5 
L 559.149333 47.52 
" style="fill:none;stroke:#d3d3d3;stroke-dasharray:2.96,1.28;stroke-dashoffset:0;stroke-width:0.8;"/>
     </g>
     <g id="line2d_49">
      <g>
       <use style="stroke:#000000;stroke-width:0.6;" x="559.149333" xlink:href="#m9747c7ee25" y="346.5"/>
      </g>
     </g>
    </g>
    <g id="text_4">
     <!-- PPM Concentration -->
     <defs>
      <path d="M 19.671875 64.796875 
L 19.671875 37.40625 
L 32.078125 37.40625 
Q 38.96875 37.40625 42.71875 40.96875 
Q 46.484375 44.53125 46.484375 51.125 
Q 46.484375 57.671875 42.71875 61.234375 
Q 38.96875 64.796875 32.078125 64.796875 
z
M 9.8125 72.90625 
L 32.078125 72.90625 
Q 44.34375 72.90625 50.609375 67.359375 
Q 56.890625 61.8125 56.890625 51.125 
Q 56.890625 40.328125 50.609375 34.8125 
Q 44.34375 29.296875 32.078125 29.296875 
L 19.671875 29.296875 
L 19.671875 0 
L 9.8125 0 
z
" id="DejaVuSans-80"/>
      <path d="M 9.8125 72.90625 
L 24.515625 72.90625 
L 43.109375 23.296875 
L 61.8125 72.90625 
L 76.515625 72.90625 
L 76.515625 0 
L 66.890625 0 
L 66.890625 64.015625 
L 48.09375 14.015625 
L 38.1875 14.015625 
L 19.390625 64.015625 
L 19.390625 0 
L 9.8125 0 
z
" id="DejaVuSans-77"/>
      <path id="DejaVuSans-32"/>
      <path d="M 64.40625 67.28125 
L 64.40625 56.890625 
Q 59.421875 61.53125 53.78125 63.8125 
Q 48.140625 66.109375 41.796875 66.109375 
Q 29.296875 66.109375 22.65625 58.46875 
Q 16.015625 50.828125 16.015625 36.375 
Q 16.015625 21.96875 22.65625 14.328125 
Q 29.296875 6.6875 41.796875 6.6875 
Q 48.140625 6.6875 53.78125 8.984375 
Q 59.421875 11.28125 64.40625 15.921875 
L 64.40625 5.609375 
Q 59.234375 2.09375 53.4375 0.328125 
Q 47.65625 -1.421875 41.21875 -1.421875 
Q 24.65625 -1.421875 15.125 8.703125 
Q 5.609375 18.84375 5.609375 36.375 
Q 5.609375 53.953125 15.125 64.078125 
Q 24.65625 74.21875 41.21875 74.21875 
Q 47.75 74.21875 53.53125 72.484375 
Q 59.328125 70.75 64.40625 67.28125 
z
" id="DejaVuSans-67"/>
      <path d="M 30.609375 48.390625 
Q 23.390625 48.390625 19.1875 42.75 
Q 14.984375 37.109375 14.984375 27.296875 
Q 14.984375 17.484375 19.15625 11.84375 
Q 23.34375 6.203125 30.609375 6.203125 
Q 37.796875 6.203125 41.984375 11.859375 
Q 46.1875 17.53125 46.1875 27.296875 
Q 46.1875 37.015625 41.984375 42.703125 
Q 37.796875 48.390625 30.609375 48.390625 
z
M 30.609375 56 
Q 42.328125 56 49.015625 48.375 
Q 55.71875 40.765625 55.71875 27.296875 
Q 55.71875 13.875 49.015625 6.21875 
Q 42.328125 -1.421875 30.609375 -1.421875 
Q 18.84375 -1.421875 12.171875 6.21875 
Q 5.515625 13.875 5.515625 27.296875 
Q 5.515625 40.765625 12.171875 48.375 
Q 18.84375 56 30.609375 56 
z
" id="DejaVuSans-111"/>
      <path d="M 54.890625 33.015625 
L 54.890625 0 
L 45.90625 0 
L 45.90625 32.71875 
Q 45.90625 40.484375 42.875 44.328125 
Q 39.84375 48.1875 33.796875 48.1875 
Q 26.515625 48.1875 22.3125 43.546875 
Q 18.109375 38.921875 18.109375 30.90625 
L 18.109375 0 
L 9.078125 0 
L 9.078125 54.6875 
L 18.109375 54.6875 
L 18.109375 46.1875 
Q 21.34375 51.125 25.703125 53.5625 
Q 30.078125 56 35.796875 56 
Q 45.21875 56 50.046875 50.171875 
Q 54.890625 44.34375 54.890625 33.015625 
z
" id="DejaVuSans-110"/>
      <path d="M 48.78125 52.59375 
L 48.78125 44.1875 
Q 44.96875 46.296875 41.140625 47.34375 
Q 37.3125 48.390625 33.40625 48.390625 
Q 24.65625 48.390625 19.8125 42.84375 
Q 14.984375 37.3125 14.984375 27.296875 
Q 14.984375 17.28125 19.8125 11.734375 
Q 24.65625 6.203125 33.40625 6.203125 
Q 37.3125 6.203125 41.140625 7.25 
Q 44.96875 8.296875 48.78125 10.40625 
L 48.78125 2.09375 
Q 45.015625 0.34375 40.984375 -0.53125 
Q 36.96875 -1.421875 32.421875 -1.421875 
Q 20.0625 -1.421875 12.78125 6.34375 
Q 5.515625 14.109375 5.515625 27.296875 
Q 5.515625 40.671875 12.859375 48.328125 
Q 20.21875 56 33.015625 56 
Q 37.15625 56 41.109375 55.140625 
Q 45.0625 54.296875 48.78125 52.59375 
z
" id="DejaVuSans-99"/>
      <path d="M 56.203125 29.59375 
L 56.203125 25.203125 
L 14.890625 25.203125 
Q 15.484375 15.921875 20.484375 11.0625 
Q 25.484375 6.203125 34.421875 6.203125 
Q 39.59375 6.203125 44.453125 7.46875 
Q 49.3125 8.734375 54.109375 11.28125 
L 54.109375 2.78125 
Q 49.265625 0.734375 44.1875 -0.34375 
Q 39.109375 -1.421875 33.890625 -1.421875 
Q 20.796875 -1.421875 13.15625 6.1875 
Q 5.515625 13.8125 5.515625 26.8125 
Q 5.515625 40.234375 12.765625 48.109375 
Q 20.015625 56 32.328125 56 
Q 43.359375 56 49.78125 48.890625 
Q 56.203125 41.796875 56.203125 29.59375 
z
M 47.21875 32.234375 
Q 47.125 39.59375 43.09375 43.984375 
Q 39.0625 48.390625 32.421875 48.390625 
Q 24.90625 48.390625 20.390625 44.140625 
Q 15.875 39.890625 15.1875 32.171875 
z
" id="DejaVuSans-101"/>
      <path d="M 18.3125 70.21875 
L 18.3125 54.6875 
L 36.8125 54.6875 
L 36.8125 47.703125 
L 18.3125 47.703125 
L 18.3125 18.015625 
Q 18.3125 11.328125 20.140625 9.421875 
Q 21.96875 7.515625 27.59375 7.515625 
L 36.8125 7.515625 
L 36.8125 0 
L 27.59375 0 
Q 17.1875 0 13.234375 3.875 
Q 9.28125 7.765625 9.28125 18.015625 
L 9.28125 47.703125 
L 2.6875 47.703125 
L 2.6875 54.6875 
L 9.28125 54.6875 
L 9.28125 70.21875 
z
" id="DejaVuSans-116"/>
      <path d="M 41.109375 46.296875 
Q 39.59375 47.171875 37.8125 47.578125 
Q 36.03125 48 33.890625 48 
Q 26.265625 48 22.1875 43.046875 
Q 18.109375 38.09375 18.109375 28.8125 
L 18.109375 0 
L 9.078125 0 
L 9.078125 54.6875 
L 18.109375 54.6875 
L 18.109375 46.1875 
Q 20.953125 51.171875 25.484375 53.578125 
Q 30.03125 56 36.53125 56 
Q 37.453125 56 38.578125 55.875 
Q 39.703125 55.765625 41.0625 55.515625 
z
" id="DejaVuSans-114"/>
      <path d="M 34.28125 27.484375 
Q 23.390625 27.484375 19.1875 25 
Q 14.984375 22.515625 14.984375 16.5 
Q 14.984375 11.71875 18.140625 8.90625 
Q 21.296875 6.109375 26.703125 6.109375 
Q 34.1875 6.109375 38.703125 11.40625 
Q 43.21875 16.703125 43.21875 25.484375 
L 43.21875 27.484375 
z
M 52.203125 31.203125 
L 52.203125 0 
L 43.21875 0 
L 43.21875 8.296875 
Q 40.140625 3.328125 35.546875 0.953125 
Q 30.953125 -1.421875 24.3125 -1.421875 
Q 15.921875 -1.421875 10.953125 3.296875 
Q 6 8.015625 6 15.921875 
Q 6 25.140625 12.171875 29.828125 
Q 18.359375 34.515625 30.609375 34.515625 
L 43.21875 34.515625 
L 43.21875 35.40625 
Q 43.21875 41.609375 39.140625 45 
Q 35.0625 48.390625 27.6875 48.390625 
Q 23 48.390625 18.546875 47.265625 
Q 14.109375 46.140625 10.015625 43.890625 
L 10.015625 52.203125 
Q 14.9375 54.109375 19.578125 55.046875 
Q 24.21875 56 28.609375 56 
Q 40.484375 56 46.34375 49.84375 
Q 52.203125 43.703125 52.203125 31.203125 
z
" id="DejaVuSans-97"/>
      <path d="M 9.421875 54.6875 
L 18.40625 54.6875 
L 18.40625 0 
L 9.421875 0 
z
M 9.421875 75.984375 
L 18.40625 75.984375 
L 18.40625 64.59375 
L 9.421875 64.59375 
z
" id="DejaVuSans-105"/>
     </defs>
     <g transform="translate(284.796094 374.776563)scale(0.1 -0.1)">
      <use xlink:href="#DejaVuSans-80"/>
      <use x="60.302734" xlink:href="#DejaVuSans-80"/>
      <use x="120.605469" xlink:href="#DejaVuSans-77"/>
      <use x="206.884766" xlink:href="#DejaVuSans-32"/>
      <use x="238.671875" xlink:href="#DejaVuSans-67"/>
      <use x="308.496094" xlink:href="#DejaVuSans-111"/>
      <use x="369.677734" xlink:href="#DejaVuSans-110"/>
      <use x="433.056641" xlink:href="#DejaVuSans-99"/>
      <use x="488.037109" xlink:href="#DejaVuSans-101"/>
      <use x="549.560547" xlink:href="#DejaVuSans-110"/>
      <use x="612.939453" xlink:href="#DejaVuSans-116"/>
      <use x="652.148438" xlink:href="#DejaVuSans-114"/>
      <use x="693.261719" xlink:href="#DejaVuSans-97"/>
      <use x="754.541016" xlink:href="#DejaVuSans-116"/>
      <use x="793.75" xlink:href="#DejaVuSans-105"/>
      <use x="821.533203" xlink:href="#DejaVuSans-111"/>
      <use x="882.714844" xlink:href="#DejaVuSans-110"/>
     </g>
    </g>
   </g>
   <g id="matplotlib.axis_2">
    <g id="ytick_1">
     <g id="line2d_50">
      <defs>
       <path d="M 0 0 
L -3.5 0 
" id="m3b9bf75907" style="stroke:#000000;stroke-width:0.8;"/>
      </defs>
      <g>
       <use style="stroke:#000000;stroke-width:0.8;" x="81" xlink:href="#m3b9bf75907" y="281.549744"/>
      </g>
     </g>
     <g id="text_5">
      <!-- $\mathdefault{10^{-1}}$ -->
      <defs>
       <path d="M 10.59375 35.5 
L 73.1875 35.5 
L 73.1875 27.203125 
L 10.59375 27.203125 
z
" id="DejaVuSans-8722"/>
      </defs>
      <g transform="translate(50.5 285.348963)scale(0.1 -0.1)">
       <use transform="translate(0 0.684375)" xlink:href="#DejaVuSans-49"/>
       <use transform="translate(63.623047 0.684375)" xlink:href="#DejaVuSans-48"/>
       <use transform="translate(128.203125 38.965625)scale(0.7)" xlink:href="#DejaVuSans-8722"/>
       <use transform="translate(186.855469 38.965625)scale(0.7)" xlink:href="#DejaVuSans-49"/>
      </g>
     </g>
    </g>
    <g id="ytick_2">
     <g id="line2d_51">
      <g>
       <use style="stroke:#000000;stroke-width:0.8;" x="81" xlink:href="#m3b9bf75907" y="208.069829"/>
      </g>
     </g>
     <g id="text_6">
      <!-- $\mathdefault{10^{0}}$ -->
      <g transform="translate(56.4 211.869048)scale(0.1 -0.1)">
       <use transform="translate(0 0.765625)" xlink:href="#DejaVuSans-49"/>
       <use transform="translate(63.623047 0.765625)" xlink:href="#DejaVuSans-48"/>
       <use transform="translate(128.203125 39.046875)scale(0.7)" xlink:href="#DejaVuSans-48"/>
      </g>
     </g>
    </g>
    <g id="ytick_3">
     <g id="line2d_52">
      <g>
       <use style="stroke:#000000;stroke-width:0.8;" x="81" xlink:href="#m3b9bf75907" y="134.589915"/>
      </g>
     </g>
     <g id="text_7">
      <!-- $\mathdefault{10^{1}}$ -->
      <g transform="translate(56.4 138.389133)scale(0.1 -0.1)">
       <use transform="translate(0 0.684375)" xlink:href="#DejaVuSans-49"/>
       <use transform="translate(63.623047 0.684375)" xlink:href="#DejaVuSans-48"/>
       <use transform="translate(128.203125 38.965625)scale(0.7)" xlink:href="#DejaVuSans-49"/>
      </g>
     </g>
    </g>
    <g id="ytick_4">
     <g id="line2d_53">
      <g>
       <use style="stroke:#000000;stroke-width:0.8;" x="81" xlink:href="#m3b9bf75907" y="61.11"/>
      </g>
     </g>
     <g id="text_8">
      <!-- $\mathdefault{10^{2}}$ -->
      <g transform="translate(56.4 64.909219)scale(0.1 -0.1)">
       <use transform="translate(0 0.765625)" xlink:href="#DejaVuSans-49"/>
       <use transform="translate(63.623047 0.765625)" xlink:href="#DejaVuSans-48"/>
       <use transform="translate(128.203125 39.046875)scale(0.7)" xlink:href="#DejaVuSans-50"/>
      </g>
     </g>
    </g>
    <g id="ytick_5">
     <g id="line2d_54">
      <path clip-path="url(#pbb35fd3048)" d="M 81 332.91 
L 583.2 332.91 
" style="fill:none;stroke:#d3d3d3;stroke-dasharray:2.96,1.28;stroke-dashoffset:0;stroke-width:0.8;"/>
     </g>
     <g id="line2d_55">
      <defs>
       <path d="M 0 0 
L -2 0 
" id="me37b2b3b18" style="stroke:#000000;stroke-width:0.6;"/>
      </defs>
      <g>
       <use style="stroke:#000000;stroke-width:0.6;" x="81" xlink:href="#me37b2b3b18" y="332.91"/>
      </g>
     </g>
    </g>
    <g id="ytick_6">
     <g id="line2d_56">
      <path clip-path="url(#pbb35fd3048)" d="M 81 319.970829 
L 583.2 319.970829 
" style="fill:none;stroke:#d3d3d3;stroke-dasharray:2.96,1.28;stroke-dashoffset:0;stroke-width:0.8;"/>
     </g>
     <g id="line2d_57">
      <g>
       <use style="stroke:#000000;stroke-width:0.6;" x="81" xlink:href="#me37b2b3b18" y="319.970829"/>
      </g>
     </g>
    </g>
    <g id="ytick_7">
     <g id="line2d_58">
      <path clip-path="url(#pbb35fd3048)" d="M 81 310.790342 
L 583.2 310.790342 
" style="fill:none;stroke:#d3d3d3;stroke-dasharray:2.96,1.28;stroke-dashoffset:0;stroke-width:0.8;"/>
     </g>
     <g id="line2d_59">
      <g>
       <use style="stroke:#000000;stroke-width:0.6;" x="81" xlink:href="#me37b2b3b18" y="310.790342"/>
      </g>
     </g>
    </g>
    <g id="ytick_8">
     <g id="line2d_60">
      <path clip-path="url(#pbb35fd3048)" d="M 81 303.669402 
L 583.2 303.669402 
" style="fill:none;stroke:#d3d3d3;stroke-dasharray:2.96,1.28;stroke-dashoffset:0;stroke-width:0.8;"/>
     </g>
     <g id="line2d_61">
      <g>
       <use style="stroke:#000000;stroke-width:0.6;" x="81" xlink:href="#me37b2b3b18" y="303.669402"/>
      </g>
     </g>
    </g>
    <g id="ytick_9">
     <g id="line2d_62">
      <path clip-path="url(#pbb35fd3048)" d="M 81 297.851171 
L 583.2 297.851171 
" style="fill:none;stroke:#d3d3d3;stroke-dasharray:2.96,1.28;stroke-dashoffset:0;stroke-width:0.8;"/>
     </g>
     <g id="line2d_63">
      <g>
       <use style="stroke:#000000;stroke-width:0.6;" x="81" xlink:href="#me37b2b3b18" y="297.851171"/>
      </g>
     </g>
    </g>
    <g id="ytick_10">
     <g id="line2d_64">
      <path clip-path="url(#pbb35fd3048)" d="M 81 292.931927 
L 583.2 292.931927 
" style="fill:none;stroke:#d3d3d3;stroke-dasharray:2.96,1.28;stroke-dashoffset:0;stroke-width:0.8;"/>
     </g>
     <g id="line2d_65">
      <g>
       <use style="stroke:#000000;stroke-width:0.6;" x="81" xlink:href="#me37b2b3b18" y="292.931927"/>
      </g>
     </g>
    </g>
    <g id="ytick_11">
     <g id="line2d_66">
      <path clip-path="url(#pbb35fd3048)" d="M 81 288.670683 
L 583.2 288.670683 
" style="fill:none;stroke:#d3d3d3;stroke-dasharray:2.96,1.28;stroke-dashoffset:0;stroke-width:0.8;"/>
     </g>
     <g id="line2d_67">
      <g>
       <use style="stroke:#000000;stroke-width:0.6;" x="81" xlink:href="#me37b2b3b18" y="288.670683"/>
      </g>
     </g>
    </g>
    <g id="ytick_12">
     <g id="line2d_68">
      <path clip-path="url(#pbb35fd3048)" d="M 81 284.912 
L 583.2 284.912 
" style="fill:none;stroke:#d3d3d3;stroke-dasharray:2.96,1.28;stroke-dashoffset:0;stroke-width:0.8;"/>
     </g>
     <g id="line2d_69">
      <g>
       <use style="stroke:#000000;stroke-width:0.6;" x="81" xlink:href="#me37b2b3b18" y="284.912"/>
      </g>
     </g>
    </g>
    <g id="ytick_13">
     <g id="line2d_70">
      <path clip-path="url(#pbb35fd3048)" d="M 81 259.430085 
L 583.2 259.430085 
" style="fill:none;stroke:#d3d3d3;stroke-dasharray:2.96,1.28;stroke-dashoffset:0;stroke-width:0.8;"/>
     </g>
     <g id="line2d_71">
      <g>
       <use style="stroke:#000000;stroke-width:0.6;" x="81" xlink:href="#me37b2b3b18" y="259.430085"/>
      </g>
     </g>
    </g>
    <g id="ytick_14">
     <g id="line2d_72">
      <path clip-path="url(#pbb35fd3048)" d="M 81 246.490915 
L 583.2 246.490915 
" style="fill:none;stroke:#d3d3d3;stroke-dasharray:2.96,1.28;stroke-dashoffset:0;stroke-width:0.8;"/>
     </g>
     <g id="line2d_73">
      <g>
       <use style="stroke:#000000;stroke-width:0.6;" x="81" xlink:href="#me37b2b3b18" y="246.490915"/>
      </g>
     </g>
    </g>
    <g id="ytick_15">
     <g id="line2d_74">
      <path clip-path="url(#pbb35fd3048)" d="M 81 237.310427 
L 583.2 237.310427 
" style="fill:none;stroke:#d3d3d3;stroke-dasharray:2.96,1.28;stroke-dashoffset:0;stroke-width:0.8;"/>
     </g>
     <g id="line2d_75">
      <g>
       <use style="stroke:#000000;stroke-width:0.6;" x="81" xlink:href="#me37b2b3b18" y="237.310427"/>
      </g>
     </g>
    </g>
    <g id="ytick_16">
     <g id="line2d_76">
      <path clip-path="url(#pbb35fd3048)" d="M 81 230.189488 
L 583.2 230.189488 
" style="fill:none;stroke:#d3d3d3;stroke-dasharray:2.96,1.28;stroke-dashoffset:0;stroke-width:0.8;"/>
     </g>
     <g id="line2d_77">
      <g>
       <use style="stroke:#000000;stroke-width:0.6;" x="81" xlink:href="#me37b2b3b18" y="230.189488"/>
      </g>
     </g>
    </g>
    <g id="ytick_17">
     <g id="line2d_78">
      <path clip-path="url(#pbb35fd3048)" d="M 81 224.371256 
L 583.2 224.371256 
" style="fill:none;stroke:#d3d3d3;stroke-dasharray:2.96,1.28;stroke-dashoffset:0;stroke-width:0.8;"/>
     </g>
     <g id="line2d_79">
      <g>
       <use style="stroke:#000000;stroke-width:0.6;" x="81" xlink:href="#me37b2b3b18" y="224.371256"/>
      </g>
     </g>
    </g>
    <g id="ytick_18">
     <g id="line2d_80">
      <path clip-path="url(#pbb35fd3048)" d="M 81 219.452012 
L 583.2 219.452012 
" style="fill:none;stroke:#d3d3d3;stroke-dasharray:2.96,1.28;stroke-dashoffset:0;stroke-width:0.8;"/>
     </g>
     <g id="line2d_81">
      <g>
       <use style="stroke:#000000;stroke-width:0.6;" x="81" xlink:href="#me37b2b3b18" y="219.452012"/>
      </g>
     </g>
    </g>
    <g id="ytick_19">
     <g id="line2d_82">
      <path clip-path="url(#pbb35fd3048)" d="M 81 215.190769 
L 583.2 215.190769 
" style="fill:none;stroke:#d3d3d3;stroke-dasharray:2.96,1.28;stroke-dashoffset:0;stroke-width:0.8;"/>
     </g>
     <g id="line2d_83">
      <g>
       <use style="stroke:#000000;stroke-width:0.6;" x="81" xlink:href="#me37b2b3b18" y="215.190769"/>
      </g>
     </g>
    </g>
    <g id="ytick_20">
     <g id="line2d_84">
      <path clip-path="url(#pbb35fd3048)" d="M 81 211.432086 
L 583.2 211.432086 
" style="fill:none;stroke:#d3d3d3;stroke-dasharray:2.96,1.28;stroke-dashoffset:0;stroke-width:0.8;"/>
     </g>
     <g id="line2d_85">
      <g>
       <use style="stroke:#000000;stroke-width:0.6;" x="81" xlink:href="#me37b2b3b18" y="211.432086"/>
      </g>
     </g>
    </g>
    <g id="ytick_21">
     <g id="line2d_86">
      <path clip-path="url(#pbb35fd3048)" d="M 81 185.950171 
L 583.2 185.950171 
" style="fill:none;stroke:#d3d3d3;stroke-dasharray:2.96,1.28;stroke-dashoffset:0;stroke-width:0.8;"/>
     </g>
     <g id="line2d_87">
      <g>
       <use style="stroke:#000000;stroke-width:0.6;" x="81" xlink:href="#me37b2b3b18" y="185.950171"/>
      </g>
     </g>
    </g>
    <g id="ytick_22">
     <g id="line2d_88">
      <path clip-path="url(#pbb35fd3048)" d="M 81 173.011 
L 583.2 173.011 
" style="fill:none;stroke:#d3d3d3;stroke-dasharray:2.96,1.28;stroke-dashoffset:0;stroke-width:0.8;"/>
     </g>
     <g id="line2d_89">
      <g>
       <use style="stroke:#000000;stroke-width:0.6;" x="81" xlink:href="#me37b2b3b18" y="173.011"/>
      </g>
     </g>
    </g>
    <g id="ytick_23">
     <g id="line2d_90">
      <path clip-path="url(#pbb35fd3048)" d="M 81 163.830512 
L 583.2 163.830512 
" style="fill:none;stroke:#d3d3d3;stroke-dasharray:2.96,1.28;stroke-dashoffset:0;stroke-width:0.8;"/>
     </g>
     <g id="line2d_91">
      <g>
       <use style="stroke:#000000;stroke-width:0.6;" x="81" xlink:href="#me37b2b3b18" y="163.830512"/>
      </g>
     </g>
    </g>
    <g id="ytick_24">
     <g id="line2d_92">
      <path clip-path="url(#pbb35fd3048)" d="M 81 156.709573 
L 583.2 156.709573 
" style="fill:none;stroke:#d3d3d3;stroke-dasharray:2.96,1.28;stroke-dashoffset:0;stroke-width:0.8;"/>
     </g>
     <g id="line2d_93">
      <g>
       <use style="stroke:#000000;stroke-width:0.6;" x="81" xlink:href="#me37b2b3b18" y="156.709573"/>
      </g>
     </g>
    </g>
    <g id="ytick_25">
     <g id="line2d_94">
      <path clip-path="url(#pbb35fd3048)" d="M 81 150.891342 
L 583.2 150.891342 
" style="fill:none;stroke:#d3d3d3;stroke-dasharray:2.96,1.28;stroke-dashoffset:0;stroke-width:0.8;"/>
     </g>
     <g id="line2d_95">
      <g>
       <use style="stroke:#000000;stroke-width:0.6;" x="81" xlink:href="#me37b2b3b18" y="150.891342"/>
      </g>
     </g>
    </g>
    <g id="ytick_26">
     <g id="line2d_96">
      <path clip-path="url(#pbb35fd3048)" d="M 81 145.972097 
L 583.2 145.972097 
" style="fill:none;stroke:#d3d3d3;stroke-dasharray:2.96,1.28;stroke-dashoffset:0;stroke-width:0.8;"/>
     </g>
     <g id="line2d_97">
      <g>
       <use style="stroke:#000000;stroke-width:0.6;" x="81" xlink:href="#me37b2b3b18" y="145.972097"/>
      </g>
     </g>
    </g>
    <g id="ytick_27">
     <g id="line2d_98">
      <path clip-path="url(#pbb35fd3048)" d="M 81 141.710854 
L 583.2 141.710854 
" style="fill:none;stroke:#d3d3d3;stroke-dasharray:2.96,1.28;stroke-dashoffset:0;stroke-width:0.8;"/>
     </g>
     <g id="line2d_99">
      <g>
       <use style="stroke:#000000;stroke-width:0.6;" x="81" xlink:href="#me37b2b3b18" y="141.710854"/>
      </g>
     </g>
    </g>
    <g id="ytick_28">
     <g id="line2d_100">
      <path clip-path="url(#pbb35fd3048)" d="M 81 137.952171 
L 583.2 137.952171 
" style="fill:none;stroke:#d3d3d3;stroke-dasharray:2.96,1.28;stroke-dashoffset:0;stroke-width:0.8;"/>
     </g>
     <g id="line2d_101">
      <g>
       <use style="stroke:#000000;stroke-width:0.6;" x="81" xlink:href="#me37b2b3b18" y="137.952171"/>
      </g>
     </g>
    </g>
    <g id="ytick_29">
     <g id="line2d_102">
      <path clip-path="url(#pbb35fd3048)" d="M 81 112.470256 
L 583.2 112.470256 
" style="fill:none;stroke:#d3d3d3;stroke-dasharray:2.96,1.28;stroke-dashoffset:0;stroke-width:0.8;"/>
     </g>
     <g id="line2d_103">
      <g>
       <use style="stroke:#000000;stroke-width:0.6;" x="81" xlink:href="#me37b2b3b18" y="112.470256"/>
      </g>
     </g>
    </g>
    <g id="ytick_30">
     <g id="line2d_104">
      <path clip-path="url(#pbb35fd3048)" d="M 81 99.531086 
L 583.2 99.531086 
" style="fill:none;stroke:#d3d3d3;stroke-dasharray:2.96,1.28;stroke-dashoffset:0;stroke-width:0.8;"/>
     </g>
     <g id="line2d_105">
      <g>
       <use style="stroke:#000000;stroke-width:0.6;" x="81" xlink:href="#me37b2b3b18" y="99.531086"/>
      </g>
     </g>
    </g>
    <g id="ytick_31">
     <g id="line2d_106">
      <path clip-path="url(#pbb35fd3048)" d="M 81 90.350598 
L 583.2 90.350598 
" style="fill:none;stroke:#d3d3d3;stroke-dasharray:2.96,1.28;stroke-dashoffset:0;stroke-width:0.8;"/>
     </g>
     <g id="line2d_107">
      <g>
       <use style="stroke:#000000;stroke-width:0.6;" x="81" xlink:href="#me37b2b3b18" y="90.350598"/>
      </g>
     </g>
    </g>
    <g id="ytick_32">
     <g id="line2d_108">
      <path clip-path="url(#pbb35fd3048)" d="M 81 83.229658 
L 583.2 83.229658 
" style="fill:none;stroke:#d3d3d3;stroke-dasharray:2.96,1.28;stroke-dashoffset:0;stroke-width:0.8;"/>
     </g>
     <g id="line2d_109">
      <g>
       <use style="stroke:#000000;stroke-width:0.6;" x="81" xlink:href="#me37b2b3b18" y="83.229658"/>
      </g>
     </g>
    </g>
    <g id="ytick_33">
     <g id="line2d_110">
      <path clip-path="url(#pbb35fd3048)" d="M 81 77.411427 
L 583.2 77.411427 
" style="fill:none;stroke:#d3d3d3;stroke-dasharray:2.96,1.28;stroke-dashoffset:0;stroke-width:0.8;"/>
     </g>
     <g id="line2d_111">
      <g>
       <use style="stroke:#000000;stroke-width:0.6;" x="81" xlink:href="#me37b2b3b18" y="77.411427"/>
      </g>
     </g>
    </g>
    <g id="ytick_34">
     <g id="line2d_112">
      <path clip-path="url(#pbb35fd3048)" d="M 81 72.492183 
L 583.2 72.492183 
" style="fill:none;stroke:#d3d3d3;stroke-dasharray:2.96,1.28;stroke-dashoffset:0;stroke-width:0.8;"/>
     </g>
     <g id="line2d_113">
      <g>
       <use style="stroke:#000000;stroke-width:0.6;" x="81" xlink:href="#me37b2b3b18" y="72.492183"/>
      </g>
     </g>
    </g>
    <g id="ytick_35">
     <g id="line2d_114">
      <path clip-path="url(#pbb35fd3048)" d="M 81 68.230939 
L 583.2 68.230939 
" style="fill:none;stroke:#d3d3d3;stroke-dasharray:2.96,1.28;stroke-dashoffset:0;stroke-width:0.8;"/>
     </g>
     <g id="line2d_115">
      <g>
       <use style="stroke:#000000;stroke-width:0.6;" x="81" xlink:href="#me37b2b3b18" y="68.230939"/>
      </g>
     </g>
    </g>
    <g id="ytick_36">
     <g id="line2d_116">
      <path clip-path="url(#pbb35fd3048)" d="M 81 64.472256 
L 583.2 64.472256 
" style="fill:none;stroke:#d3d3d3;stroke-dasharray:2.96,1.28;stroke-dashoffset:0;stroke-width:0.8;"/>
     </g>
     <g id="line2d_117">
      <g>
       <use style="stroke:#000000;stroke-width:0.6;" x="81" xlink:href="#me37b2b3b18" y="64.472256"/>
      </g>
     </g>
    </g>
    <g id="text_9">
     <!-- Rs/Ro -->
     <defs>
      <path d="M 44.390625 34.1875 
Q 47.5625 33.109375 50.5625 29.59375 
Q 53.5625 26.078125 56.59375 19.921875 
L 66.609375 0 
L 56 0 
L 46.6875 18.703125 
Q 43.0625 26.03125 39.671875 28.421875 
Q 36.28125 30.8125 30.421875 30.8125 
L 19.671875 30.8125 
L 19.671875 0 
L 9.8125 0 
L 9.8125 72.90625 
L 32.078125 72.90625 
Q 44.578125 72.90625 50.734375 67.671875 
Q 56.890625 62.453125 56.890625 51.90625 
Q 56.890625 45.015625 53.6875 40.46875 
Q 50.484375 35.9375 44.390625 34.1875 
z
M 19.671875 64.796875 
L 19.671875 38.921875 
L 32.078125 38.921875 
Q 39.203125 38.921875 42.84375 42.21875 
Q 46.484375 45.515625 46.484375 51.90625 
Q 46.484375 58.296875 42.84375 61.546875 
Q 39.203125 64.796875 32.078125 64.796875 
z
" id="DejaVuSans-82"/>
      <path d="M 44.28125 53.078125 
L 44.28125 44.578125 
Q 40.484375 46.53125 36.375 47.5 
Q 32.28125 48.484375 27.875 48.484375 
Q 21.1875 48.484375 17.84375 46.4375 
Q 14.5 44.390625 14.5 40.28125 
Q 14.5 37.15625 16.890625 35.375 
Q 19.28125 33.59375 26.515625 31.984375 
L 29.59375 31.296875 
Q 39.15625 29.25 43.1875 25.515625 
Q 47.21875 21.78125 47.21875 15.09375 
Q 47.21875 7.46875 41.1875 3.015625 
Q 35.15625 -1.421875 24.609375 -1.421875 
Q 20.21875 -1.421875 15.453125 -0.5625 
Q 10.6875 0.296875 5.421875 2 
L 5.421875 11.28125 
Q 10.40625 8.6875 15.234375 7.390625 
Q 20.0625 6.109375 24.8125 6.109375 
Q 31.15625 6.109375 34.5625 8.28125 
Q 37.984375 10.453125 37.984375 14.40625 
Q 37.984375 18.0625 35.515625 20.015625 
Q 33.0625 21.96875 24.703125 23.78125 
L 21.578125 24.515625 
Q 13.234375 26.265625 9.515625 29.90625 
Q 5.8125 33.546875 5.8125 39.890625 
Q 5.8125 47.609375 11.28125 51.796875 
Q 16.75 56 26.8125 56 
Q 31.78125 56 36.171875 55.265625 
Q 40.578125 54.546875 44.28125 53.078125 
z
" id="DejaVuSans-115"/>
      <path d="M 25.390625 72.90625 
L 33.6875 72.90625 
L 8.296875 -9.28125 
L 0 -9.28125 
z
" id="DejaVuSans-47"/>
     </defs>
     <g transform="translate(44.420313 211.30375)rotate(-90)scale(0.1 -0.1)">
      <use xlink:href="#DejaVuSans-82"/>
      <use x="69.482422" xlink:href="#DejaVuSans-115"/>
      <use x="121.582031" xlink:href="#DejaVuSans-47"/>
      <use x="155.273438" xlink:href="#DejaVuSans-82"/>
      <use x="224.693359" xlink:href="#DejaVuSans-111"/>
     </g>
    </g>
   </g>
   <g id="line2d_118">
    <path clip-path="url(#pbb35fd3048)" d="M 476.130148 332.91 
L 474.981647 319.970829 
L 473.816221 310.790342 
L 472.633363 303.669402 
L 471.432544 297.851171 
L 470.213211 292.931927 
L 468.974783 288.670683 
L 467.716652 284.912 
L 466.438182 281.549744 
L 452.369174 259.430085 
L 435.243773 246.490915 
L 413.354621 237.310427 
L 382.984938 230.189488 
L 333.048536 224.371256 
L 165.167284 219.452012 
L -1 219.44813 
" style="fill:none;stroke:#1f77b4;stroke-linecap:square;"/>
    <defs>
     <path d="M 0 3 
C 0.795609 3 1.55874 2.683901 2.12132 2.12132 
C 2.683901 1.55874 3 0.795609 3 0 
C 3 -0.795609 2.683901 -1.55874 2.12132 -2.12132 
C 1.55874 -2.683901 0.795609 -3 0 -3 
C -0.795609 -3 -1.55874 -2.683901 -2.12132 -2.12132 
C -2.683901 -1.55874 -3 -0.795609 -3 0 
C -3 0.795609 -2.683901 1.55874 -2.12132 2.12132 
C -1.55874 2.683901 -0.795609 3 0 3 
z
" id="m4c79d36a85" style="stroke:#1f77b4;"/>
    </defs>
    <g clip-path="url(#pbb35fd3048)">
     <use style="fill:#1f77b4;stroke:#1f77b4;" x="476.130148" xlink:href="#m4c79d36a85" y="332.91"/>
     <use style="fill:#1f77b4;stroke:#1f77b4;" x="474.981647" xlink:href="#m4c79d36a85" y="319.970829"/>
     <use style="fill:#1f77b4;stroke:#1f77b4;" x="473.816221" xlink:href="#m4c79d36a85" y="310.790342"/>
     <use style="fill:#1f77b4;stroke:#1f77b4;" x="472.633363" xlink:href="#m4c79d36a85" y="303.669402"/>
     <use style="fill:#1f77b4;stroke:#1f77b4;" x="471.432544" xlink:href="#m4c79d36a85" y="297.851171"/>
     <use style="fill:#1f77b4;stroke:#1f77b4;" x="470.213211" xlink:href="#m4c79d36a85" y="292.931927"/>
     <use style="fill:#1f77b4;stroke:#1f77b4;" x="468.974783" xlink:href="#m4c79d36a85" y="288.670683"/>
     <use style="fill:#1f77b4;stroke:#1f77b4;" x="467.716652" xlink:href="#m4c79d36a85" y="284.912"/>
     <use style="fill:#1f77b4;stroke:#1f77b4;" x="466.438182" xlink:href="#m4c79d36a85" y="281.549744"/>
     <use style="fill:#1f77b4;stroke:#1f77b4;" x="452.369174" xlink:href="#m4c79d36a85" y="259.430085"/>
     <use style="fill:#1f77b4;stroke:#1f77b4;" x="435.243773" xlink:href="#m4c79d36a85" y="246.490915"/>
     <use style="fill:#1f77b4;stroke:#1f77b4;" x="413.354621" xlink:href="#m4c79d36a85" y="237.310427"/>
     <use style="fill:#1f77b4;stroke:#1f77b4;" x="382.984938" xlink:href="#m4c79d36a85" y="230.189488"/>
     <use style="fill:#1f77b4;stroke:#1f77b4;" x="333.048536" xlink:href="#m4c79d36a85" y="224.371256"/>
     <use style="fill:#1f77b4;stroke:#1f77b4;" x="165.167284" xlink:href="#m4c79d36a85" y="219.452012"/>
     <use style="fill:#1f77b4;stroke:#1f77b4;" x="-1" xlink:href="#m4c79d36a85" y="219.44813"/>
    </g>
   </g>
   <g id="line2d_119">
    <path clip-path="url(#pbb35fd3048)" d="M 560.372727 332.91 
L 560.270694 319.970829 
L 560.16853 310.790342 
L 560.066233 303.669402 
L 559.963803 297.851171 
L 559.861241 292.931927 
L 559.758546 288.670683 
L 559.655717 284.912 
L 559.552754 281.549744 
L 558.515686 259.430085 
L 557.464837 246.490915 
L 556.399836 237.310427 
L 555.320297 230.189488 
L 554.225818 224.371256 
L 553.115979 219.452012 
L 551.990343 215.190769 
L 550.848453 211.432086 
L 549.689834 208.069829 
L 537.06172 185.950171 
L 522.026744 173.011 
L 503.446176 163.830512 
L 479.11441 156.709573 
L 443.789114 150.891342 
L 378.300809 145.972097 
L -1 145.963248 
" style="fill:none;stroke:#ff7f0e;stroke-linecap:square;"/>
    <defs>
     <path d="M 0 3 
C 0.795609 3 1.55874 2.683901 2.12132 2.12132 
C 2.683901 1.55874 3 0.795609 3 0 
C 3 -0.795609 2.683901 -1.55874 2.12132 -2.12132 
C 1.55874 -2.683901 0.795609 -3 0 -3 
C -0.795609 -3 -1.55874 -2.683901 -2.12132 -2.12132 
C -2.683901 -1.55874 -3 -0.795609 -3 0 
C -3 0.795609 -2.683901 1.55874 -2.12132 2.12132 
C -1.55874 2.683901 -0.795609 3 0 3 
z
" id="ma1011d2d01" style="stroke:#ff7f0e;"/>
    </defs>
    <g clip-path="url(#pbb35fd3048)">
     <use style="fill:#ff7f0e;stroke:#ff7f0e;" x="560.372727" xlink:href="#ma1011d2d01" y="332.91"/>
     <use style="fill:#ff7f0e;stroke:#ff7f0e;" x="560.270694" xlink:href="#ma1011d2d01" y="319.970829"/>
     <use style="fill:#ff7f0e;stroke:#ff7f0e;" x="560.16853" xlink:href="#ma1011d2d01" y="310.790342"/>
     <use style="fill:#ff7f0e;stroke:#ff7f0e;" x="560.066233" xlink:href="#ma1011d2d01" y="303.669402"/>
     <use style="fill:#ff7f0e;stroke:#ff7f0e;" x="559.963803" xlink:href="#ma1011d2d01" y="297.851171"/>
     <use style="fill:#ff7f0e;stroke:#ff7f0e;" x="559.861241" xlink:href="#ma1011d2d01" y="292.931927"/>
     <use style="fill:#ff7f0e;stroke:#ff7f0e;" x="559.758546" xlink:href="#ma1011d2d01" y="288.670683"/>
     <use style="fill:#ff7f0e;stroke:#ff7f0e;" x="559.655717" xlink:href="#ma1011d2d01" y="284.912"/>
     <use style="fill:#ff7f0e;stroke:#ff7f0e;" x="559.552754" xlink:href="#ma1011d2d01" y="281.549744"/>
     <use style="fill:#ff7f0e;stroke:#ff7f0e;" x="558.515686" xlink:href="#ma1011d2d01" y="259.430085"/>
     <use style="fill:#ff7f0e;stroke:#ff7f0e;" x="557.464837" xlink:href="#ma1011d2d01" y="246.490915"/>
     <use style="fill:#ff7f0e;stroke:#ff7f0e;" x="556.399836" xlink:href="#ma1011d2d01" y="237.310427"/>
     <use style="fill:#ff7f0e;stroke:#ff7f0e;" x="555.320297" xlink:href="#ma1011d2d01" y="230.189488"/>
     <use style="fill:#ff7f0e;stroke:#ff7f0e;" x="554.225818" xlink:href="#ma1011d2d01" y="224.371256"/>
     <use style="fill:#ff7f0e;stroke:#ff7f0e;" x="553.115979" xlink:href="#ma1011d2d01" y="219.452012"/>
     <use style="fill:#ff7f0e;stroke:#ff7f0e;" x="551.990343" xlink:href="#ma1011d2d01" y="215.190769"/>
     <use style="fill:#ff7f0e;stroke:#ff7f0e;" x="550.848453" xlink:href="#ma1011d2d01" y="211.432086"/>
     <use style="fill:#ff7f0e;stroke:#ff7f0e;" x="549.689834" xlink:href="#ma1011d2d01" y="208.069829"/>
     <use style="fill:#ff7f0e;stroke:#ff7f0e;" x="537.06172" xlink:href="#ma1011d2d01" y="185.950171"/>
     <use style="fill:#ff7f0e;stroke:#ff7f0e;" x="522.026744" xlink:href="#ma1011d2d01" y="173.011"/>
     <use style="fill:#ff7f0e;stroke:#ff7f0e;" x="503.446176" xlink:href="#ma1011d2d01" y="163.830512"/>
     <use style="fill:#ff7f0e;stroke:#ff7f0e;" x="479.11441" xlink:href="#ma1011d2d01" y="156.709573"/>
     <use style="fill:#ff7f0e;stroke:#ff7f0e;" x="443.789114" xlink:href="#ma1011d2d01" y="150.891342"/>
     <use style="fill:#ff7f0e;stroke:#ff7f0e;" x="378.300809" xlink:href="#ma1011d2d01" y="145.972097"/>
     <use style="fill:#ff7f0e;stroke:#ff7f0e;" x="-1" xlink:href="#ma1011d2d01" y="145.963248"/>
    </g>
   </g>
   <g id="line2d_120">
    <path clip-path="url(#pbb35fd3048)" d="M 541.771862 332.91 
L 541.732545 319.970829 
L 541.693208 310.790342 
L 541.653852 303.669402 
L 541.614476 297.851171 
L 541.57508 292.931927 
L 541.535665 288.670683 
L 541.49623 284.912 
L 541.456775 281.549744 
L 541.061142 259.430085 
L 540.66352 246.490915 
L 540.263889 237.310427 
L 539.862228 230.189488 
L 539.458517 224.371256 
L 539.052734 219.452012 
L 538.644859 215.190769 
L 538.234869 211.432086 
L 537.822742 208.069829 
L 533.578858 185.950171 
L 529.094256 173.011 
L 524.339977 163.830512 
L 519.281502 156.709573 
L 513.877225 150.891342 
L 508.076377 145.972097 
L 501.816113 141.710854 
L 495.017356 137.952171 
L 487.578674 134.589915 
L 148.498208 112.470256 
L -1 112.459651 
" style="fill:none;stroke:#2ca02c;stroke-linecap:square;"/>
    <defs>
     <path d="M 0 3 
C 0.795609 3 1.55874 2.683901 2.12132 2.12132 
C 2.683901 1.55874 3 0.795609 3 0 
C 3 -0.795609 2.683901 -1.55874 2.12132 -2.12132 
C 1.55874 -2.683901 0.795609 -3 0 -3 
C -0.795609 -3 -1.55874 -2.683901 -2.12132 -2.12132 
C -2.683901 -1.55874 -3 -0.795609 -3 0 
C -3 0.795609 -2.683901 1.55874 -2.12132 2.12132 
C -1.55874 2.683901 -0.795609 3 0 3 
z
" id="m004c9799d0" style="stroke:#2ca02c;"/>
    </defs>
    <g clip-path="url(#pbb35fd3048)">
     <use style="fill:#2ca02c;stroke:#2ca02c;" x="541.771862" xlink:href="#m004c9799d0" y="332.91"/>
     <use style="fill:#2ca02c;stroke:#2ca02c;" x="541.732545" xlink:href="#m004c9799d0" y="319.970829"/>
     <use style="fill:#2ca02c;stroke:#2ca02c;" x="541.693208" xlink:href="#m004c9799d0" y="310.790342"/>
     <use style="fill:#2ca02c;stroke:#2ca02c;" x="541.653852" xlink:href="#m004c9799d0" y="303.669402"/>
     <use style="fill:#2ca02c;stroke:#2ca02c;" x="541.614476" xlink:href="#m004c9799d0" y="297.851171"/>
     <use style="fill:#2ca02c;stroke:#2ca02c;" x="541.57508" xlink:href="#m004c9799d0" y="292.931927"/>
     <use style="fill:#2ca02c;stroke:#2ca02c;" x="541.535665" xlink:href="#m004c9799d0" y="288.670683"/>
     <use style="fill:#2ca02c;stroke:#2ca02c;" x="541.49623" xlink:href="#m004c9799d0" y="284.912"/>
     <use style="fill:#2ca02c;stroke:#2ca02c;" x="541.456775" xlink:href="#m004c9799d0" y="281.549744"/>
     <use style="fill:#2ca02c;stroke:#2ca02c;" x="541.061142" xlink:href="#m004c9799d0" y="259.430085"/>
     <use style="fill:#2ca02c;stroke:#2ca02c;" x="540.66352" xlink:href="#m004c9799d0" y="246.490915"/>
     <use style="fill:#2ca02c;stroke:#2ca02c;" x="540.263889" xlink:href="#m004c9799d0" y="237.310427"/>
     <use style="fill:#2ca02c;stroke:#2ca02c;" x="539.862228" xlink:href="#m004c9799d0" y="230.189488"/>
     <use style="fill:#2ca02c;stroke:#2ca02c;" x="539.458517" xlink:href="#m004c9799d0" y="224.371256"/>
     <use style="fill:#2ca02c;stroke:#2ca02c;" x="539.052734" xlink:href="#m004c9799d0" y="219.452012"/>
     <use style="fill:#2ca02c;stroke:#2ca02c;" x="538.644859" xlink:href="#m004c9799d0" y="215.190769"/>
     <use style="fill:#2ca02c;stroke:#2ca02c;" x="538.234869" xlink:href="#m004c9799d0" y="211.432086"/>
     <use style="fill:#2ca02c;stroke:#2ca02c;" x="537.822742" xlink:href="#m004c9799d0" y="208.069829"/>
     <use style="fill:#2ca02c;stroke:#2ca02c;" x="533.578858" xlink:href="#m004c9799d0" y="185.950171"/>
     <use style="fill:#2ca02c;stroke:#2ca02c;" x="529.094256" xlink:href="#m004c9799d0" y="173.011"/>
     <use style="fill:#2ca02c;stroke:#2ca02c;" x="524.339977" xlink:href="#m004c9799d0" y="163.830512"/>
     <use style="fill:#2ca02c;stroke:#2ca02c;" x="519.281502" xlink:href="#m004c9799d0" y="156.709573"/>
     <use style="fill:#2ca02c;stroke:#2ca02c;" x="513.877225" xlink:href="#m004c9799d0" y="150.891342"/>
     <use style="fill:#2ca02c;stroke:#2ca02c;" x="508.076377" xlink:href="#m004c9799d0" y="145.972097"/>
     <use style="fill:#2ca02c;stroke:#2ca02c;" x="501.816113" xlink:href="#m004c9799d0" y="141.710854"/>
     <use style="fill:#2ca02c;stroke:#2ca02c;" x="495.017356" xlink:href="#m004c9799d0" y="137.952171"/>
     <use style="fill:#2ca02c;stroke:#2ca02c;" x="487.578674" xlink:href="#m004c9799d0" y="134.589915"/>
     <use style="fill:#2ca02c;stroke:#2ca02c;" x="148.498208" xlink:href="#m004c9799d0" y="112.470256"/>
     <use style="fill:#2ca02c;stroke:#2ca02c;" x="-1" xlink:href="#m004c9799d0" y="112.459651"/>
    </g>
   </g>
   <g id="line2d_121">
    <path clip-path="url(#pbb35fd3048)" d="M 458.221993 332.91 
L 457.328455 319.970829 
L 456.424705 310.790342 
L 455.510508 303.669402 
L 454.58562 297.851171 
L 453.649787 292.931927 
L 452.702746 288.670683 
L 451.744228 284.912 
L 450.773949 281.549744 
L 440.354137 259.430085 
L 428.350079 246.490915 
L 414.192133 237.310427 
L 396.934603 230.189488 
L 374.828579 224.371256 
L 344.037256 219.452012 
L 292.925065 215.190769 
L 103.827273 211.432086 
L -1 211.430153 
" style="fill:none;stroke:#d62728;stroke-linecap:square;"/>
    <defs>
     <path d="M 0 3 
C 0.795609 3 1.55874 2.683901 2.12132 2.12132 
C 2.683901 1.55874 3 0.795609 3 0 
C 3 -0.795609 2.683901 -1.55874 2.12132 -2.12132 
C 1.55874 -2.683901 0.795609 -3 0 -3 
C -0.795609 -3 -1.55874 -2.683901 -2.12132 -2.12132 
C -2.683901 -1.55874 -3 -0.795609 -3 0 
C -3 0.795609 -2.683901 1.55874 -2.12132 2.12132 
C -1.55874 2.683901 -0.795609 3 0 3 
z
" id="me294ac7ea7" style="stroke:#d62728;"/>
    </defs>
    <g clip-path="url(#pbb35fd3048)">
     <use style="fill:#d62728;stroke:#d62728;" x="458.221993" xlink:href="#me294ac7ea7" y="332.91"/>
     <use style="fill:#d62728;stroke:#d62728;" x="457.328455" xlink:href="#me294ac7ea7" y="319.970829"/>
     <use style="fill:#d62728;stroke:#d62728;" x="456.424705" xlink:href="#me294ac7ea7" y="310.790342"/>
     <use style="fill:#d62728;stroke:#d62728;" x="455.510508" xlink:href="#me294ac7ea7" y="303.669402"/>
     <use style="fill:#d62728;stroke:#d62728;" x="454.58562" xlink:href="#me294ac7ea7" y="297.851171"/>
     <use style="fill:#d62728;stroke:#d62728;" x="453.649787" xlink:href="#me294ac7ea7" y="292.931927"/>
     <use style="fill:#d62728;stroke:#d62728;" x="452.702746" xlink:href="#me294ac7ea7" y="288.670683"/>
     <use style="fill:#d62728;stroke:#d62728;" x="451.744228" xlink:href="#me294ac7ea7" y="284.912"/>
     <use style="fill:#d62728;stroke:#d62728;" x="450.773949" xlink:href="#me294ac7ea7" y="281.549744"/>
     <use style="fill:#d62728;stroke:#d62728;" x="440.354137" xlink:href="#me294ac7ea7" y="259.430085"/>
     <use style="fill:#d62728;stroke:#d62728;" x="428.350079" xlink:href="#me294ac7ea7" y="246.490915"/>
     <use style="fill:#d62728;stroke:#d62728;" x="414.192133" xlink:href="#me294ac7ea7" y="237.310427"/>
     <use style="fill:#d62728;stroke:#d62728;" x="396.934603" xlink:href="#me294ac7ea7" y="230.189488"/>
     <use style="fill:#d62728;stroke:#d62728;" x="374.828579" xlink:href="#me294ac7ea7" y="224.371256"/>
     <use style="fill:#d62728;stroke:#d62728;" x="344.037256" xlink:href="#me294ac7ea7" y="219.452012"/>
     <use style="fill:#d62728;stroke:#d62728;" x="292.925065" xlink:href="#me294ac7ea7" y="215.190769"/>
     <use style="fill:#d62728;stroke:#d62728;" x="103.827273" xlink:href="#me294ac7ea7" y="211.432086"/>
     <use style="fill:#d62728;stroke:#d62728;" x="-1" xlink:href="#me294ac7ea7" y="211.430153"/>
    </g>
   </g>
   <g id="line2d_122">
    <path clip-path="url(#pbb35fd3048)" d="M 549.259529 332.91 
L 549.220187 319.970829 
L 549.180825 310.790342 
L 549.141444 303.669402 
L 549.102043 297.851171 
L 549.062623 292.931927 
L 549.023182 288.670683 
L 548.983723 284.912 
L 548.944243 281.549744 
L 548.54836 259.430085 
L 548.150485 246.490915 
L 547.750598 237.310427 
L 547.348678 230.189488 
L 546.944706 224.371256 
L 546.538659 219.452012 
L 546.130517 215.190769 
L 545.720258 211.432086 
L 545.307859 208.069829 
L 541.06109 185.950171 
L 536.573266 173.011 
L 531.815366 163.830512 
L 526.75279 156.709573 
L 521.343832 150.891342 
L 515.53759 145.972097 
L 509.271044 141.710854 
L 502.464876 137.952171 
L 495.01732 134.589915 
L 148.501083 112.470256 
L -1 112.459651 
" style="fill:none;stroke:#9467bd;stroke-linecap:square;"/>
    <defs>
     <path d="M 0 3 
C 0.795609 3 1.55874 2.683901 2.12132 2.12132 
C 2.683901 1.55874 3 0.795609 3 0 
C 3 -0.795609 2.683901 -1.55874 2.12132 -2.12132 
C 1.55874 -2.683901 0.795609 -3 0 -3 
C -0.795609 -3 -1.55874 -2.683901 -2.12132 -2.12132 
C -2.683901 -1.55874 -3 -0.795609 -3 0 
C -3 0.795609 -2.683901 1.55874 -2.12132 2.12132 
C -1.55874 2.683901 -0.795609 3 0 3 
z
" id="m1470de79bf" style="stroke:#9467bd;"/>
    </defs>
    <g clip-path="url(#pbb35fd3048)">
     <use style="fill:#9467bd;stroke:#9467bd;" x="549.259529" xlink:href="#m1470de79bf" y="332.91"/>
     <use style="fill:#9467bd;stroke:#9467bd;" x="549.220187" xlink:href="#m1470de79bf" y="319.970829"/>
     <use style="fill:#9467bd;stroke:#9467bd;" x="549.180825" xlink:href="#m1470de79bf" y="310.790342"/>
     <use style="fill:#9467bd;stroke:#9467bd;" x="549.141444" xlink:href="#m1470de79bf" y="303.669402"/>
     <use style="fill:#9467bd;stroke:#9467bd;" x="549.102043" xlink:href="#m1470de79bf" y="297.851171"/>
     <use style="fill:#9467bd;stroke:#9467bd;" x="549.062623" xlink:href="#m1470de79bf" y="292.931927"/>
     <use style="fill:#9467bd;stroke:#9467bd;" x="549.023182" xlink:href="#m1470de79bf" y="288.670683"/>
     <use style="fill:#9467bd;stroke:#9467bd;" x="548.983723" xlink:href="#m1470de79bf" y="284.912"/>
     <use style="fill:#9467bd;stroke:#9467bd;" x="548.944243" xlink:href="#m1470de79bf" y="281.549744"/>
     <use style="fill:#9467bd;stroke:#9467bd;" x="548.54836" xlink:href="#m1470de79bf" y="259.430085"/>
     <use style="fill:#9467bd;stroke:#9467bd;" x="548.150485" xlink:href="#m1470de79bf" y="246.490915"/>
     <use style="fill:#9467bd;stroke:#9467bd;" x="547.750598" xlink:href="#m1470de79bf" y="237.310427"/>
     <use style="fill:#9467bd;stroke:#9467bd;" x="547.348678" xlink:href="#m1470de79bf" y="230.189488"/>
     <use style="fill:#9467bd;stroke:#9467bd;" x="546.944706" xlink:href="#m1470de79bf" y="224.371256"/>
     <use style="fill:#9467bd;stroke:#9467bd;" x="546.538659" xlink:href="#m1470de79bf" y="219.452012"/>
     <use style="fill:#9467bd;stroke:#9467bd;" x="546.130517" xlink:href="#m1470de79bf" y="215.190769"/>
     <use style="fill:#9467bd;stroke:#9467bd;" x="545.720258" xlink:href="#m1470de79bf" y="211.432086"/>
     <use style="fill:#9467bd;stroke:#9467bd;" x="545.307859" xlink:href="#m1470de79bf" y="208.069829"/>
     <use style="fill:#9467bd;stroke:#9467bd;" x="541.06109" xlink:href="#m1470de79bf" y="185.950171"/>
     <use style="fill:#9467bd;stroke:#9467bd;" x="536.573266" xlink:href="#m1470de79bf" y="173.011"/>
     <use style="fill:#9467bd;stroke:#9467bd;" x="531.815366" xlink:href="#m1470de79bf" y="163.830512"/>
     <use style="fill:#9467bd;stroke:#9467bd;" x="526.75279" xlink:href="#m1470de79bf" y="156.709573"/>
     <use style="fill:#9467bd;stroke:#9467bd;" x="521.343832" xlink:href="#m1470de79bf" y="150.891342"/>
     <use style="fill:#9467bd;stroke:#9467bd;" x="515.53759" xlink:href="#m1470de79bf" y="145.972097"/>
     <use style="fill:#9467bd;stroke:#9467bd;" x="509.271044" xlink:href="#m1470de79bf" y="141.710854"/>
     <use style="fill:#9467bd;stroke:#9467bd;" x="502.464876" xlink:href="#m1470de79bf" y="137.952171"/>
     <use style="fill:#9467bd;stroke:#9467bd;" x="495.01732" xlink:href="#m1470de79bf" y="134.589915"/>
     <use style="fill:#9467bd;stroke:#9467bd;" x="148.501083" xlink:href="#m1470de79bf" y="112.470256"/>
     <use style="fill:#9467bd;stroke:#9467bd;" x="-1" xlink:href="#m1470de79bf" y="112.459651"/>
    </g>
   </g>
   <g id="patch_3">
    <path d="M 81 346.5 
L 81 47.52 
" style="fill:none;stroke:#000000;stroke-linecap:square;stroke-linejoin:miter;stroke-width:0.8;"/>
   </g>
   <g id="patch_4">
    <path d="M 583.2 346.5 
L 583.2 47.52 
" style="fill:none;stroke:#000000;stroke-linecap:square;stroke-linejoin:miter;stroke-width:0.8;"/>
   </g>
   <g id="patch_5">
    <path d="M 81 346.5 
L 583.2 346.5 
" style="fill:none;stroke:#000000;stroke-linecap:square;stroke-linejoin:miter;stroke-width:0.8;"/>
   </g>
   <g id="patch_6">
    <path d="M 81 47.52 
L 583.2 47.52 
" style="fill:none;stroke:#000000;stroke-linecap:square;stroke-linejoin:miter;stroke-width:0.8;"/>
   </g>
   <g id="legend_1">
    <g id="patch_7">
     <path d="M 507.729688 128.910625 
L 576.2 128.910625 
Q 578.2 128.910625 578.2 126.910625 
L 578.2 54.52 
Q 578.2 52.52 576.2 52.52 
L 507.729688 52.52 
Q 505.729688 52.52 505.729688 54.52 
L 505.729688 126.910625 
Q 505.729688 128.910625 507.729688 128.910625 
z
" style="fill:#ffffff;opacity:0.8;stroke:#cccccc;stroke-linejoin:miter;"/>
    </g>
    <g id="line2d_123">
     <path d="M 509.729688 60.618437 
L 529.729688 60.618437 
" style="fill:none;stroke:#1f77b4;stroke-linecap:square;"/>
    </g>
    <g id="line2d_124">
     <g>
      <use style="fill:#1f77b4;stroke:#1f77b4;" x="519.729688" xlink:href="#m4c79d36a85" y="60.618437"/>
     </g>
    </g>
    <g id="text_10">
     <!-- H2 -->
     <defs>
      <path d="M 9.8125 72.90625 
L 19.671875 72.90625 
L 19.671875 43.015625 
L 55.515625 43.015625 
L 55.515625 72.90625 
L 65.375 72.90625 
L 65.375 0 
L 55.515625 0 
L 55.515625 34.71875 
L 19.671875 34.71875 
L 19.671875 0 
L 9.8125 0 
z
" id="DejaVuSans-72"/>
     </defs>
     <g transform="translate(537.729688 64.118437)scale(0.1 -0.1)">
      <use xlink:href="#DejaVuSans-72"/>
      <use x="75.195312" xlink:href="#DejaVuSans-50"/>
     </g>
    </g>
    <g id="line2d_125">
     <path d="M 509.729688 75.296562 
L 529.729688 75.296562 
" style="fill:none;stroke:#ff7f0e;stroke-linecap:square;"/>
    </g>
    <g id="line2d_126">
     <g>
      <use style="fill:#ff7f0e;stroke:#ff7f0e;" x="519.729688" xlink:href="#ma1011d2d01" y="75.296562"/>
     </g>
    </g>
    <g id="text_11">
     <!-- LPG -->
     <defs>
      <path d="M 9.8125 72.90625 
L 19.671875 72.90625 
L 19.671875 8.296875 
L 55.171875 8.296875 
L 55.171875 0 
L 9.8125 0 
z
" id="DejaVuSans-76"/>
      <path d="M 59.515625 10.40625 
L 59.515625 29.984375 
L 43.40625 29.984375 
L 43.40625 38.09375 
L 69.28125 38.09375 
L 69.28125 6.78125 
Q 63.578125 2.734375 56.6875 0.65625 
Q 49.8125 -1.421875 42 -1.421875 
Q 24.90625 -1.421875 15.25 8.5625 
Q 5.609375 18.5625 5.609375 36.375 
Q 5.609375 54.25 15.25 64.234375 
Q 24.90625 74.21875 42 74.21875 
Q 49.125 74.21875 55.546875 72.453125 
Q 61.96875 70.703125 67.390625 67.28125 
L 67.390625 56.78125 
Q 61.921875 61.421875 55.765625 63.765625 
Q 49.609375 66.109375 42.828125 66.109375 
Q 29.4375 66.109375 22.71875 58.640625 
Q 16.015625 51.171875 16.015625 36.375 
Q 16.015625 21.625 22.71875 14.15625 
Q 29.4375 6.6875 42.828125 6.6875 
Q 48.046875 6.6875 52.140625 7.59375 
Q 56.25 8.5 59.515625 10.40625 
z
" id="DejaVuSans-71"/>
     </defs>
     <g transform="translate(537.729688 78.796562)scale(0.1 -0.1)">
      <use xlink:href="#DejaVuSans-76"/>
      <use x="55.712891" xlink:href="#DejaVuSans-80"/>
      <use x="116.015625" xlink:href="#DejaVuSans-71"/>
     </g>
    </g>
    <g id="line2d_127">
     <path d="M 509.729688 89.974687 
L 529.729688 89.974687 
" style="fill:none;stroke:#2ca02c;stroke-linecap:square;"/>
    </g>
    <g id="line2d_128">
     <g>
      <use style="fill:#2ca02c;stroke:#2ca02c;" x="519.729688" xlink:href="#m004c9799d0" y="89.974687"/>
     </g>
    </g>
    <g id="text_12">
     <!-- CH4 -->
     <g transform="translate(537.729688 93.474687)scale(0.1 -0.1)">
      <use xlink:href="#DejaVuSans-67"/>
      <use x="69.824219" xlink:href="#DejaVuSans-72"/>
      <use x="145.019531" xlink:href="#DejaVuSans-52"/>
     </g>
    </g>
    <g id="line2d_129">
     <path d="M 509.729688 104.652812 
L 529.729688 104.652812 
" style="fill:none;stroke:#d62728;stroke-linecap:square;"/>
    </g>
    <g id="line2d_130">
     <g>
      <use style="fill:#d62728;stroke:#d62728;" x="519.729688" xlink:href="#me294ac7ea7" y="104.652812"/>
     </g>
    </g>
    <g id="text_13">
     <!-- CO -->
     <defs>
      <path d="M 39.40625 66.21875 
Q 28.65625 66.21875 22.328125 58.203125 
Q 16.015625 50.203125 16.015625 36.375 
Q 16.015625 22.609375 22.328125 14.59375 
Q 28.65625 6.59375 39.40625 6.59375 
Q 50.140625 6.59375 56.421875 14.59375 
Q 62.703125 22.609375 62.703125 36.375 
Q 62.703125 50.203125 56.421875 58.203125 
Q 50.140625 66.21875 39.40625 66.21875 
z
M 39.40625 74.21875 
Q 54.734375 74.21875 63.90625 63.9375 
Q 73.09375 53.65625 73.09375 36.375 
Q 73.09375 19.140625 63.90625 8.859375 
Q 54.734375 -1.421875 39.40625 -1.421875 
Q 24.03125 -1.421875 14.8125 8.828125 
Q 5.609375 19.09375 5.609375 36.375 
Q 5.609375 53.65625 14.8125 63.9375 
Q 24.03125 74.21875 39.40625 74.21875 
z
" id="DejaVuSans-79"/>
     </defs>
     <g transform="translate(537.729688 108.152812)scale(0.1 -0.1)">
      <use xlink:href="#DejaVuSans-67"/>
      <use x="69.824219" xlink:href="#DejaVuSans-79"/>
     </g>
    </g>
    <g id="line2d_131">
     <path d="M 509.729688 119.330938 
L 529.729688 119.330938 
" style="fill:none;stroke:#9467bd;stroke-linecap:square;"/>
    </g>
    <g id="line2d_132">
     <g>
      <use style="fill:#9467bd;stroke:#9467bd;" x="519.729688" xlink:href="#m1470de79bf" y="119.330938"/>
     </g>
    </g>
    <g id="text_14">
     <!-- Alcohol -->
     <defs>
      <path d="M 34.1875 63.1875 
L 20.796875 26.90625 
L 47.609375 26.90625 
z
M 28.609375 72.90625 
L 39.796875 72.90625 
L 67.578125 0 
L 57.328125 0 
L 50.6875 18.703125 
L 17.828125 18.703125 
L 11.1875 0 
L 0.78125 0 
z
" id="DejaVuSans-65"/>
      <path d="M 9.421875 75.984375 
L 18.40625 75.984375 
L 18.40625 0 
L 9.421875 0 
z
" id="DejaVuSans-108"/>
      <path d="M 54.890625 33.015625 
L 54.890625 0 
L 45.90625 0 
L 45.90625 32.71875 
Q 45.90625 40.484375 42.875 44.328125 
Q 39.84375 48.1875 33.796875 48.1875 
Q 26.515625 48.1875 22.3125 43.546875 
Q 18.109375 38.921875 18.109375 30.90625 
L 18.109375 0 
L 9.078125 0 
L 9.078125 75.984375 
L 18.109375 75.984375 
L 18.109375 46.1875 
Q 21.34375 51.125 25.703125 53.5625 
Q 30.078125 56 35.796875 56 
Q 45.21875 56 50.046875 50.171875 
Q 54.890625 44.34375 54.890625 33.015625 
z
" id="DejaVuSans-104"/>
     </defs>
     <g transform="translate(537.729688 122.830938)scale(0.1 -0.1)">
      <use xlink:href="#DejaVuSans-65"/>
      <use x="68.408203" xlink:href="#DejaVuSans-108"/>
      <use x="96.191406" xlink:href="#DejaVuSans-99"/>
      <use x="151.171875" xlink:href="#DejaVuSans-111"/>
      <use x="212.353516" xlink:href="#DejaVuSans-104"/>
      <use x="275.732422" xlink:href="#DejaVuSans-111"/>
      <use x="336.914062" xlink:href="#DejaVuSans-108"/>
     </g>
    </g>
   </g>
  </g>
  <g id="text_15">
   <!-- Calibration plot for MQ-7 data -->
   <defs>
    <path d="M 48.6875 27.296875 
Q 48.6875 37.203125 44.609375 42.84375 
Q 40.53125 48.484375 33.40625 48.484375 
Q 26.265625 48.484375 22.1875 42.84375 
Q 18.109375 37.203125 18.109375 27.296875 
Q 18.109375 17.390625 22.1875 11.75 
Q 26.265625 6.109375 33.40625 6.109375 
Q 40.53125 6.109375 44.609375 11.75 
Q 48.6875 17.390625 48.6875 27.296875 
z
M 18.109375 46.390625 
Q 20.953125 51.265625 25.265625 53.625 
Q 29.59375 56 35.59375 56 
Q 45.5625 56 51.78125 48.09375 
Q 58.015625 40.1875 58.015625 27.296875 
Q 58.015625 14.40625 51.78125 6.484375 
Q 45.5625 -1.421875 35.59375 -1.421875 
Q 29.59375 -1.421875 25.265625 0.953125 
Q 20.953125 3.328125 18.109375 8.203125 
L 18.109375 0 
L 9.078125 0 
L 9.078125 75.984375 
L 18.109375 75.984375 
z
" id="DejaVuSans-98"/>
    <path d="M 18.109375 8.203125 
L 18.109375 -20.796875 
L 9.078125 -20.796875 
L 9.078125 54.6875 
L 18.109375 54.6875 
L 18.109375 46.390625 
Q 20.953125 51.265625 25.265625 53.625 
Q 29.59375 56 35.59375 56 
Q 45.5625 56 51.78125 48.09375 
Q 58.015625 40.1875 58.015625 27.296875 
Q 58.015625 14.40625 51.78125 6.484375 
Q 45.5625 -1.421875 35.59375 -1.421875 
Q 29.59375 -1.421875 25.265625 0.953125 
Q 20.953125 3.328125 18.109375 8.203125 
z
M 48.6875 27.296875 
Q 48.6875 37.203125 44.609375 42.84375 
Q 40.53125 48.484375 33.40625 48.484375 
Q 26.265625 48.484375 22.1875 42.84375 
Q 18.109375 37.203125 18.109375 27.296875 
Q 18.109375 17.390625 22.1875 11.75 
Q 26.265625 6.109375 33.40625 6.109375 
Q 40.53125 6.109375 44.609375 11.75 
Q 48.6875 17.390625 48.6875 27.296875 
z
" id="DejaVuSans-112"/>
    <path d="M 37.109375 75.984375 
L 37.109375 68.5 
L 28.515625 68.5 
Q 23.6875 68.5 21.796875 66.546875 
Q 19.921875 64.59375 19.921875 59.515625 
L 19.921875 54.6875 
L 34.71875 54.6875 
L 34.71875 47.703125 
L 19.921875 47.703125 
L 19.921875 0 
L 10.890625 0 
L 10.890625 47.703125 
L 2.296875 47.703125 
L 2.296875 54.6875 
L 10.890625 54.6875 
L 10.890625 58.5 
Q 10.890625 67.625 15.140625 71.796875 
Q 19.390625 75.984375 28.609375 75.984375 
z
" id="DejaVuSans-102"/>
    <path d="M 39.40625 66.21875 
Q 28.65625 66.21875 22.328125 58.203125 
Q 16.015625 50.203125 16.015625 36.375 
Q 16.015625 22.609375 22.328125 14.59375 
Q 28.65625 6.59375 39.40625 6.59375 
Q 50.140625 6.59375 56.421875 14.59375 
Q 62.703125 22.609375 62.703125 36.375 
Q 62.703125 50.203125 56.421875 58.203125 
Q 50.140625 66.21875 39.40625 66.21875 
z
M 53.21875 1.3125 
L 66.21875 -12.890625 
L 54.296875 -12.890625 
L 43.5 -1.21875 
Q 41.890625 -1.3125 41.03125 -1.359375 
Q 40.1875 -1.421875 39.40625 -1.421875 
Q 24.03125 -1.421875 14.8125 8.859375 
Q 5.609375 19.140625 5.609375 36.375 
Q 5.609375 53.65625 14.8125 63.9375 
Q 24.03125 74.21875 39.40625 74.21875 
Q 54.734375 74.21875 63.90625 63.9375 
Q 73.09375 53.65625 73.09375 36.375 
Q 73.09375 23.6875 67.984375 14.640625 
Q 62.890625 5.609375 53.21875 1.3125 
z
" id="DejaVuSans-81"/>
    <path d="M 4.890625 31.390625 
L 31.203125 31.390625 
L 31.203125 23.390625 
L 4.890625 23.390625 
z
" id="DejaVuSans-45"/>
    <path d="M 8.203125 72.90625 
L 55.078125 72.90625 
L 55.078125 68.703125 
L 28.609375 0 
L 18.3125 0 
L 43.21875 64.59375 
L 8.203125 64.59375 
z
" id="DejaVuSans-55"/>
    <path d="M 45.40625 46.390625 
L 45.40625 75.984375 
L 54.390625 75.984375 
L 54.390625 0 
L 45.40625 0 
L 45.40625 8.203125 
Q 42.578125 3.328125 38.25 0.953125 
Q 33.9375 -1.421875 27.875 -1.421875 
Q 17.96875 -1.421875 11.734375 6.484375 
Q 5.515625 14.40625 5.515625 27.296875 
Q 5.515625 40.1875 11.734375 48.09375 
Q 17.96875 56 27.875 56 
Q 33.9375 56 38.25 53.625 
Q 42.578125 51.265625 45.40625 46.390625 
z
M 14.796875 27.296875 
Q 14.796875 17.390625 18.875 11.75 
Q 22.953125 6.109375 30.078125 6.109375 
Q 37.203125 6.109375 41.296875 11.75 
Q 45.40625 17.390625 45.40625 27.296875 
Q 45.40625 37.203125 41.296875 42.84375 
Q 37.203125 48.484375 30.078125 48.484375 
Q 22.953125 48.484375 18.875 42.84375 
Q 14.796875 37.203125 14.796875 27.296875 
z
" id="DejaVuSans-100"/>
   </defs>
   <g transform="translate(234.578438 17.038125)scale(0.12 -0.12)">
    <use xlink:href="#DejaVuSans-67"/>
    <use x="69.824219" xlink:href="#DejaVuSans-97"/>
    <use x="131.103516" xlink:href="#DejaVuSans-108"/>
    <use x="158.886719" xlink:href="#DejaVuSans-105"/>
    <use x="186.669922" xlink:href="#DejaVuSans-98"/>
    <use x="250.146484" xlink:href="#DejaVuSans-114"/>
    <use x="291.259766" xlink:href="#DejaVuSans-97"/>
    <use x="352.539062" xlink:href="#DejaVuSans-116"/>
    <use x="391.748047" xlink:href="#DejaVuSans-105"/>
    <use x="419.53125" xlink:href="#DejaVuSans-111"/>
    <use x="480.712891" xlink:href="#DejaVuSans-110"/>
    <use x="544.091797" xlink:href="#DejaVuSans-32"/>
    <use x="575.878906" xlink:href="#DejaVuSans-112"/>
    <use x="639.355469" xlink:href="#DejaVuSans-108"/>
    <use x="667.138672" xlink:href="#DejaVuSans-111"/>
    <use x="728.320312" xlink:href="#DejaVuSans-116"/>
    <use x="767.529297" xlink:href="#DejaVuSans-32"/>
    <use x="799.316406" xlink:href="#DejaVuSans-102"/>
    <use x="834.521484" xlink:href="#DejaVuSans-111"/>
    <use x="895.703125" xlink:href="#DejaVuSans-114"/>
    <use x="936.816406" xlink:href="#DejaVuSans-32"/>
    <use x="968.603516" xlink:href="#DejaVuSans-77"/>
    <use x="1054.882812" xlink:href="#DejaVuSans-81"/>
    <use x="1133.625" xlink:href="#DejaVuSans-45"/>
    <use x="1169.708984" xlink:href="#DejaVuSans-55"/>
    <use x="1233.332031" xlink:href="#DejaVuSans-32"/>
    <use x="1265.119141" xlink:href="#DejaVuSans-100"/>
    <use x="1328.595703" xlink:href="#DejaVuSans-97"/>
    <use x="1389.875" xlink:href="#DejaVuSans-116"/>
    <use x="1429.083984" xlink:href="#DejaVuSans-97"/>
   </g>
  </g>
 </g>
 <defs>
  <clipPath id="pbb35fd3048">
   <rect height="298.98" width="502.2" x="81" y="47.52"/>
  </clipPath>
 </defs>
</svg>
