<?xml version="1.0" encoding="utf-8" standalone="no"?>
<!DOCTYPE svg PUBLIC "-//W3C//DTD SVG 1.1//EN"
  "http://www.w3.org/Graphics/SVG/1.1/DTD/svg11.dtd">
<!-- Created with matplotlib (https://matplotlib.org/) -->
<svg height="396pt" version="1.1" viewBox="0 0 648 396" width="648pt" xmlns="http://www.w3.org/2000/svg" xmlns:xlink="http://www.w3.org/1999/xlink">
 <defs>
  <style type="text/css">
*{stroke-linecap:butt;stroke-linejoin:round;}
  </style>
 </defs>
 <g id="figure_1">
  <g id="patch_1">
   <path d="M 0 396 
L 648 396 
L 648 0 
L 0 0 
z
" style="fill:#ffffff;"/>
  </g>
  <g id="axes_1">
   <g id="patch_2">
    <path d="M 81 346.5 
L 583.2 346.5 
L 583.2 47.52 
L 81 47.52 
z
" style="fill:#ffffff;"/>
   </g>
   <g id="matplotlib.axis_1">
    <g id="xtick_1">
     <g id="line2d_1">
      <defs>
       <path d="M 0 0 
L 0 3.5 
" id="ma663644dfa" style="stroke:#000000;stroke-width:0.8;"/>
      </defs>
      <g>
       <use style="stroke:#000000;stroke-width:0.8;" x="121.566941" xlink:href="#ma663644dfa" y="346.5"/>
      </g>
     </g>
     <g id="text_1">
      <!-- $\mathdefault{10^{-1}}$ -->
      <defs>
       <path d="M 12.40625 8.296875 
L 28.515625 8.296875 
L 28.515625 63.921875 
L 10.984375 60.40625 
L 10.984375 69.390625 
L 28.421875 72.90625 
L 38.28125 72.90625 
L 38.28125 8.296875 
L 54.390625 8.296875 
L 54.390625 0 
L 12.40625 0 
z
" id="DejaVuSans-49"/>
       <path d="M 31.78125 66.40625 
Q 24.171875 66.40625 20.328125 58.90625 
Q 16.5 51.421875 16.5 36.375 
Q 16.5 21.390625 20.328125 13.890625 
Q 24.171875 6.390625 31.78125 6.390625 
Q 39.453125 6.390625 43.28125 13.890625 
Q 47.125 21.390625 47.125 36.375 
Q 47.125 51.421875 43.28125 58.90625 
Q 39.453125 66.40625 31.78125 66.40625 
z
M 31.78125 74.21875 
Q 44.046875 74.21875 50.515625 64.515625 
Q 56.984375 54.828125 56.984375 36.375 
Q 56.984375 17.96875 50.515625 8.265625 
Q 44.046875 -1.421875 31.78125 -1.421875 
Q 19.53125 -1.421875 13.0625 8.265625 
Q 6.59375 17.96875 6.59375 36.375 
Q 6.59375 54.828125 13.0625 64.515625 
Q 19.53125 74.21875 31.78125 74.21875 
z
" id="DejaVuSans-48"/>
       <path d="M 10.59375 35.5 
L 73.1875 35.5 
L 73.1875 27.203125 
L 10.59375 27.203125 
z
" id="DejaVuSans-8722"/>
      </defs>
      <g transform="translate(109.816941 361.098437)scale(0.1 -0.1)">
       <use transform="translate(0 0.684375)" xlink:href="#DejaVuSans-49"/>
       <use transform="translate(63.623047 0.684375)" xlink:href="#DejaVuSans-48"/>
       <use transform="translate(128.203125 38.965625)scale(0.7)" xlink:href="#DejaVuSans-8722"/>
       <use transform="translate(186.855469 38.965625)scale(0.7)" xlink:href="#DejaVuSans-49"/>
      </g>
     </g>
    </g>
    <g id="xtick_2">
     <g id="line2d_2">
      <g>
       <use style="stroke:#000000;stroke-width:0.8;" x="305.474439" xlink:href="#ma663644dfa" y="346.5"/>
      </g>
     </g>
     <g id="text_2">
      <!-- $\mathdefault{10^{0}}$ -->
      <g transform="translate(296.674439 361.098437)scale(0.1 -0.1)">
       <use transform="translate(0 0.765625)" xlink:href="#DejaVuSans-49"/>
       <use transform="translate(63.623047 0.765625)" xlink:href="#DejaVuSans-48"/>
       <use transform="translate(128.203125 39.046875)scale(0.7)" xlink:href="#DejaVuSans-48"/>
      </g>
     </g>
    </g>
    <g id="xtick_3">
     <g id="line2d_3">
      <g>
       <use style="stroke:#000000;stroke-width:0.8;" x="489.381938" xlink:href="#ma663644dfa" y="346.5"/>
      </g>
     </g>
     <g id="text_3">
      <!-- $\mathdefault{10^{1}}$ -->
      <g transform="translate(480.581938 361.098437)scale(0.1 -0.1)">
       <use transform="translate(0 0.684375)" xlink:href="#DejaVuSans-49"/>
       <use transform="translate(63.623047 0.684375)" xlink:href="#DejaVuSans-48"/>
       <use transform="translate(128.203125 38.965625)scale(0.7)" xlink:href="#DejaVuSans-49"/>
      </g>
     </g>
    </g>
    <g id="xtick_4">
     <g id="line2d_4">
      <path clip-path="url(#p4ddcc385e0)" d="M 80.767292 346.5 
L 80.767292 47.52 
" style="fill:none;stroke:#d3d3d3;stroke-dasharray:2.96,1.28;stroke-dashoffset:0;stroke-width:0.8;"/>
     </g>
     <g id="line2d_5">
      <defs>
       <path d="M 0 0 
L 0 2 
" id="m3ac6c43ccb" style="stroke:#000000;stroke-width:0.6;"/>
      </defs>
      <g>
       <use style="stroke:#000000;stroke-width:0.6;" x="80.767292" xlink:href="#m3ac6c43ccb" y="346.5"/>
      </g>
     </g>
    </g>
    <g id="xtick_5">
     <g id="line2d_6">
      <path clip-path="url(#p4ddcc385e0)" d="M 93.079309 346.5 
L 93.079309 47.52 
" style="fill:none;stroke:#d3d3d3;stroke-dasharray:2.96,1.28;stroke-dashoffset:0;stroke-width:0.8;"/>
     </g>
     <g id="line2d_7">
      <g>
       <use style="stroke:#000000;stroke-width:0.6;" x="93.079309" xlink:href="#m3ac6c43ccb" y="346.5"/>
      </g>
     </g>
    </g>
    <g id="xtick_6">
     <g id="line2d_8">
      <path clip-path="url(#p4ddcc385e0)" d="M 103.744463 346.5 
L 103.744463 47.52 
" style="fill:none;stroke:#d3d3d3;stroke-dasharray:2.96,1.28;stroke-dashoffset:0;stroke-width:0.8;"/>
     </g>
     <g id="line2d_9">
      <g>
       <use style="stroke:#000000;stroke-width:0.6;" x="103.744463" xlink:href="#m3ac6c43ccb" y="346.5"/>
      </g>
     </g>
    </g>
    <g id="xtick_7">
     <g id="line2d_10">
      <path clip-path="url(#p4ddcc385e0)" d="M 113.151795 346.5 
L 113.151795 47.52 
" style="fill:none;stroke:#d3d3d3;stroke-dasharray:2.96,1.28;stroke-dashoffset:0;stroke-width:0.8;"/>
     </g>
     <g id="line2d_11">
      <g>
       <use style="stroke:#000000;stroke-width:0.6;" x="113.151795" xlink:href="#m3ac6c43ccb" y="346.5"/>
      </g>
     </g>
    </g>
    <g id="xtick_8">
     <g id="line2d_12">
      <path clip-path="url(#p4ddcc385e0)" d="M 176.928614 346.5 
L 176.928614 47.52 
" style="fill:none;stroke:#d3d3d3;stroke-dasharray:2.96,1.28;stroke-dashoffset:0;stroke-width:0.8;"/>
     </g>
     <g id="line2d_13">
      <g>
       <use style="stroke:#000000;stroke-width:0.6;" x="176.928614" xlink:href="#m3ac6c43ccb" y="346.5"/>
      </g>
     </g>
    </g>
    <g id="xtick_9">
     <g id="line2d_14">
      <path clip-path="url(#p4ddcc385e0)" d="M 209.313117 346.5 
L 209.313117 47.52 
" style="fill:none;stroke:#d3d3d3;stroke-dasharray:2.96,1.28;stroke-dashoffset:0;stroke-width:0.8;"/>
     </g>
     <g id="line2d_15">
      <g>
       <use style="stroke:#000000;stroke-width:0.6;" x="209.313117" xlink:href="#m3ac6c43ccb" y="346.5"/>
      </g>
     </g>
    </g>
    <g id="xtick_10">
     <g id="line2d_16">
      <path clip-path="url(#p4ddcc385e0)" d="M 232.290288 346.5 
L 232.290288 47.52 
" style="fill:none;stroke:#d3d3d3;stroke-dasharray:2.96,1.28;stroke-dashoffset:0;stroke-width:0.8;"/>
     </g>
     <g id="line2d_17">
      <g>
       <use style="stroke:#000000;stroke-width:0.6;" x="232.290288" xlink:href="#m3ac6c43ccb" y="346.5"/>
      </g>
     </g>
    </g>
    <g id="xtick_11">
     <g id="line2d_18">
      <path clip-path="url(#p4ddcc385e0)" d="M 250.112766 346.5 
L 250.112766 47.52 
" style="fill:none;stroke:#d3d3d3;stroke-dasharray:2.96,1.28;stroke-dashoffset:0;stroke-width:0.8;"/>
     </g>
     <g id="line2d_19">
      <g>
       <use style="stroke:#000000;stroke-width:0.6;" x="250.112766" xlink:href="#m3ac6c43ccb" y="346.5"/>
      </g>
     </g>
    </g>
    <g id="xtick_12">
     <g id="line2d_20">
      <path clip-path="url(#p4ddcc385e0)" d="M 264.674791 346.5 
L 264.674791 47.52 
" style="fill:none;stroke:#d3d3d3;stroke-dasharray:2.96,1.28;stroke-dashoffset:0;stroke-width:0.8;"/>
     </g>
     <g id="line2d_21">
      <g>
       <use style="stroke:#000000;stroke-width:0.6;" x="264.674791" xlink:href="#m3ac6c43ccb" y="346.5"/>
      </g>
     </g>
    </g>
    <g id="xtick_13">
     <g id="line2d_22">
      <path clip-path="url(#p4ddcc385e0)" d="M 276.986807 346.5 
L 276.986807 47.52 
" style="fill:none;stroke:#d3d3d3;stroke-dasharray:2.96,1.28;stroke-dashoffset:0;stroke-width:0.8;"/>
     </g>
     <g id="line2d_23">
      <g>
       <use style="stroke:#000000;stroke-width:0.6;" x="276.986807" xlink:href="#m3ac6c43ccb" y="346.5"/>
      </g>
     </g>
    </g>
    <g id="xtick_14">
     <g id="line2d_24">
      <path clip-path="url(#p4ddcc385e0)" d="M 287.651961 346.5 
L 287.651961 47.52 
" style="fill:none;stroke:#d3d3d3;stroke-dasharray:2.96,1.28;stroke-dashoffset:0;stroke-width:0.8;"/>
     </g>
     <g id="line2d_25">
      <g>
       <use style="stroke:#000000;stroke-width:0.6;" x="287.651961" xlink:href="#m3ac6c43ccb" y="346.5"/>
      </g>
     </g>
    </g>
    <g id="xtick_15">
     <g id="line2d_26">
      <path clip-path="url(#p4ddcc385e0)" d="M 297.059294 346.5 
L 297.059294 47.52 
" style="fill:none;stroke:#d3d3d3;stroke-dasharray:2.96,1.28;stroke-dashoffset:0;stroke-width:0.8;"/>
     </g>
     <g id="line2d_27">
      <g>
       <use style="stroke:#000000;stroke-width:0.6;" x="297.059294" xlink:href="#m3ac6c43ccb" y="346.5"/>
      </g>
     </g>
    </g>
    <g id="xtick_16">
     <g id="line2d_28">
      <path clip-path="url(#p4ddcc385e0)" d="M 360.836113 346.5 
L 360.836113 47.52 
" style="fill:none;stroke:#d3d3d3;stroke-dasharray:2.96,1.28;stroke-dashoffset:0;stroke-width:0.8;"/>
     </g>
     <g id="line2d_29">
      <g>
       <use style="stroke:#000000;stroke-width:0.6;" x="360.836113" xlink:href="#m3ac6c43ccb" y="346.5"/>
      </g>
     </g>
    </g>
    <g id="xtick_17">
     <g id="line2d_30">
      <path clip-path="url(#p4ddcc385e0)" d="M 393.220616 346.5 
L 393.220616 47.52 
" style="fill:none;stroke:#d3d3d3;stroke-dasharray:2.96,1.28;stroke-dashoffset:0;stroke-width:0.8;"/>
     </g>
     <g id="line2d_31">
      <g>
       <use style="stroke:#000000;stroke-width:0.6;" x="393.220616" xlink:href="#m3ac6c43ccb" y="346.5"/>
      </g>
     </g>
    </g>
    <g id="xtick_18">
     <g id="line2d_32">
      <path clip-path="url(#p4ddcc385e0)" d="M 416.197786 346.5 
L 416.197786 47.52 
" style="fill:none;stroke:#d3d3d3;stroke-dasharray:2.96,1.28;stroke-dashoffset:0;stroke-width:0.8;"/>
     </g>
     <g id="line2d_33">
      <g>
       <use style="stroke:#000000;stroke-width:0.6;" x="416.197786" xlink:href="#m3ac6c43ccb" y="346.5"/>
      </g>
     </g>
    </g>
    <g id="xtick_19">
     <g id="line2d_34">
      <path clip-path="url(#p4ddcc385e0)" d="M 434.020264 346.5 
L 434.020264 47.52 
" style="fill:none;stroke:#d3d3d3;stroke-dasharray:2.96,1.28;stroke-dashoffset:0;stroke-width:0.8;"/>
     </g>
     <g id="line2d_35">
      <g>
       <use style="stroke:#000000;stroke-width:0.6;" x="434.020264" xlink:href="#m3ac6c43ccb" y="346.5"/>
      </g>
     </g>
    </g>
    <g id="xtick_20">
     <g id="line2d_36">
      <path clip-path="url(#p4ddcc385e0)" d="M 448.582289 346.5 
L 448.582289 47.52 
" style="fill:none;stroke:#d3d3d3;stroke-dasharray:2.96,1.28;stroke-dashoffset:0;stroke-width:0.8;"/>
     </g>
     <g id="line2d_37">
      <g>
       <use style="stroke:#000000;stroke-width:0.6;" x="448.582289" xlink:href="#m3ac6c43ccb" y="346.5"/>
      </g>
     </g>
    </g>
    <g id="xtick_21">
     <g id="line2d_38">
      <path clip-path="url(#p4ddcc385e0)" d="M 460.894306 346.5 
L 460.894306 47.52 
" style="fill:none;stroke:#d3d3d3;stroke-dasharray:2.96,1.28;stroke-dashoffset:0;stroke-width:0.8;"/>
     </g>
     <g id="line2d_39">
      <g>
       <use style="stroke:#000000;stroke-width:0.6;" x="460.894306" xlink:href="#m3ac6c43ccb" y="346.5"/>
      </g>
     </g>
    </g>
    <g id="xtick_22">
     <g id="line2d_40">
      <path clip-path="url(#p4ddcc385e0)" d="M 471.559459 346.5 
L 471.559459 47.52 
" style="fill:none;stroke:#d3d3d3;stroke-dasharray:2.96,1.28;stroke-dashoffset:0;stroke-width:0.8;"/>
     </g>
     <g id="line2d_41">
      <g>
       <use style="stroke:#000000;stroke-width:0.6;" x="471.559459" xlink:href="#m3ac6c43ccb" y="346.5"/>
      </g>
     </g>
    </g>
    <g id="xtick_23">
     <g id="line2d_42">
      <path clip-path="url(#p4ddcc385e0)" d="M 480.966792 346.5 
L 480.966792 47.52 
" style="fill:none;stroke:#d3d3d3;stroke-dasharray:2.96,1.28;stroke-dashoffset:0;stroke-width:0.8;"/>
     </g>
     <g id="line2d_43">
      <g>
       <use style="stroke:#000000;stroke-width:0.6;" x="480.966792" xlink:href="#m3ac6c43ccb" y="346.5"/>
      </g>
     </g>
    </g>
    <g id="xtick_24">
     <g id="line2d_44">
      <path clip-path="url(#p4ddcc385e0)" d="M 544.743611 346.5 
L 544.743611 47.52 
" style="fill:none;stroke:#d3d3d3;stroke-dasharray:2.96,1.28;stroke-dashoffset:0;stroke-width:0.8;"/>
     </g>
     <g id="line2d_45">
      <g>
       <use style="stroke:#000000;stroke-width:0.6;" x="544.743611" xlink:href="#m3ac6c43ccb" y="346.5"/>
      </g>
     </g>
    </g>
    <g id="xtick_25">
     <g id="line2d_46">
      <path clip-path="url(#p4ddcc385e0)" d="M 577.128114 346.5 
L 577.128114 47.52 
" style="fill:none;stroke:#d3d3d3;stroke-dasharray:2.96,1.28;stroke-dashoffset:0;stroke-width:0.8;"/>
     </g>
     <g id="line2d_47">
      <g>
       <use style="stroke:#000000;stroke-width:0.6;" x="577.128114" xlink:href="#m3ac6c43ccb" y="346.5"/>
      </g>
     </g>
    </g>
    <g id="text_4">
     <!-- PPM Concentration -->
     <defs>
      <path d="M 19.671875 64.796875 
L 19.671875 37.40625 
L 32.078125 37.40625 
Q 38.96875 37.40625 42.71875 40.96875 
Q 46.484375 44.53125 46.484375 51.125 
Q 46.484375 57.671875 42.71875 61.234375 
Q 38.96875 64.796875 32.078125 64.796875 
z
M 9.8125 72.90625 
L 32.078125 72.90625 
Q 44.34375 72.90625 50.609375 67.359375 
Q 56.890625 61.8125 56.890625 51.125 
Q 56.890625 40.328125 50.609375 34.8125 
Q 44.34375 29.296875 32.078125 29.296875 
L 19.671875 29.296875 
L 19.671875 0 
L 9.8125 0 
z
" id="DejaVuSans-80"/>
      <path d="M 9.8125 72.90625 
L 24.515625 72.90625 
L 43.109375 23.296875 
L 61.8125 72.90625 
L 76.515625 72.90625 
L 76.515625 0 
L 66.890625 0 
L 66.890625 64.015625 
L 48.09375 14.015625 
L 38.1875 14.015625 
L 19.390625 64.015625 
L 19.390625 0 
L 9.8125 0 
z
" id="DejaVuSans-77"/>
      <path id="DejaVuSans-32"/>
      <path d="M 64.40625 67.28125 
L 64.40625 56.890625 
Q 59.421875 61.53125 53.78125 63.8125 
Q 48.140625 66.109375 41.796875 66.109375 
Q 29.296875 66.109375 22.65625 58.46875 
Q 16.015625 50.828125 16.015625 36.375 
Q 16.015625 21.96875 22.65625 14.328125 
Q 29.296875 6.6875 41.796875 6.6875 
Q 48.140625 6.6875 53.78125 8.984375 
Q 59.421875 11.28125 64.40625 15.921875 
L 64.40625 5.609375 
Q 59.234375 2.09375 53.4375 0.328125 
Q 47.65625 -1.421875 41.21875 -1.421875 
Q 24.65625 -1.421875 15.125 8.703125 
Q 5.609375 18.84375 5.609375 36.375 
Q 5.609375 53.953125 15.125 64.078125 
Q 24.65625 74.21875 41.21875 74.21875 
Q 47.75 74.21875 53.53125 72.484375 
Q 59.328125 70.75 64.40625 67.28125 
z
" id="DejaVuSans-67"/>
      <path d="M 30.609375 48.390625 
Q 23.390625 48.390625 19.1875 42.75 
Q 14.984375 37.109375 14.984375 27.296875 
Q 14.984375 17.484375 19.15625 11.84375 
Q 23.34375 6.203125 30.609375 6.203125 
Q 37.796875 6.203125 41.984375 11.859375 
Q 46.1875 17.53125 46.1875 27.296875 
Q 46.1875 37.015625 41.984375 42.703125 
Q 37.796875 48.390625 30.609375 48.390625 
z
M 30.609375 56 
Q 42.328125 56 49.015625 48.375 
Q 55.71875 40.765625 55.71875 27.296875 
Q 55.71875 13.875 49.015625 6.21875 
Q 42.328125 -1.421875 30.609375 -1.421875 
Q 18.84375 -1.421875 12.171875 6.21875 
Q 5.515625 13.875 5.515625 27.296875 
Q 5.515625 40.765625 12.171875 48.375 
Q 18.84375 56 30.609375 56 
z
" id="DejaVuSans-111"/>
      <path d="M 54.890625 33.015625 
L 54.890625 0 
L 45.90625 0 
L 45.90625 32.71875 
Q 45.90625 40.484375 42.875 44.328125 
Q 39.84375 48.1875 33.796875 48.1875 
Q 26.515625 48.1875 22.3125 43.546875 
Q 18.109375 38.921875 18.109375 30.90625 
L 18.109375 0 
L 9.078125 0 
L 9.078125 54.6875 
L 18.109375 54.6875 
L 18.109375 46.1875 
Q 21.34375 51.125 25.703125 53.5625 
Q 30.078125 56 35.796875 56 
Q 45.21875 56 50.046875 50.171875 
Q 54.890625 44.34375 54.890625 33.015625 
z
" id="DejaVuSans-110"/>
      <path d="M 48.78125 52.59375 
L 48.78125 44.1875 
Q 44.96875 46.296875 41.140625 47.34375 
Q 37.3125 48.390625 33.40625 48.390625 
Q 24.65625 48.390625 19.8125 42.84375 
Q 14.984375 37.3125 14.984375 27.296875 
Q 14.984375 17.28125 19.8125 11.734375 
Q 24.65625 6.203125 33.40625 6.203125 
Q 37.3125 6.203125 41.140625 7.25 
Q 44.96875 8.296875 48.78125 10.40625 
L 48.78125 2.09375 
Q 45.015625 0.34375 40.984375 -0.53125 
Q 36.96875 -1.421875 32.421875 -1.421875 
Q 20.0625 -1.421875 12.78125 6.34375 
Q 5.515625 14.109375 5.515625 27.296875 
Q 5.515625 40.671875 12.859375 48.328125 
Q 20.21875 56 33.015625 56 
Q 37.15625 56 41.109375 55.140625 
Q 45.0625 54.296875 48.78125 52.59375 
z
" id="DejaVuSans-99"/>
      <path d="M 56.203125 29.59375 
L 56.203125 25.203125 
L 14.890625 25.203125 
Q 15.484375 15.921875 20.484375 11.0625 
Q 25.484375 6.203125 34.421875 6.203125 
Q 39.59375 6.203125 44.453125 7.46875 
Q 49.3125 8.734375 54.109375 11.28125 
L 54.109375 2.78125 
Q 49.265625 0.734375 44.1875 -0.34375 
Q 39.109375 -1.421875 33.890625 -1.421875 
Q 20.796875 -1.421875 13.15625 6.1875 
Q 5.515625 13.8125 5.515625 26.8125 
Q 5.515625 40.234375 12.765625 48.109375 
Q 20.015625 56 32.328125 56 
Q 43.359375 56 49.78125 48.890625 
Q 56.203125 41.796875 56.203125 29.59375 
z
M 47.21875 32.234375 
Q 47.125 39.59375 43.09375 43.984375 
Q 39.0625 48.390625 32.421875 48.390625 
Q 24.90625 48.390625 20.390625 44.140625 
Q 15.875 39.890625 15.1875 32.171875 
z
" id="DejaVuSans-101"/>
      <path d="M 18.3125 70.21875 
L 18.3125 54.6875 
L 36.8125 54.6875 
L 36.8125 47.703125 
L 18.3125 47.703125 
L 18.3125 18.015625 
Q 18.3125 11.328125 20.140625 9.421875 
Q 21.96875 7.515625 27.59375 7.515625 
L 36.8125 7.515625 
L 36.8125 0 
L 27.59375 0 
Q 17.1875 0 13.234375 3.875 
Q 9.28125 7.765625 9.28125 18.015625 
L 9.28125 47.703125 
L 2.6875 47.703125 
L 2.6875 54.6875 
L 9.28125 54.6875 
L 9.28125 70.21875 
z
" id="DejaVuSans-116"/>
      <path d="M 41.109375 46.296875 
Q 39.59375 47.171875 37.8125 47.578125 
Q 36.03125 48 33.890625 48 
Q 26.265625 48 22.1875 43.046875 
Q 18.109375 38.09375 18.109375 28.8125 
L 18.109375 0 
L 9.078125 0 
L 9.078125 54.6875 
L 18.109375 54.6875 
L 18.109375 46.1875 
Q 20.953125 51.171875 25.484375 53.578125 
Q 30.03125 56 36.53125 56 
Q 37.453125 56 38.578125 55.875 
Q 39.703125 55.765625 41.0625 55.515625 
z
" id="DejaVuSans-114"/>
      <path d="M 34.28125 27.484375 
Q 23.390625 27.484375 19.1875 25 
Q 14.984375 22.515625 14.984375 16.5 
Q 14.984375 11.71875 18.140625 8.90625 
Q 21.296875 6.109375 26.703125 6.109375 
Q 34.1875 6.109375 38.703125 11.40625 
Q 43.21875 16.703125 43.21875 25.484375 
L 43.21875 27.484375 
z
M 52.203125 31.203125 
L 52.203125 0 
L 43.21875 0 
L 43.21875 8.296875 
Q 40.140625 3.328125 35.546875 0.953125 
Q 30.953125 -1.421875 24.3125 -1.421875 
Q 15.921875 -1.421875 10.953125 3.296875 
Q 6 8.015625 6 15.921875 
Q 6 25.140625 12.171875 29.828125 
Q 18.359375 34.515625 30.609375 34.515625 
L 43.21875 34.515625 
L 43.21875 35.40625 
Q 43.21875 41.609375 39.140625 45 
Q 35.0625 48.390625 27.6875 48.390625 
Q 23 48.390625 18.546875 47.265625 
Q 14.109375 46.140625 10.015625 43.890625 
L 10.015625 52.203125 
Q 14.9375 54.109375 19.578125 55.046875 
Q 24.21875 56 28.609375 56 
Q 40.484375 56 46.34375 49.84375 
Q 52.203125 43.703125 52.203125 31.203125 
z
" id="DejaVuSans-97"/>
      <path d="M 9.421875 54.6875 
L 18.40625 54.6875 
L 18.40625 0 
L 9.421875 0 
z
M 9.421875 75.984375 
L 18.40625 75.984375 
L 18.40625 64.59375 
L 9.421875 64.59375 
z
" id="DejaVuSans-105"/>
     </defs>
     <g transform="translate(284.796094 374.776563)scale(0.1 -0.1)">
      <use xlink:href="#DejaVuSans-80"/>
      <use x="60.302734" xlink:href="#DejaVuSans-80"/>
      <use x="120.605469" xlink:href="#DejaVuSans-77"/>
      <use x="206.884766" xlink:href="#DejaVuSans-32"/>
      <use x="238.671875" xlink:href="#DejaVuSans-67"/>
      <use x="308.496094" xlink:href="#DejaVuSans-111"/>
      <use x="369.677734" xlink:href="#DejaVuSans-110"/>
      <use x="433.056641" xlink:href="#DejaVuSans-99"/>
      <use x="488.037109" xlink:href="#DejaVuSans-101"/>
      <use x="549.560547" xlink:href="#DejaVuSans-110"/>
      <use x="612.939453" xlink:href="#DejaVuSans-116"/>
      <use x="652.148438" xlink:href="#DejaVuSans-114"/>
      <use x="693.261719" xlink:href="#DejaVuSans-97"/>
      <use x="754.541016" xlink:href="#DejaVuSans-116"/>
      <use x="793.75" xlink:href="#DejaVuSans-105"/>
      <use x="821.533203" xlink:href="#DejaVuSans-111"/>
      <use x="882.714844" xlink:href="#DejaVuSans-110"/>
     </g>
    </g>
   </g>
   <g id="matplotlib.axis_2">
    <g id="ytick_1">
     <g id="line2d_48">
      <defs>
       <path d="M 0 0 
L -3.5 0 
" id="m865b191c7c" style="stroke:#000000;stroke-width:0.8;"/>
      </defs>
      <g>
       <use style="stroke:#000000;stroke-width:0.8;" x="81" xlink:href="#m865b191c7c" y="262.520167"/>
      </g>
     </g>
     <g id="text_5">
      <!-- $\mathdefault{10^{0}}$ -->
      <g transform="translate(56.4 266.319386)scale(0.1 -0.1)">
       <use transform="translate(0 0.765625)" xlink:href="#DejaVuSans-49"/>
       <use transform="translate(63.623047 0.765625)" xlink:href="#DejaVuSans-48"/>
       <use transform="translate(128.203125 39.046875)scale(0.7)" xlink:href="#DejaVuSans-48"/>
      </g>
     </g>
    </g>
    <g id="ytick_2">
     <g id="line2d_49">
      <g>
       <use style="stroke:#000000;stroke-width:0.8;" x="81" xlink:href="#m865b191c7c" y="161.815084"/>
      </g>
     </g>
     <g id="text_6">
      <!-- $\mathdefault{10^{1}}$ -->
      <g transform="translate(56.4 165.614302)scale(0.1 -0.1)">
       <use transform="translate(0 0.684375)" xlink:href="#DejaVuSans-49"/>
       <use transform="translate(63.623047 0.684375)" xlink:href="#DejaVuSans-48"/>
       <use transform="translate(128.203125 38.965625)scale(0.7)" xlink:href="#DejaVuSans-49"/>
      </g>
     </g>
    </g>
    <g id="ytick_3">
     <g id="line2d_50">
      <g>
       <use style="stroke:#000000;stroke-width:0.8;" x="81" xlink:href="#m865b191c7c" y="61.11"/>
      </g>
     </g>
     <g id="text_7">
      <!-- $\mathdefault{10^{2}}$ -->
      <defs>
       <path d="M 19.1875 8.296875 
L 53.609375 8.296875 
L 53.609375 0 
L 7.328125 0 
L 7.328125 8.296875 
Q 12.9375 14.109375 22.625 23.890625 
Q 32.328125 33.6875 34.8125 36.53125 
Q 39.546875 41.84375 41.421875 45.53125 
Q 43.3125 49.21875 43.3125 52.78125 
Q 43.3125 58.59375 39.234375 62.25 
Q 35.15625 65.921875 28.609375 65.921875 
Q 23.96875 65.921875 18.8125 64.3125 
Q 13.671875 62.703125 7.8125 59.421875 
L 7.8125 69.390625 
Q 13.765625 71.78125 18.9375 73 
Q 24.125 74.21875 28.421875 74.21875 
Q 39.75 74.21875 46.484375 68.546875 
Q 53.21875 62.890625 53.21875 53.421875 
Q 53.21875 48.921875 51.53125 44.890625 
Q 49.859375 40.875 45.40625 35.40625 
Q 44.1875 33.984375 37.640625 27.21875 
Q 31.109375 20.453125 19.1875 8.296875 
z
" id="DejaVuSans-50"/>
      </defs>
      <g transform="translate(56.4 64.909219)scale(0.1 -0.1)">
       <use transform="translate(0 0.765625)" xlink:href="#DejaVuSans-49"/>
       <use transform="translate(63.623047 0.765625)" xlink:href="#DejaVuSans-48"/>
       <use transform="translate(128.203125 39.046875)scale(0.7)" xlink:href="#DejaVuSans-50"/>
      </g>
     </g>
    </g>
    <g id="ytick_4">
     <g id="line2d_51">
      <path clip-path="url(#p4ddcc385e0)" d="M 81 332.91 
L 583.2 332.91 
" style="fill:none;stroke:#d3d3d3;stroke-dasharray:2.96,1.28;stroke-dashoffset:0;stroke-width:0.8;"/>
     </g>
     <g id="line2d_52">
      <defs>
       <path d="M 0 0 
L -2 0 
" id="mbbea3c5525" style="stroke:#000000;stroke-width:0.6;"/>
      </defs>
      <g>
       <use style="stroke:#000000;stroke-width:0.6;" x="81" xlink:href="#mbbea3c5525" y="332.91"/>
      </g>
     </g>
    </g>
    <g id="ytick_5">
     <g id="line2d_53">
      <path clip-path="url(#p4ddcc385e0)" d="M 81 315.176715 
L 583.2 315.176715 
" style="fill:none;stroke:#d3d3d3;stroke-dasharray:2.96,1.28;stroke-dashoffset:0;stroke-width:0.8;"/>
     </g>
     <g id="line2d_54">
      <g>
       <use style="stroke:#000000;stroke-width:0.6;" x="81" xlink:href="#mbbea3c5525" y="315.176715"/>
      </g>
     </g>
    </g>
    <g id="ytick_6">
     <g id="line2d_55">
      <path clip-path="url(#p4ddcc385e0)" d="M 81 302.594749 
L 583.2 302.594749 
" style="fill:none;stroke:#d3d3d3;stroke-dasharray:2.96,1.28;stroke-dashoffset:0;stroke-width:0.8;"/>
     </g>
     <g id="line2d_56">
      <g>
       <use style="stroke:#000000;stroke-width:0.6;" x="81" xlink:href="#mbbea3c5525" y="302.594749"/>
      </g>
     </g>
    </g>
    <g id="ytick_7">
     <g id="line2d_57">
      <path clip-path="url(#p4ddcc385e0)" d="M 81 292.835418 
L 583.2 292.835418 
" style="fill:none;stroke:#d3d3d3;stroke-dasharray:2.96,1.28;stroke-dashoffset:0;stroke-width:0.8;"/>
     </g>
     <g id="line2d_58">
      <g>
       <use style="stroke:#000000;stroke-width:0.6;" x="81" xlink:href="#mbbea3c5525" y="292.835418"/>
      </g>
     </g>
    </g>
    <g id="ytick_8">
     <g id="line2d_59">
      <path clip-path="url(#p4ddcc385e0)" d="M 81 284.861464 
L 583.2 284.861464 
" style="fill:none;stroke:#d3d3d3;stroke-dasharray:2.96,1.28;stroke-dashoffset:0;stroke-width:0.8;"/>
     </g>
     <g id="line2d_60">
      <g>
       <use style="stroke:#000000;stroke-width:0.6;" x="81" xlink:href="#mbbea3c5525" y="284.861464"/>
      </g>
     </g>
    </g>
    <g id="ytick_9">
     <g id="line2d_61">
      <path clip-path="url(#p4ddcc385e0)" d="M 81 278.119582 
L 583.2 278.119582 
" style="fill:none;stroke:#d3d3d3;stroke-dasharray:2.96,1.28;stroke-dashoffset:0;stroke-width:0.8;"/>
     </g>
     <g id="line2d_62">
      <g>
       <use style="stroke:#000000;stroke-width:0.6;" x="81" xlink:href="#mbbea3c5525" y="278.119582"/>
      </g>
     </g>
    </g>
    <g id="ytick_10">
     <g id="line2d_63">
      <path clip-path="url(#p4ddcc385e0)" d="M 81 272.279498 
L 583.2 272.279498 
" style="fill:none;stroke:#d3d3d3;stroke-dasharray:2.96,1.28;stroke-dashoffset:0;stroke-width:0.8;"/>
     </g>
     <g id="line2d_64">
      <g>
       <use style="stroke:#000000;stroke-width:0.6;" x="81" xlink:href="#mbbea3c5525" y="272.279498"/>
      </g>
     </g>
    </g>
    <g id="ytick_11">
     <g id="line2d_65">
      <path clip-path="url(#p4ddcc385e0)" d="M 81 267.128179 
L 583.2 267.128179 
" style="fill:none;stroke:#d3d3d3;stroke-dasharray:2.96,1.28;stroke-dashoffset:0;stroke-width:0.8;"/>
     </g>
     <g id="line2d_66">
      <g>
       <use style="stroke:#000000;stroke-width:0.6;" x="81" xlink:href="#mbbea3c5525" y="267.128179"/>
      </g>
     </g>
    </g>
    <g id="ytick_12">
     <g id="line2d_67">
      <path clip-path="url(#p4ddcc385e0)" d="M 81 232.204916 
L 583.2 232.204916 
" style="fill:none;stroke:#d3d3d3;stroke-dasharray:2.96,1.28;stroke-dashoffset:0;stroke-width:0.8;"/>
     </g>
     <g id="line2d_68">
      <g>
       <use style="stroke:#000000;stroke-width:0.6;" x="81" xlink:href="#mbbea3c5525" y="232.204916"/>
      </g>
     </g>
    </g>
    <g id="ytick_13">
     <g id="line2d_69">
      <path clip-path="url(#p4ddcc385e0)" d="M 81 214.471631 
L 583.2 214.471631 
" style="fill:none;stroke:#d3d3d3;stroke-dasharray:2.96,1.28;stroke-dashoffset:0;stroke-width:0.8;"/>
     </g>
     <g id="line2d_70">
      <g>
       <use style="stroke:#000000;stroke-width:0.6;" x="81" xlink:href="#mbbea3c5525" y="214.471631"/>
      </g>
     </g>
    </g>
    <g id="ytick_14">
     <g id="line2d_71">
      <path clip-path="url(#p4ddcc385e0)" d="M 81 201.889665 
L 583.2 201.889665 
" style="fill:none;stroke:#d3d3d3;stroke-dasharray:2.96,1.28;stroke-dashoffset:0;stroke-width:0.8;"/>
     </g>
     <g id="line2d_72">
      <g>
       <use style="stroke:#000000;stroke-width:0.6;" x="81" xlink:href="#mbbea3c5525" y="201.889665"/>
      </g>
     </g>
    </g>
    <g id="ytick_15">
     <g id="line2d_73">
      <path clip-path="url(#p4ddcc385e0)" d="M 81 192.130335 
L 583.2 192.130335 
" style="fill:none;stroke:#d3d3d3;stroke-dasharray:2.96,1.28;stroke-dashoffset:0;stroke-width:0.8;"/>
     </g>
     <g id="line2d_74">
      <g>
       <use style="stroke:#000000;stroke-width:0.6;" x="81" xlink:href="#mbbea3c5525" y="192.130335"/>
      </g>
     </g>
    </g>
    <g id="ytick_16">
     <g id="line2d_75">
      <path clip-path="url(#p4ddcc385e0)" d="M 81 184.156381 
L 583.2 184.156381 
" style="fill:none;stroke:#d3d3d3;stroke-dasharray:2.96,1.28;stroke-dashoffset:0;stroke-width:0.8;"/>
     </g>
     <g id="line2d_76">
      <g>
       <use style="stroke:#000000;stroke-width:0.6;" x="81" xlink:href="#mbbea3c5525" y="184.156381"/>
      </g>
     </g>
    </g>
    <g id="ytick_17">
     <g id="line2d_77">
      <path clip-path="url(#p4ddcc385e0)" d="M 81 177.414498 
L 583.2 177.414498 
" style="fill:none;stroke:#d3d3d3;stroke-dasharray:2.96,1.28;stroke-dashoffset:0;stroke-width:0.8;"/>
     </g>
     <g id="line2d_78">
      <g>
       <use style="stroke:#000000;stroke-width:0.6;" x="81" xlink:href="#mbbea3c5525" y="177.414498"/>
      </g>
     </g>
    </g>
    <g id="ytick_18">
     <g id="line2d_79">
      <path clip-path="url(#p4ddcc385e0)" d="M 81 171.574415 
L 583.2 171.574415 
" style="fill:none;stroke:#d3d3d3;stroke-dasharray:2.96,1.28;stroke-dashoffset:0;stroke-width:0.8;"/>
     </g>
     <g id="line2d_80">
      <g>
       <use style="stroke:#000000;stroke-width:0.6;" x="81" xlink:href="#mbbea3c5525" y="171.574415"/>
      </g>
     </g>
    </g>
    <g id="ytick_19">
     <g id="line2d_81">
      <path clip-path="url(#p4ddcc385e0)" d="M 81 166.423096 
L 583.2 166.423096 
" style="fill:none;stroke:#d3d3d3;stroke-dasharray:2.96,1.28;stroke-dashoffset:0;stroke-width:0.8;"/>
     </g>
     <g id="line2d_82">
      <g>
       <use style="stroke:#000000;stroke-width:0.6;" x="81" xlink:href="#mbbea3c5525" y="166.423096"/>
      </g>
     </g>
    </g>
    <g id="ytick_20">
     <g id="line2d_83">
      <path clip-path="url(#p4ddcc385e0)" d="M 81 131.499833 
L 583.2 131.499833 
" style="fill:none;stroke:#d3d3d3;stroke-dasharray:2.96,1.28;stroke-dashoffset:0;stroke-width:0.8;"/>
     </g>
     <g id="line2d_84">
      <g>
       <use style="stroke:#000000;stroke-width:0.6;" x="81" xlink:href="#mbbea3c5525" y="131.499833"/>
      </g>
     </g>
    </g>
    <g id="ytick_21">
     <g id="line2d_85">
      <path clip-path="url(#p4ddcc385e0)" d="M 81 113.766548 
L 583.2 113.766548 
" style="fill:none;stroke:#d3d3d3;stroke-dasharray:2.96,1.28;stroke-dashoffset:0;stroke-width:0.8;"/>
     </g>
     <g id="line2d_86">
      <g>
       <use style="stroke:#000000;stroke-width:0.6;" x="81" xlink:href="#mbbea3c5525" y="113.766548"/>
      </g>
     </g>
    </g>
    <g id="ytick_22">
     <g id="line2d_87">
      <path clip-path="url(#p4ddcc385e0)" d="M 81 101.184582 
L 583.2 101.184582 
" style="fill:none;stroke:#d3d3d3;stroke-dasharray:2.96,1.28;stroke-dashoffset:0;stroke-width:0.8;"/>
     </g>
     <g id="line2d_88">
      <g>
       <use style="stroke:#000000;stroke-width:0.6;" x="81" xlink:href="#mbbea3c5525" y="101.184582"/>
      </g>
     </g>
    </g>
    <g id="ytick_23">
     <g id="line2d_89">
      <path clip-path="url(#p4ddcc385e0)" d="M 81 91.425251 
L 583.2 91.425251 
" style="fill:none;stroke:#d3d3d3;stroke-dasharray:2.96,1.28;stroke-dashoffset:0;stroke-width:0.8;"/>
     </g>
     <g id="line2d_90">
      <g>
       <use style="stroke:#000000;stroke-width:0.6;" x="81" xlink:href="#mbbea3c5525" y="91.425251"/>
      </g>
     </g>
    </g>
    <g id="ytick_24">
     <g id="line2d_91">
      <path clip-path="url(#p4ddcc385e0)" d="M 81 83.451297 
L 583.2 83.451297 
" style="fill:none;stroke:#d3d3d3;stroke-dasharray:2.96,1.28;stroke-dashoffset:0;stroke-width:0.8;"/>
     </g>
     <g id="line2d_92">
      <g>
       <use style="stroke:#000000;stroke-width:0.6;" x="81" xlink:href="#mbbea3c5525" y="83.451297"/>
      </g>
     </g>
    </g>
    <g id="ytick_25">
     <g id="line2d_93">
      <path clip-path="url(#p4ddcc385e0)" d="M 81 76.709415 
L 583.2 76.709415 
" style="fill:none;stroke:#d3d3d3;stroke-dasharray:2.96,1.28;stroke-dashoffset:0;stroke-width:0.8;"/>
     </g>
     <g id="line2d_94">
      <g>
       <use style="stroke:#000000;stroke-width:0.6;" x="81" xlink:href="#mbbea3c5525" y="76.709415"/>
      </g>
     </g>
    </g>
    <g id="ytick_26">
     <g id="line2d_95">
      <path clip-path="url(#p4ddcc385e0)" d="M 81 70.869331 
L 583.2 70.869331 
" style="fill:none;stroke:#d3d3d3;stroke-dasharray:2.96,1.28;stroke-dashoffset:0;stroke-width:0.8;"/>
     </g>
     <g id="line2d_96">
      <g>
       <use style="stroke:#000000;stroke-width:0.6;" x="81" xlink:href="#mbbea3c5525" y="70.869331"/>
      </g>
     </g>
    </g>
    <g id="ytick_27">
     <g id="line2d_97">
      <path clip-path="url(#p4ddcc385e0)" d="M 81 65.718012 
L 583.2 65.718012 
" style="fill:none;stroke:#d3d3d3;stroke-dasharray:2.96,1.28;stroke-dashoffset:0;stroke-width:0.8;"/>
     </g>
     <g id="line2d_98">
      <g>
       <use style="stroke:#000000;stroke-width:0.6;" x="81" xlink:href="#mbbea3c5525" y="65.718012"/>
      </g>
     </g>
    </g>
    <g id="text_8">
     <!-- Rs/Ro -->
     <defs>
      <path d="M 44.390625 34.1875 
Q 47.5625 33.109375 50.5625 29.59375 
Q 53.5625 26.078125 56.59375 19.921875 
L 66.609375 0 
L 56 0 
L 46.6875 18.703125 
Q 43.0625 26.03125 39.671875 28.421875 
Q 36.28125 30.8125 30.421875 30.8125 
L 19.671875 30.8125 
L 19.671875 0 
L 9.8125 0 
L 9.8125 72.90625 
L 32.078125 72.90625 
Q 44.578125 72.90625 50.734375 67.671875 
Q 56.890625 62.453125 56.890625 51.90625 
Q 56.890625 45.015625 53.6875 40.46875 
Q 50.484375 35.9375 44.390625 34.1875 
z
M 19.671875 64.796875 
L 19.671875 38.921875 
L 32.078125 38.921875 
Q 39.203125 38.921875 42.84375 42.21875 
Q 46.484375 45.515625 46.484375 51.90625 
Q 46.484375 58.296875 42.84375 61.546875 
Q 39.203125 64.796875 32.078125 64.796875 
z
" id="DejaVuSans-82"/>
      <path d="M 44.28125 53.078125 
L 44.28125 44.578125 
Q 40.484375 46.53125 36.375 47.5 
Q 32.28125 48.484375 27.875 48.484375 
Q 21.1875 48.484375 17.84375 46.4375 
Q 14.5 44.390625 14.5 40.28125 
Q 14.5 37.15625 16.890625 35.375 
Q 19.28125 33.59375 26.515625 31.984375 
L 29.59375 31.296875 
Q 39.15625 29.25 43.1875 25.515625 
Q 47.21875 21.78125 47.21875 15.09375 
Q 47.21875 7.46875 41.1875 3.015625 
Q 35.15625 -1.421875 24.609375 -1.421875 
Q 20.21875 -1.421875 15.453125 -0.5625 
Q 10.6875 0.296875 5.421875 2 
L 5.421875 11.28125 
Q 10.40625 8.6875 15.234375 7.390625 
Q 20.0625 6.109375 24.8125 6.109375 
Q 31.15625 6.109375 34.5625 8.28125 
Q 37.984375 10.453125 37.984375 14.40625 
Q 37.984375 18.0625 35.515625 20.015625 
Q 33.0625 21.96875 24.703125 23.78125 
L 21.578125 24.515625 
Q 13.234375 26.265625 9.515625 29.90625 
Q 5.8125 33.546875 5.8125 39.890625 
Q 5.8125 47.609375 11.28125 51.796875 
Q 16.75 56 26.8125 56 
Q 31.78125 56 36.171875 55.265625 
Q 40.578125 54.546875 44.28125 53.078125 
z
" id="DejaVuSans-115"/>
      <path d="M 25.390625 72.90625 
L 33.6875 72.90625 
L 8.296875 -9.28125 
L 0 -9.28125 
z
" id="DejaVuSans-47"/>
     </defs>
     <g transform="translate(50.320312 211.30375)rotate(-90)scale(0.1 -0.1)">
      <use xlink:href="#DejaVuSans-82"/>
      <use x="69.482422" xlink:href="#DejaVuSans-115"/>
      <use x="121.582031" xlink:href="#DejaVuSans-47"/>
      <use x="155.273438" xlink:href="#DejaVuSans-82"/>
      <use x="224.693359" xlink:href="#DejaVuSans-111"/>
     </g>
    </g>
   </g>
   <g id="line2d_99">
    <path clip-path="url(#p4ddcc385e0)" d="M 392.948486 332.91 
L 383.772523 315.176715 
L 373.403862 302.594749 
L 361.485466 292.835418 
L 347.471271 284.861464 
L 330.463555 278.119582 
L 308.82612 272.279498 
L 279.055499 267.128179 
L 231.058335 262.520167 
L -1 262.481899 
" style="fill:none;stroke:#1f77b4;stroke-linecap:square;"/>
    <defs>
     <path d="M 0 3 
C 0.795609 3 1.55874 2.683901 2.12132 2.12132 
C 2.683901 1.55874 3 0.795609 3 0 
C 3 -0.795609 2.683901 -1.55874 2.12132 -2.12132 
C 1.55874 -2.683901 0.795609 -3 0 -3 
C -0.795609 -3 -1.55874 -2.683901 -2.12132 -2.12132 
C -2.683901 -1.55874 -3 -0.795609 -3 0 
C -3 0.795609 -2.683901 1.55874 -2.12132 2.12132 
C -1.55874 2.683901 -0.795609 3 0 3 
z
" id="mf65983c824" style="stroke:#1f77b4;"/>
    </defs>
    <g clip-path="url(#p4ddcc385e0)">
     <use style="fill:#1f77b4;stroke:#1f77b4;" x="392.948486" xlink:href="#mf65983c824" y="332.91"/>
     <use style="fill:#1f77b4;stroke:#1f77b4;" x="383.772523" xlink:href="#mf65983c824" y="315.176715"/>
     <use style="fill:#1f77b4;stroke:#1f77b4;" x="373.403862" xlink:href="#mf65983c824" y="302.594749"/>
     <use style="fill:#1f77b4;stroke:#1f77b4;" x="361.485466" xlink:href="#mf65983c824" y="292.835418"/>
     <use style="fill:#1f77b4;stroke:#1f77b4;" x="347.471271" xlink:href="#mf65983c824" y="284.861464"/>
     <use style="fill:#1f77b4;stroke:#1f77b4;" x="330.463555" xlink:href="#mf65983c824" y="278.119582"/>
     <use style="fill:#1f77b4;stroke:#1f77b4;" x="308.82612" xlink:href="#mf65983c824" y="272.279498"/>
     <use style="fill:#1f77b4;stroke:#1f77b4;" x="279.055499" xlink:href="#mf65983c824" y="267.128179"/>
     <use style="fill:#1f77b4;stroke:#1f77b4;" x="231.058335" xlink:href="#mf65983c824" y="262.520167"/>
     <use style="fill:#1f77b4;stroke:#1f77b4;" x="-1" xlink:href="#mf65983c824" y="262.481899"/>
    </g>
   </g>
   <g id="line2d_100">
    <path clip-path="url(#p4ddcc385e0)" d="M 464.779903 332.91 
L 462.67343 315.176715 
L 460.509892 302.594749 
L 458.286113 292.835418 
L 455.99864 284.861464 
L 453.643718 278.119582 
L 451.217247 272.279498 
L 448.714743 267.128179 
L 446.131288 262.520167 
L 414.294532 232.204916 
L 360.553916 214.471631 
L 103.827273 201.889665 
L -1 201.884097 
" style="fill:none;stroke:#ff7f0e;stroke-linecap:square;"/>
    <defs>
     <path d="M 0 3 
C 0.795609 3 1.55874 2.683901 2.12132 2.12132 
C 2.683901 1.55874 3 0.795609 3 0 
C 3 -0.795609 2.683901 -1.55874 2.12132 -2.12132 
C 1.55874 -2.683901 0.795609 -3 0 -3 
C -0.795609 -3 -1.55874 -2.683901 -2.12132 -2.12132 
C -2.683901 -1.55874 -3 -0.795609 -3 0 
C -3 0.795609 -2.683901 1.55874 -2.12132 2.12132 
C -1.55874 2.683901 -0.795609 3 0 3 
z
" id="m79ed4e51bb" style="stroke:#ff7f0e;"/>
    </defs>
    <g clip-path="url(#p4ddcc385e0)">
     <use style="fill:#ff7f0e;stroke:#ff7f0e;" x="464.779903" xlink:href="#m79ed4e51bb" y="332.91"/>
     <use style="fill:#ff7f0e;stroke:#ff7f0e;" x="462.67343" xlink:href="#m79ed4e51bb" y="315.176715"/>
     <use style="fill:#ff7f0e;stroke:#ff7f0e;" x="460.509892" xlink:href="#m79ed4e51bb" y="302.594749"/>
     <use style="fill:#ff7f0e;stroke:#ff7f0e;" x="458.286113" xlink:href="#m79ed4e51bb" y="292.835418"/>
     <use style="fill:#ff7f0e;stroke:#ff7f0e;" x="455.99864" xlink:href="#m79ed4e51bb" y="284.861464"/>
     <use style="fill:#ff7f0e;stroke:#ff7f0e;" x="453.643718" xlink:href="#m79ed4e51bb" y="278.119582"/>
     <use style="fill:#ff7f0e;stroke:#ff7f0e;" x="451.217247" xlink:href="#m79ed4e51bb" y="272.279498"/>
     <use style="fill:#ff7f0e;stroke:#ff7f0e;" x="448.714743" xlink:href="#m79ed4e51bb" y="267.128179"/>
     <use style="fill:#ff7f0e;stroke:#ff7f0e;" x="446.131288" xlink:href="#m79ed4e51bb" y="262.520167"/>
     <use style="fill:#ff7f0e;stroke:#ff7f0e;" x="414.294532" xlink:href="#m79ed4e51bb" y="232.204916"/>
     <use style="fill:#ff7f0e;stroke:#ff7f0e;" x="360.553916" xlink:href="#m79ed4e51bb" y="214.471631"/>
     <use style="fill:#ff7f0e;stroke:#ff7f0e;" x="103.827273" xlink:href="#m79ed4e51bb" y="201.889665"/>
     <use style="fill:#ff7f0e;stroke:#ff7f0e;" x="-1" xlink:href="#m79ed4e51bb" y="201.884097"/>
    </g>
   </g>
   <g id="line2d_101">
    <path clip-path="url(#p4ddcc385e0)" d="M 560.372727 332.91 
L 560.212977 315.176715 
L 560.052907 302.594749 
L 559.892516 292.835418 
L 559.731801 284.861464 
L 559.570763 278.119582 
L 559.409399 272.279498 
L 559.247709 267.128179 
L 559.085691 262.520167 
L 557.44717 232.204916 
L 555.774331 214.471631 
L 554.065703 201.889665 
L 552.319723 192.130335 
L 550.534721 184.156381 
L 548.708913 177.414498 
L 546.840388 171.574415 
L 544.927101 166.423096 
L 542.966854 161.815084 
L 520.15285 131.499833 
L 488.093684 113.766548 
L 433.700143 101.184582 
L 136.128966 91.425251 
L -1 91.4193 
" style="fill:none;stroke:#2ca02c;stroke-linecap:square;"/>
    <defs>
     <path d="M 0 3 
C 0.795609 3 1.55874 2.683901 2.12132 2.12132 
C 2.683901 1.55874 3 0.795609 3 0 
C 3 -0.795609 2.683901 -1.55874 2.12132 -2.12132 
C 1.55874 -2.683901 0.795609 -3 0 -3 
C -0.795609 -3 -1.55874 -2.683901 -2.12132 -2.12132 
C -2.683901 -1.55874 -3 -0.795609 -3 0 
C -3 0.795609 -2.683901 1.55874 -2.12132 2.12132 
C -1.55874 2.683901 -0.795609 3 0 3 
z
" id="mfe8cee8257" style="stroke:#2ca02c;"/>
    </defs>
    <g clip-path="url(#p4ddcc385e0)">
     <use style="fill:#2ca02c;stroke:#2ca02c;" x="560.372727" xlink:href="#mfe8cee8257" y="332.91"/>
     <use style="fill:#2ca02c;stroke:#2ca02c;" x="560.212977" xlink:href="#mfe8cee8257" y="315.176715"/>
     <use style="fill:#2ca02c;stroke:#2ca02c;" x="560.052907" xlink:href="#mfe8cee8257" y="302.594749"/>
     <use style="fill:#2ca02c;stroke:#2ca02c;" x="559.892516" xlink:href="#mfe8cee8257" y="292.835418"/>
     <use style="fill:#2ca02c;stroke:#2ca02c;" x="559.731801" xlink:href="#mfe8cee8257" y="284.861464"/>
     <use style="fill:#2ca02c;stroke:#2ca02c;" x="559.570763" xlink:href="#mfe8cee8257" y="278.119582"/>
     <use style="fill:#2ca02c;stroke:#2ca02c;" x="559.409399" xlink:href="#mfe8cee8257" y="272.279498"/>
     <use style="fill:#2ca02c;stroke:#2ca02c;" x="559.247709" xlink:href="#mfe8cee8257" y="267.128179"/>
     <use style="fill:#2ca02c;stroke:#2ca02c;" x="559.085691" xlink:href="#mfe8cee8257" y="262.520167"/>
     <use style="fill:#2ca02c;stroke:#2ca02c;" x="557.44717" xlink:href="#mfe8cee8257" y="232.204916"/>
     <use style="fill:#2ca02c;stroke:#2ca02c;" x="555.774331" xlink:href="#mfe8cee8257" y="214.471631"/>
     <use style="fill:#2ca02c;stroke:#2ca02c;" x="554.065703" xlink:href="#mfe8cee8257" y="201.889665"/>
     <use style="fill:#2ca02c;stroke:#2ca02c;" x="552.319723" xlink:href="#mfe8cee8257" y="192.130335"/>
     <use style="fill:#2ca02c;stroke:#2ca02c;" x="550.534721" xlink:href="#mfe8cee8257" y="184.156381"/>
     <use style="fill:#2ca02c;stroke:#2ca02c;" x="548.708913" xlink:href="#mfe8cee8257" y="177.414498"/>
     <use style="fill:#2ca02c;stroke:#2ca02c;" x="546.840388" xlink:href="#mfe8cee8257" y="171.574415"/>
     <use style="fill:#2ca02c;stroke:#2ca02c;" x="544.927101" xlink:href="#mfe8cee8257" y="166.423096"/>
     <use style="fill:#2ca02c;stroke:#2ca02c;" x="542.966854" xlink:href="#mfe8cee8257" y="161.815084"/>
     <use style="fill:#2ca02c;stroke:#2ca02c;" x="520.15285" xlink:href="#mfe8cee8257" y="131.499833"/>
     <use style="fill:#2ca02c;stroke:#2ca02c;" x="488.093684" xlink:href="#mfe8cee8257" y="113.766548"/>
     <use style="fill:#2ca02c;stroke:#2ca02c;" x="433.700143" xlink:href="#mfe8cee8257" y="101.184582"/>
     <use style="fill:#2ca02c;stroke:#2ca02c;" x="136.128966" xlink:href="#mfe8cee8257" y="91.425251"/>
     <use style="fill:#2ca02c;stroke:#2ca02c;" x="-1" xlink:href="#mfe8cee8257" y="91.4193"/>
    </g>
   </g>
   <g id="line2d_102">
    <path clip-path="url(#p4ddcc385e0)" d="M 478.329351 332.91 
L 478.148335 315.176715 
L 477.966908 302.594749 
L 477.785068 292.835418 
L 477.602814 284.861464 
L 477.420142 278.119582 
L 477.237051 272.279498 
L 477.05354 267.128179 
L 476.869607 262.520167 
L 475.00659 232.204916 
L 473.099078 214.471631 
L 471.144892 201.889665 
L 469.141691 192.130335 
L 467.086953 184.156381 
L 464.977955 177.414498 
L 462.811755 171.574415 
L 460.585163 166.423096 
L 458.294713 161.815084 
L 430.836039 131.499833 
L 388.655372 113.766548 
L 293.621463 101.184582 
L -1 101.168946 
" style="fill:none;stroke:#d62728;stroke-linecap:square;"/>
    <defs>
     <path d="M 0 3 
C 0.795609 3 1.55874 2.683901 2.12132 2.12132 
C 2.683901 1.55874 3 0.795609 3 0 
C 3 -0.795609 2.683901 -1.55874 2.12132 -2.12132 
C 1.55874 -2.683901 0.795609 -3 0 -3 
C -0.795609 -3 -1.55874 -2.683901 -2.12132 -2.12132 
C -2.683901 -1.55874 -3 -0.795609 -3 0 
C -3 0.795609 -2.683901 1.55874 -2.12132 2.12132 
C -1.55874 2.683901 -0.795609 3 0 3 
z
" id="m1ee1904cf0" style="stroke:#d62728;"/>
    </defs>
    <g clip-path="url(#p4ddcc385e0)">
     <use style="fill:#d62728;stroke:#d62728;" x="478.329351" xlink:href="#m1ee1904cf0" y="332.91"/>
     <use style="fill:#d62728;stroke:#d62728;" x="478.148335" xlink:href="#m1ee1904cf0" y="315.176715"/>
     <use style="fill:#d62728;stroke:#d62728;" x="477.966908" xlink:href="#m1ee1904cf0" y="302.594749"/>
     <use style="fill:#d62728;stroke:#d62728;" x="477.785068" xlink:href="#m1ee1904cf0" y="292.835418"/>
     <use style="fill:#d62728;stroke:#d62728;" x="477.602814" xlink:href="#m1ee1904cf0" y="284.861464"/>
     <use style="fill:#d62728;stroke:#d62728;" x="477.420142" xlink:href="#m1ee1904cf0" y="278.119582"/>
     <use style="fill:#d62728;stroke:#d62728;" x="477.237051" xlink:href="#m1ee1904cf0" y="272.279498"/>
     <use style="fill:#d62728;stroke:#d62728;" x="477.05354" xlink:href="#m1ee1904cf0" y="267.128179"/>
     <use style="fill:#d62728;stroke:#d62728;" x="476.869607" xlink:href="#m1ee1904cf0" y="262.520167"/>
     <use style="fill:#d62728;stroke:#d62728;" x="475.00659" xlink:href="#m1ee1904cf0" y="232.204916"/>
     <use style="fill:#d62728;stroke:#d62728;" x="473.099078" xlink:href="#m1ee1904cf0" y="214.471631"/>
     <use style="fill:#d62728;stroke:#d62728;" x="471.144892" xlink:href="#m1ee1904cf0" y="201.889665"/>
     <use style="fill:#d62728;stroke:#d62728;" x="469.141691" xlink:href="#m1ee1904cf0" y="192.130335"/>
     <use style="fill:#d62728;stroke:#d62728;" x="467.086953" xlink:href="#m1ee1904cf0" y="184.156381"/>
     <use style="fill:#d62728;stroke:#d62728;" x="464.977955" xlink:href="#m1ee1904cf0" y="177.414498"/>
     <use style="fill:#d62728;stroke:#d62728;" x="462.811755" xlink:href="#m1ee1904cf0" y="171.574415"/>
     <use style="fill:#d62728;stroke:#d62728;" x="460.585163" xlink:href="#m1ee1904cf0" y="166.423096"/>
     <use style="fill:#d62728;stroke:#d62728;" x="458.294713" xlink:href="#m1ee1904cf0" y="161.815084"/>
     <use style="fill:#d62728;stroke:#d62728;" x="430.836039" xlink:href="#m1ee1904cf0" y="131.499833"/>
     <use style="fill:#d62728;stroke:#d62728;" x="388.655372" xlink:href="#m1ee1904cf0" y="113.766548"/>
     <use style="fill:#d62728;stroke:#d62728;" x="293.621463" xlink:href="#m1ee1904cf0" y="101.184582"/>
     <use style="fill:#d62728;stroke:#d62728;" x="-1" xlink:href="#m1ee1904cf0" y="101.168946"/>
    </g>
   </g>
   <g id="patch_3">
    <path d="M 81 346.5 
L 81 47.52 
" style="fill:none;stroke:#000000;stroke-linecap:square;stroke-linejoin:miter;stroke-width:0.8;"/>
   </g>
   <g id="patch_4">
    <path d="M 583.2 346.5 
L 583.2 47.52 
" style="fill:none;stroke:#000000;stroke-linecap:square;stroke-linejoin:miter;stroke-width:0.8;"/>
   </g>
   <g id="patch_5">
    <path d="M 81 346.5 
L 583.2 346.5 
" style="fill:none;stroke:#000000;stroke-linecap:square;stroke-linejoin:miter;stroke-width:0.8;"/>
   </g>
   <g id="patch_6">
    <path d="M 81 47.52 
L 583.2 47.52 
" style="fill:none;stroke:#000000;stroke-linecap:square;stroke-linejoin:miter;stroke-width:0.8;"/>
   </g>
   <g id="legend_1">
    <g id="patch_7">
     <path d="M 507.729688 114.2325 
L 576.2 114.2325 
Q 578.2 114.2325 578.2 112.2325 
L 578.2 54.52 
Q 578.2 52.52 576.2 52.52 
L 507.729688 52.52 
Q 505.729688 52.52 505.729688 54.52 
L 505.729688 112.2325 
Q 505.729688 114.2325 507.729688 114.2325 
z
" style="fill:#ffffff;opacity:0.8;stroke:#cccccc;stroke-linejoin:miter;"/>
    </g>
    <g id="line2d_103">
     <path d="M 509.729688 60.618437 
L 529.729688 60.618437 
" style="fill:none;stroke:#1f77b4;stroke-linecap:square;"/>
    </g>
    <g id="line2d_104">
     <g>
      <use style="fill:#1f77b4;stroke:#1f77b4;" x="519.729688" xlink:href="#mf65983c824" y="60.618437"/>
     </g>
    </g>
    <g id="text_9">
     <!-- CH4 -->
     <defs>
      <path d="M 9.8125 72.90625 
L 19.671875 72.90625 
L 19.671875 43.015625 
L 55.515625 43.015625 
L 55.515625 72.90625 
L 65.375 72.90625 
L 65.375 0 
L 55.515625 0 
L 55.515625 34.71875 
L 19.671875 34.71875 
L 19.671875 0 
L 9.8125 0 
z
" id="DejaVuSans-72"/>
      <path d="M 37.796875 64.3125 
L 12.890625 25.390625 
L 37.796875 25.390625 
z
M 35.203125 72.90625 
L 47.609375 72.90625 
L 47.609375 25.390625 
L 58.015625 25.390625 
L 58.015625 17.1875 
L 47.609375 17.1875 
L 47.609375 0 
L 37.796875 0 
L 37.796875 17.1875 
L 4.890625 17.1875 
L 4.890625 26.703125 
z
" id="DejaVuSans-52"/>
     </defs>
     <g transform="translate(537.729688 64.118437)scale(0.1 -0.1)">
      <use xlink:href="#DejaVuSans-67"/>
      <use x="69.824219" xlink:href="#DejaVuSans-72"/>
      <use x="145.019531" xlink:href="#DejaVuSans-52"/>
     </g>
    </g>
    <g id="line2d_105">
     <path d="M 509.729688 75.296562 
L 529.729688 75.296562 
" style="fill:none;stroke:#ff7f0e;stroke-linecap:square;"/>
    </g>
    <g id="line2d_106">
     <g>
      <use style="fill:#ff7f0e;stroke:#ff7f0e;" x="519.729688" xlink:href="#m79ed4e51bb" y="75.296562"/>
     </g>
    </g>
    <g id="text_10">
     <!-- CO -->
     <defs>
      <path d="M 39.40625 66.21875 
Q 28.65625 66.21875 22.328125 58.203125 
Q 16.015625 50.203125 16.015625 36.375 
Q 16.015625 22.609375 22.328125 14.59375 
Q 28.65625 6.59375 39.40625 6.59375 
Q 50.140625 6.59375 56.421875 14.59375 
Q 62.703125 22.609375 62.703125 36.375 
Q 62.703125 50.203125 56.421875 58.203125 
Q 50.140625 66.21875 39.40625 66.21875 
z
M 39.40625 74.21875 
Q 54.734375 74.21875 63.90625 63.9375 
Q 73.09375 53.65625 73.09375 36.375 
Q 73.09375 19.140625 63.90625 8.859375 
Q 54.734375 -1.421875 39.40625 -1.421875 
Q 24.03125 -1.421875 14.8125 8.828125 
Q 5.609375 19.09375 5.609375 36.375 
Q 5.609375 53.65625 14.8125 63.9375 
Q 24.03125 74.21875 39.40625 74.21875 
z
" id="DejaVuSans-79"/>
     </defs>
     <g transform="translate(537.729688 78.796562)scale(0.1 -0.1)">
      <use xlink:href="#DejaVuSans-67"/>
      <use x="69.824219" xlink:href="#DejaVuSans-79"/>
     </g>
    </g>
    <g id="line2d_107">
     <path d="M 509.729688 89.974687 
L 529.729688 89.974687 
" style="fill:none;stroke:#2ca02c;stroke-linecap:square;"/>
    </g>
    <g id="line2d_108">
     <g>
      <use style="fill:#2ca02c;stroke:#2ca02c;" x="519.729688" xlink:href="#mfe8cee8257" y="89.974687"/>
     </g>
    </g>
    <g id="text_11">
     <!-- H2 -->
     <g transform="translate(537.729688 93.474687)scale(0.1 -0.1)">
      <use xlink:href="#DejaVuSans-72"/>
      <use x="75.195312" xlink:href="#DejaVuSans-50"/>
     </g>
    </g>
    <g id="line2d_109">
     <path d="M 509.729688 104.652812 
L 529.729688 104.652812 
" style="fill:none;stroke:#d62728;stroke-linecap:square;"/>
    </g>
    <g id="line2d_110">
     <g>
      <use style="fill:#d62728;stroke:#d62728;" x="519.729688" xlink:href="#m1ee1904cf0" y="104.652812"/>
     </g>
    </g>
    <g id="text_12">
     <!-- Alcohol -->
     <defs>
      <path d="M 34.1875 63.1875 
L 20.796875 26.90625 
L 47.609375 26.90625 
z
M 28.609375 72.90625 
L 39.796875 72.90625 
L 67.578125 0 
L 57.328125 0 
L 50.6875 18.703125 
L 17.828125 18.703125 
L 11.1875 0 
L 0.78125 0 
z
" id="DejaVuSans-65"/>
      <path d="M 9.421875 75.984375 
L 18.40625 75.984375 
L 18.40625 0 
L 9.421875 0 
z
" id="DejaVuSans-108"/>
      <path d="M 54.890625 33.015625 
L 54.890625 0 
L 45.90625 0 
L 45.90625 32.71875 
Q 45.90625 40.484375 42.875 44.328125 
Q 39.84375 48.1875 33.796875 48.1875 
Q 26.515625 48.1875 22.3125 43.546875 
Q 18.109375 38.921875 18.109375 30.90625 
L 18.109375 0 
L 9.078125 0 
L 9.078125 75.984375 
L 18.109375 75.984375 
L 18.109375 46.1875 
Q 21.34375 51.125 25.703125 53.5625 
Q 30.078125 56 35.796875 56 
Q 45.21875 56 50.046875 50.171875 
Q 54.890625 44.34375 54.890625 33.015625 
z
" id="DejaVuSans-104"/>
     </defs>
     <g transform="translate(537.729688 108.152812)scale(0.1 -0.1)">
      <use xlink:href="#DejaVuSans-65"/>
      <use x="68.408203" xlink:href="#DejaVuSans-108"/>
      <use x="96.191406" xlink:href="#DejaVuSans-99"/>
      <use x="151.171875" xlink:href="#DejaVuSans-111"/>
      <use x="212.353516" xlink:href="#DejaVuSans-104"/>
      <use x="275.732422" xlink:href="#DejaVuSans-111"/>
      <use x="336.914062" xlink:href="#DejaVuSans-108"/>
     </g>
    </g>
   </g>
  </g>
  <g id="text_13">
   <!-- Calibration plot for MQ-309A data -->
   <defs>
    <path d="M 48.6875 27.296875 
Q 48.6875 37.203125 44.609375 42.84375 
Q 40.53125 48.484375 33.40625 48.484375 
Q 26.265625 48.484375 22.1875 42.84375 
Q 18.109375 37.203125 18.109375 27.296875 
Q 18.109375 17.390625 22.1875 11.75 
Q 26.265625 6.109375 33.40625 6.109375 
Q 40.53125 6.109375 44.609375 11.75 
Q 48.6875 17.390625 48.6875 27.296875 
z
M 18.109375 46.390625 
Q 20.953125 51.265625 25.265625 53.625 
Q 29.59375 56 35.59375 56 
Q 45.5625 56 51.78125 48.09375 
Q 58.015625 40.1875 58.015625 27.296875 
Q 58.015625 14.40625 51.78125 6.484375 
Q 45.5625 -1.421875 35.59375 -1.421875 
Q 29.59375 -1.421875 25.265625 0.953125 
Q 20.953125 3.328125 18.109375 8.203125 
L 18.109375 0 
L 9.078125 0 
L 9.078125 75.984375 
L 18.109375 75.984375 
z
" id="DejaVuSans-98"/>
    <path d="M 18.109375 8.203125 
L 18.109375 -20.796875 
L 9.078125 -20.796875 
L 9.078125 54.6875 
L 18.109375 54.6875 
L 18.109375 46.390625 
Q 20.953125 51.265625 25.265625 53.625 
Q 29.59375 56 35.59375 56 
Q 45.5625 56 51.78125 48.09375 
Q 58.015625 40.1875 58.015625 27.296875 
Q 58.015625 14.40625 51.78125 6.484375 
Q 45.5625 -1.421875 35.59375 -1.421875 
Q 29.59375 -1.421875 25.265625 0.953125 
Q 20.953125 3.328125 18.109375 8.203125 
z
M 48.6875 27.296875 
Q 48.6875 37.203125 44.609375 42.84375 
Q 40.53125 48.484375 33.40625 48.484375 
Q 26.265625 48.484375 22.1875 42.84375 
Q 18.109375 37.203125 18.109375 27.296875 
Q 18.109375 17.390625 22.1875 11.75 
Q 26.265625 6.109375 33.40625 6.109375 
Q 40.53125 6.109375 44.609375 11.75 
Q 48.6875 17.390625 48.6875 27.296875 
z
" id="DejaVuSans-112"/>
    <path d="M 37.109375 75.984375 
L 37.109375 68.5 
L 28.515625 68.5 
Q 23.6875 68.5 21.796875 66.546875 
Q 19.921875 64.59375 19.921875 59.515625 
L 19.921875 54.6875 
L 34.71875 54.6875 
L 34.71875 47.703125 
L 19.921875 47.703125 
L 19.921875 0 
L 10.890625 0 
L 10.890625 47.703125 
L 2.296875 47.703125 
L 2.296875 54.6875 
L 10.890625 54.6875 
L 10.890625 58.5 
Q 10.890625 67.625 15.140625 71.796875 
Q 19.390625 75.984375 28.609375 75.984375 
z
" id="DejaVuSans-102"/>
    <path d="M 39.40625 66.21875 
Q 28.65625 66.21875 22.328125 58.203125 
Q 16.015625 50.203125 16.015625 36.375 
Q 16.015625 22.609375 22.328125 14.59375 
Q 28.65625 6.59375 39.40625 6.59375 
Q 50.140625 6.59375 56.421875 14.59375 
Q 62.703125 22.609375 62.703125 36.375 
Q 62.703125 50.203125 56.421875 58.203125 
Q 50.140625 66.21875 39.40625 66.21875 
z
M 53.21875 1.3125 
L 66.21875 -12.890625 
L 54.296875 -12.890625 
L 43.5 -1.21875 
Q 41.890625 -1.3125 41.03125 -1.359375 
Q 40.1875 -1.421875 39.40625 -1.421875 
Q 24.03125 -1.421875 14.8125 8.859375 
Q 5.609375 19.140625 5.609375 36.375 
Q 5.609375 53.65625 14.8125 63.9375 
Q 24.03125 74.21875 39.40625 74.21875 
Q 54.734375 74.21875 63.90625 63.9375 
Q 73.09375 53.65625 73.09375 36.375 
Q 73.09375 23.6875 67.984375 14.640625 
Q 62.890625 5.609375 53.21875 1.3125 
z
" id="DejaVuSans-81"/>
    <path d="M 4.890625 31.390625 
L 31.203125 31.390625 
L 31.203125 23.390625 
L 4.890625 23.390625 
z
" id="DejaVuSans-45"/>
    <path d="M 40.578125 39.3125 
Q 47.65625 37.796875 51.625 33 
Q 55.609375 28.21875 55.609375 21.1875 
Q 55.609375 10.40625 48.1875 4.484375 
Q 40.765625 -1.421875 27.09375 -1.421875 
Q 22.515625 -1.421875 17.65625 -0.515625 
Q 12.796875 0.390625 7.625 2.203125 
L 7.625 11.71875 
Q 11.71875 9.328125 16.59375 8.109375 
Q 21.484375 6.890625 26.8125 6.890625 
Q 36.078125 6.890625 40.9375 10.546875 
Q 45.796875 14.203125 45.796875 21.1875 
Q 45.796875 27.640625 41.28125 31.265625 
Q 36.765625 34.90625 28.71875 34.90625 
L 20.21875 34.90625 
L 20.21875 43.015625 
L 29.109375 43.015625 
Q 36.375 43.015625 40.234375 45.921875 
Q 44.09375 48.828125 44.09375 54.296875 
Q 44.09375 59.90625 40.109375 62.90625 
Q 36.140625 65.921875 28.71875 65.921875 
Q 24.65625 65.921875 20.015625 65.03125 
Q 15.375 64.15625 9.8125 62.3125 
L 9.8125 71.09375 
Q 15.4375 72.65625 20.34375 73.4375 
Q 25.25 74.21875 29.59375 74.21875 
Q 40.828125 74.21875 47.359375 69.109375 
Q 53.90625 64.015625 53.90625 55.328125 
Q 53.90625 49.265625 50.4375 45.09375 
Q 46.96875 40.921875 40.578125 39.3125 
z
" id="DejaVuSans-51"/>
    <path d="M 10.984375 1.515625 
L 10.984375 10.5 
Q 14.703125 8.734375 18.5 7.8125 
Q 22.3125 6.890625 25.984375 6.890625 
Q 35.75 6.890625 40.890625 13.453125 
Q 46.046875 20.015625 46.78125 33.40625 
Q 43.953125 29.203125 39.59375 26.953125 
Q 35.25 24.703125 29.984375 24.703125 
Q 19.046875 24.703125 12.671875 31.3125 
Q 6.296875 37.9375 6.296875 49.421875 
Q 6.296875 60.640625 12.9375 67.421875 
Q 19.578125 74.21875 30.609375 74.21875 
Q 43.265625 74.21875 49.921875 64.515625 
Q 56.59375 54.828125 56.59375 36.375 
Q 56.59375 19.140625 48.40625 8.859375 
Q 40.234375 -1.421875 26.421875 -1.421875 
Q 22.703125 -1.421875 18.890625 -0.6875 
Q 15.09375 0.046875 10.984375 1.515625 
z
M 30.609375 32.421875 
Q 37.25 32.421875 41.125 36.953125 
Q 45.015625 41.5 45.015625 49.421875 
Q 45.015625 57.28125 41.125 61.84375 
Q 37.25 66.40625 30.609375 66.40625 
Q 23.96875 66.40625 20.09375 61.84375 
Q 16.21875 57.28125 16.21875 49.421875 
Q 16.21875 41.5 20.09375 36.953125 
Q 23.96875 32.421875 30.609375 32.421875 
z
" id="DejaVuSans-57"/>
    <path d="M 45.40625 46.390625 
L 45.40625 75.984375 
L 54.390625 75.984375 
L 54.390625 0 
L 45.40625 0 
L 45.40625 8.203125 
Q 42.578125 3.328125 38.25 0.953125 
Q 33.9375 -1.421875 27.875 -1.421875 
Q 17.96875 -1.421875 11.734375 6.484375 
Q 5.515625 14.40625 5.515625 27.296875 
Q 5.515625 40.1875 11.734375 48.09375 
Q 17.96875 56 27.875 56 
Q 33.9375 56 38.25 53.625 
Q 42.578125 51.265625 45.40625 46.390625 
z
M 14.796875 27.296875 
Q 14.796875 17.390625 18.875 11.75 
Q 22.953125 6.109375 30.078125 6.109375 
Q 37.203125 6.109375 41.296875 11.75 
Q 45.40625 17.390625 45.40625 27.296875 
Q 45.40625 37.203125 41.296875 42.84375 
Q 37.203125 48.484375 30.078125 48.484375 
Q 22.953125 48.484375 18.875 42.84375 
Q 14.796875 37.203125 14.796875 27.296875 
z
" id="DejaVuSans-100"/>
   </defs>
   <g transform="translate(222.839063 17.038125)scale(0.12 -0.12)">
    <use xlink:href="#DejaVuSans-67"/>
    <use x="69.824219" xlink:href="#DejaVuSans-97"/>
    <use x="131.103516" xlink:href="#DejaVuSans-108"/>
    <use x="158.886719" xlink:href="#DejaVuSans-105"/>
    <use x="186.669922" xlink:href="#DejaVuSans-98"/>
    <use x="250.146484" xlink:href="#DejaVuSans-114"/>
    <use x="291.259766" xlink:href="#DejaVuSans-97"/>
    <use x="352.539062" xlink:href="#DejaVuSans-116"/>
    <use x="391.748047" xlink:href="#DejaVuSans-105"/>
    <use x="419.53125" xlink:href="#DejaVuSans-111"/>
    <use x="480.712891" xlink:href="#DejaVuSans-110"/>
    <use x="544.091797" xlink:href="#DejaVuSans-32"/>
    <use x="575.878906" xlink:href="#DejaVuSans-112"/>
    <use x="639.355469" xlink:href="#DejaVuSans-108"/>
    <use x="667.138672" xlink:href="#DejaVuSans-111"/>
    <use x="728.320312" xlink:href="#DejaVuSans-116"/>
    <use x="767.529297" xlink:href="#DejaVuSans-32"/>
    <use x="799.316406" xlink:href="#DejaVuSans-102"/>
    <use x="834.521484" xlink:href="#DejaVuSans-111"/>
    <use x="895.703125" xlink:href="#DejaVuSans-114"/>
    <use x="936.816406" xlink:href="#DejaVuSans-32"/>
    <use x="968.603516" xlink:href="#DejaVuSans-77"/>
    <use x="1054.882812" xlink:href="#DejaVuSans-81"/>
    <use x="1133.625" xlink:href="#DejaVuSans-45"/>
    <use x="1169.708984" xlink:href="#DejaVuSans-51"/>
    <use x="1233.332031" xlink:href="#DejaVuSans-48"/>
    <use x="1296.955078" xlink:href="#DejaVuSans-57"/>
    <use x="1360.578125" xlink:href="#DejaVuSans-65"/>
    <use x="1428.986328" xlink:href="#DejaVuSans-32"/>
    <use x="1460.773438" xlink:href="#DejaVuSans-100"/>
    <use x="1524.25" xlink:href="#DejaVuSans-97"/>
    <use x="1585.529297" xlink:href="#DejaVuSans-116"/>
    <use x="1624.738281" xlink:href="#DejaVuSans-97"/>
   </g>
  </g>
 </g>
 <defs>
  <clipPath id="p4ddcc385e0">
   <rect height="298.98" width="502.2" x="81" y="47.52"/>
  </clipPath>
 </defs>
</svg>
