<?xml version="1.0" encoding="utf-8" standalone="no"?>
<!DOCTYPE svg PUBLIC "-//W3C//DTD SVG 1.1//EN"
  "http://www.w3.org/Graphics/SVG/1.1/DTD/svg11.dtd">
<!-- Created with matplotlib (https://matplotlib.org/) -->
<svg height="396pt" version="1.1" viewBox="0 0 648 396" width="648pt" xmlns="http://www.w3.org/2000/svg" xmlns:xlink="http://www.w3.org/1999/xlink">
 <defs>
  <style type="text/css">
*{stroke-linecap:butt;stroke-linejoin:round;}
  </style>
 </defs>
 <g id="figure_1">
  <g id="patch_1">
   <path d="M 0 396 
L 648 396 
L 648 0 
L 0 0 
z
" style="fill:#ffffff;"/>
  </g>
  <g id="axes_1">
   <g id="patch_2">
    <path d="M 81 346.5 
L 583.2 346.5 
L 583.2 47.52 
L 81 47.52 
z
" style="fill:#ffffff;"/>
   </g>
   <g id="matplotlib.axis_1">
    <g id="xtick_1">
     <g id="line2d_1">
      <defs>
       <path d="M 0 0 
L 0 3.5 
" id="md7cc7af73b" style="stroke:#000000;stroke-width:0.8;"/>
      </defs>
      <g>
       <use style="stroke:#000000;stroke-width:0.8;" x="145.713016" xlink:href="#md7cc7af73b" y="346.5"/>
      </g>
     </g>
     <g id="text_1">
      <!-- $\mathdefault{10^{1}}$ -->
      <defs>
       <path d="M 12.40625 8.296875 
L 28.515625 8.296875 
L 28.515625 63.921875 
L 10.984375 60.40625 
L 10.984375 69.390625 
L 28.421875 72.90625 
L 38.28125 72.90625 
L 38.28125 8.296875 
L 54.390625 8.296875 
L 54.390625 0 
L 12.40625 0 
z
" id="DejaVuSans-49"/>
       <path d="M 31.78125 66.40625 
Q 24.171875 66.40625 20.328125 58.90625 
Q 16.5 51.421875 16.5 36.375 
Q 16.5 21.390625 20.328125 13.890625 
Q 24.171875 6.390625 31.78125 6.390625 
Q 39.453125 6.390625 43.28125 13.890625 
Q 47.125 21.390625 47.125 36.375 
Q 47.125 51.421875 43.28125 58.90625 
Q 39.453125 66.40625 31.78125 66.40625 
z
M 31.78125 74.21875 
Q 44.046875 74.21875 50.515625 64.515625 
Q 56.984375 54.828125 56.984375 36.375 
Q 56.984375 17.96875 50.515625 8.265625 
Q 44.046875 -1.421875 31.78125 -1.421875 
Q 19.53125 -1.421875 13.0625 8.265625 
Q 6.59375 17.96875 6.59375 36.375 
Q 6.59375 54.828125 13.0625 64.515625 
Q 19.53125 74.21875 31.78125 74.21875 
z
" id="DejaVuSans-48"/>
      </defs>
      <g transform="translate(136.913016 361.098437)scale(0.1 -0.1)">
       <use transform="translate(0 0.684375)" xlink:href="#DejaVuSans-49"/>
       <use transform="translate(63.623047 0.684375)" xlink:href="#DejaVuSans-48"/>
       <use transform="translate(128.203125 38.965625)scale(0.7)" xlink:href="#DejaVuSans-49"/>
      </g>
     </g>
    </g>
    <g id="xtick_2">
     <g id="line2d_2">
      <g>
       <use style="stroke:#000000;stroke-width:0.8;" x="268.613165" xlink:href="#md7cc7af73b" y="346.5"/>
      </g>
     </g>
     <g id="text_2">
      <!-- $\mathdefault{10^{2}}$ -->
      <defs>
       <path d="M 19.1875 8.296875 
L 53.609375 8.296875 
L 53.609375 0 
L 7.328125 0 
L 7.328125 8.296875 
Q 12.9375 14.109375 22.625 23.890625 
Q 32.328125 33.6875 34.8125 36.53125 
Q 39.546875 41.84375 41.421875 45.53125 
Q 43.3125 49.21875 43.3125 52.78125 
Q 43.3125 58.59375 39.234375 62.25 
Q 35.15625 65.921875 28.609375 65.921875 
Q 23.96875 65.921875 18.8125 64.3125 
Q 13.671875 62.703125 7.8125 59.421875 
L 7.8125 69.390625 
Q 13.765625 71.78125 18.9375 73 
Q 24.125 74.21875 28.421875 74.21875 
Q 39.75 74.21875 46.484375 68.546875 
Q 53.21875 62.890625 53.21875 53.421875 
Q 53.21875 48.921875 51.53125 44.890625 
Q 49.859375 40.875 45.40625 35.40625 
Q 44.1875 33.984375 37.640625 27.21875 
Q 31.109375 20.453125 19.1875 8.296875 
z
" id="DejaVuSans-50"/>
      </defs>
      <g transform="translate(259.813165 361.098437)scale(0.1 -0.1)">
       <use transform="translate(0 0.765625)" xlink:href="#DejaVuSans-49"/>
       <use transform="translate(63.623047 0.765625)" xlink:href="#DejaVuSans-48"/>
       <use transform="translate(128.203125 39.046875)scale(0.7)" xlink:href="#DejaVuSans-50"/>
      </g>
     </g>
    </g>
    <g id="xtick_3">
     <g id="line2d_3">
      <g>
       <use style="stroke:#000000;stroke-width:0.8;" x="391.513315" xlink:href="#md7cc7af73b" y="346.5"/>
      </g>
     </g>
     <g id="text_3">
      <!-- $\mathdefault{10^{3}}$ -->
      <defs>
       <path d="M 40.578125 39.3125 
Q 47.65625 37.796875 51.625 33 
Q 55.609375 28.21875 55.609375 21.1875 
Q 55.609375 10.40625 48.1875 4.484375 
Q 40.765625 -1.421875 27.09375 -1.421875 
Q 22.515625 -1.421875 17.65625 -0.515625 
Q 12.796875 0.390625 7.625 2.203125 
L 7.625 11.71875 
Q 11.71875 9.328125 16.59375 8.109375 
Q 21.484375 6.890625 26.8125 6.890625 
Q 36.078125 6.890625 40.9375 10.546875 
Q 45.796875 14.203125 45.796875 21.1875 
Q 45.796875 27.640625 41.28125 31.265625 
Q 36.765625 34.90625 28.71875 34.90625 
L 20.21875 34.90625 
L 20.21875 43.015625 
L 29.109375 43.015625 
Q 36.375 43.015625 40.234375 45.921875 
Q 44.09375 48.828125 44.09375 54.296875 
Q 44.09375 59.90625 40.109375 62.90625 
Q 36.140625 65.921875 28.71875 65.921875 
Q 24.65625 65.921875 20.015625 65.03125 
Q 15.375 64.15625 9.8125 62.3125 
L 9.8125 71.09375 
Q 15.4375 72.65625 20.34375 73.4375 
Q 25.25 74.21875 29.59375 74.21875 
Q 40.828125 74.21875 47.359375 69.109375 
Q 53.90625 64.015625 53.90625 55.328125 
Q 53.90625 49.265625 50.4375 45.09375 
Q 46.96875 40.921875 40.578125 39.3125 
z
" id="DejaVuSans-51"/>
      </defs>
      <g transform="translate(382.713315 361.098437)scale(0.1 -0.1)">
       <use transform="translate(0 0.765625)" xlink:href="#DejaVuSans-49"/>
       <use transform="translate(63.623047 0.765625)" xlink:href="#DejaVuSans-48"/>
       <use transform="translate(128.203125 39.046875)scale(0.7)" xlink:href="#DejaVuSans-51"/>
      </g>
     </g>
    </g>
    <g id="xtick_4">
     <g id="line2d_4">
      <g>
       <use style="stroke:#000000;stroke-width:0.8;" x="514.413464" xlink:href="#md7cc7af73b" y="346.5"/>
      </g>
     </g>
     <g id="text_4">
      <!-- $\mathdefault{10^{4}}$ -->
      <defs>
       <path d="M 37.796875 64.3125 
L 12.890625 25.390625 
L 37.796875 25.390625 
z
M 35.203125 72.90625 
L 47.609375 72.90625 
L 47.609375 25.390625 
L 58.015625 25.390625 
L 58.015625 17.1875 
L 47.609375 17.1875 
L 47.609375 0 
L 37.796875 0 
L 37.796875 17.1875 
L 4.890625 17.1875 
L 4.890625 26.703125 
z
" id="DejaVuSans-52"/>
      </defs>
      <g transform="translate(505.613464 361.098437)scale(0.1 -0.1)">
       <use transform="translate(0 0.684375)" xlink:href="#DejaVuSans-49"/>
       <use transform="translate(63.623047 0.684375)" xlink:href="#DejaVuSans-48"/>
       <use transform="translate(128.203125 38.965625)scale(0.7)" xlink:href="#DejaVuSans-52"/>
      </g>
     </g>
    </g>
    <g id="xtick_5">
     <g id="line2d_5">
      <path clip-path="url(#p2a3fca5dd4)" d="M 81.45114 346.5 
L 81.45114 47.52 
" style="fill:none;stroke:#d3d3d3;stroke-dasharray:2.96,1.28;stroke-dashoffset:0;stroke-width:0.8;"/>
     </g>
     <g id="line2d_6">
      <defs>
       <path d="M 0 0 
L 0 2 
" id="mfc1f8c1764" style="stroke:#000000;stroke-width:0.6;"/>
      </defs>
      <g>
       <use style="stroke:#000000;stroke-width:0.6;" x="81.45114" xlink:href="#mfc1f8c1764" y="346.5"/>
      </g>
     </g>
    </g>
    <g id="xtick_6">
     <g id="line2d_7">
      <path clip-path="url(#p2a3fca5dd4)" d="M 96.80613 346.5 
L 96.80613 47.52 
" style="fill:none;stroke:#d3d3d3;stroke-dasharray:2.96,1.28;stroke-dashoffset:0;stroke-width:0.8;"/>
     </g>
     <g id="line2d_8">
      <g>
       <use style="stroke:#000000;stroke-width:0.6;" x="96.80613" xlink:href="#mfc1f8c1764" y="346.5"/>
      </g>
     </g>
    </g>
    <g id="xtick_7">
     <g id="line2d_9">
      <path clip-path="url(#p2a3fca5dd4)" d="M 108.716385 346.5 
L 108.716385 47.52 
" style="fill:none;stroke:#d3d3d3;stroke-dasharray:2.96,1.28;stroke-dashoffset:0;stroke-width:0.8;"/>
     </g>
     <g id="line2d_10">
      <g>
       <use style="stroke:#000000;stroke-width:0.6;" x="108.716385" xlink:href="#mfc1f8c1764" y="346.5"/>
      </g>
     </g>
    </g>
    <g id="xtick_8">
     <g id="line2d_11">
      <path clip-path="url(#p2a3fca5dd4)" d="M 118.447772 346.5 
L 118.447772 47.52 
" style="fill:none;stroke:#d3d3d3;stroke-dasharray:2.96,1.28;stroke-dashoffset:0;stroke-width:0.8;"/>
     </g>
     <g id="line2d_12">
      <g>
       <use style="stroke:#000000;stroke-width:0.6;" x="118.447772" xlink:href="#mfc1f8c1764" y="346.5"/>
      </g>
     </g>
    </g>
    <g id="xtick_9">
     <g id="line2d_13">
      <path clip-path="url(#p2a3fca5dd4)" d="M 126.675542 346.5 
L 126.675542 47.52 
" style="fill:none;stroke:#d3d3d3;stroke-dasharray:2.96,1.28;stroke-dashoffset:0;stroke-width:0.8;"/>
     </g>
     <g id="line2d_14">
      <g>
       <use style="stroke:#000000;stroke-width:0.6;" x="126.675542" xlink:href="#mfc1f8c1764" y="346.5"/>
      </g>
     </g>
    </g>
    <g id="xtick_10">
     <g id="line2d_15">
      <path clip-path="url(#p2a3fca5dd4)" d="M 133.802761 346.5 
L 133.802761 47.52 
" style="fill:none;stroke:#d3d3d3;stroke-dasharray:2.96,1.28;stroke-dashoffset:0;stroke-width:0.8;"/>
     </g>
     <g id="line2d_16">
      <g>
       <use style="stroke:#000000;stroke-width:0.6;" x="133.802761" xlink:href="#mfc1f8c1764" y="346.5"/>
      </g>
     </g>
    </g>
    <g id="xtick_11">
     <g id="line2d_17">
      <path clip-path="url(#p2a3fca5dd4)" d="M 140.089414 346.5 
L 140.089414 47.52 
" style="fill:none;stroke:#d3d3d3;stroke-dasharray:2.96,1.28;stroke-dashoffset:0;stroke-width:0.8;"/>
     </g>
     <g id="line2d_18">
      <g>
       <use style="stroke:#000000;stroke-width:0.6;" x="140.089414" xlink:href="#mfc1f8c1764" y="346.5"/>
      </g>
     </g>
    </g>
    <g id="xtick_12">
     <g id="line2d_19">
      <path clip-path="url(#p2a3fca5dd4)" d="M 182.709648 346.5 
L 182.709648 47.52 
" style="fill:none;stroke:#d3d3d3;stroke-dasharray:2.96,1.28;stroke-dashoffset:0;stroke-width:0.8;"/>
     </g>
     <g id="line2d_20">
      <g>
       <use style="stroke:#000000;stroke-width:0.6;" x="182.709648" xlink:href="#mfc1f8c1764" y="346.5"/>
      </g>
     </g>
    </g>
    <g id="xtick_13">
     <g id="line2d_21">
      <path clip-path="url(#p2a3fca5dd4)" d="M 204.35129 346.5 
L 204.35129 47.52 
" style="fill:none;stroke:#d3d3d3;stroke-dasharray:2.96,1.28;stroke-dashoffset:0;stroke-width:0.8;"/>
     </g>
     <g id="line2d_22">
      <g>
       <use style="stroke:#000000;stroke-width:0.6;" x="204.35129" xlink:href="#mfc1f8c1764" y="346.5"/>
      </g>
     </g>
    </g>
    <g id="xtick_14">
     <g id="line2d_23">
      <path clip-path="url(#p2a3fca5dd4)" d="M 219.706279 346.5 
L 219.706279 47.52 
" style="fill:none;stroke:#d3d3d3;stroke-dasharray:2.96,1.28;stroke-dashoffset:0;stroke-width:0.8;"/>
     </g>
     <g id="line2d_24">
      <g>
       <use style="stroke:#000000;stroke-width:0.6;" x="219.706279" xlink:href="#mfc1f8c1764" y="346.5"/>
      </g>
     </g>
    </g>
    <g id="xtick_15">
     <g id="line2d_25">
      <path clip-path="url(#p2a3fca5dd4)" d="M 231.616534 346.5 
L 231.616534 47.52 
" style="fill:none;stroke:#d3d3d3;stroke-dasharray:2.96,1.28;stroke-dashoffset:0;stroke-width:0.8;"/>
     </g>
     <g id="line2d_26">
      <g>
       <use style="stroke:#000000;stroke-width:0.6;" x="231.616534" xlink:href="#mfc1f8c1764" y="346.5"/>
      </g>
     </g>
    </g>
    <g id="xtick_16">
     <g id="line2d_27">
      <path clip-path="url(#p2a3fca5dd4)" d="M 241.347921 346.5 
L 241.347921 47.52 
" style="fill:none;stroke:#d3d3d3;stroke-dasharray:2.96,1.28;stroke-dashoffset:0;stroke-width:0.8;"/>
     </g>
     <g id="line2d_28">
      <g>
       <use style="stroke:#000000;stroke-width:0.6;" x="241.347921" xlink:href="#mfc1f8c1764" y="346.5"/>
      </g>
     </g>
    </g>
    <g id="xtick_17">
     <g id="line2d_29">
      <path clip-path="url(#p2a3fca5dd4)" d="M 249.575691 346.5 
L 249.575691 47.52 
" style="fill:none;stroke:#d3d3d3;stroke-dasharray:2.96,1.28;stroke-dashoffset:0;stroke-width:0.8;"/>
     </g>
     <g id="line2d_30">
      <g>
       <use style="stroke:#000000;stroke-width:0.6;" x="249.575691" xlink:href="#mfc1f8c1764" y="346.5"/>
      </g>
     </g>
    </g>
    <g id="xtick_18">
     <g id="line2d_31">
      <path clip-path="url(#p2a3fca5dd4)" d="M 256.70291 346.5 
L 256.70291 47.52 
" style="fill:none;stroke:#d3d3d3;stroke-dasharray:2.96,1.28;stroke-dashoffset:0;stroke-width:0.8;"/>
     </g>
     <g id="line2d_32">
      <g>
       <use style="stroke:#000000;stroke-width:0.6;" x="256.70291" xlink:href="#mfc1f8c1764" y="346.5"/>
      </g>
     </g>
    </g>
    <g id="xtick_19">
     <g id="line2d_33">
      <path clip-path="url(#p2a3fca5dd4)" d="M 262.989563 346.5 
L 262.989563 47.52 
" style="fill:none;stroke:#d3d3d3;stroke-dasharray:2.96,1.28;stroke-dashoffset:0;stroke-width:0.8;"/>
     </g>
     <g id="line2d_34">
      <g>
       <use style="stroke:#000000;stroke-width:0.6;" x="262.989563" xlink:href="#mfc1f8c1764" y="346.5"/>
      </g>
     </g>
    </g>
    <g id="xtick_20">
     <g id="line2d_35">
      <path clip-path="url(#p2a3fca5dd4)" d="M 305.609797 346.5 
L 305.609797 47.52 
" style="fill:none;stroke:#d3d3d3;stroke-dasharray:2.96,1.28;stroke-dashoffset:0;stroke-width:0.8;"/>
     </g>
     <g id="line2d_36">
      <g>
       <use style="stroke:#000000;stroke-width:0.6;" x="305.609797" xlink:href="#mfc1f8c1764" y="346.5"/>
      </g>
     </g>
    </g>
    <g id="xtick_21">
     <g id="line2d_37">
      <path clip-path="url(#p2a3fca5dd4)" d="M 327.251439 346.5 
L 327.251439 47.52 
" style="fill:none;stroke:#d3d3d3;stroke-dasharray:2.96,1.28;stroke-dashoffset:0;stroke-width:0.8;"/>
     </g>
     <g id="line2d_38">
      <g>
       <use style="stroke:#000000;stroke-width:0.6;" x="327.251439" xlink:href="#mfc1f8c1764" y="346.5"/>
      </g>
     </g>
    </g>
    <g id="xtick_22">
     <g id="line2d_39">
      <path clip-path="url(#p2a3fca5dd4)" d="M 342.606428 346.5 
L 342.606428 47.52 
" style="fill:none;stroke:#d3d3d3;stroke-dasharray:2.96,1.28;stroke-dashoffset:0;stroke-width:0.8;"/>
     </g>
     <g id="line2d_40">
      <g>
       <use style="stroke:#000000;stroke-width:0.6;" x="342.606428" xlink:href="#mfc1f8c1764" y="346.5"/>
      </g>
     </g>
    </g>
    <g id="xtick_23">
     <g id="line2d_41">
      <path clip-path="url(#p2a3fca5dd4)" d="M 354.516683 346.5 
L 354.516683 47.52 
" style="fill:none;stroke:#d3d3d3;stroke-dasharray:2.96,1.28;stroke-dashoffset:0;stroke-width:0.8;"/>
     </g>
     <g id="line2d_42">
      <g>
       <use style="stroke:#000000;stroke-width:0.6;" x="354.516683" xlink:href="#mfc1f8c1764" y="346.5"/>
      </g>
     </g>
    </g>
    <g id="xtick_24">
     <g id="line2d_43">
      <path clip-path="url(#p2a3fca5dd4)" d="M 364.24807 346.5 
L 364.24807 47.52 
" style="fill:none;stroke:#d3d3d3;stroke-dasharray:2.96,1.28;stroke-dashoffset:0;stroke-width:0.8;"/>
     </g>
     <g id="line2d_44">
      <g>
       <use style="stroke:#000000;stroke-width:0.6;" x="364.24807" xlink:href="#mfc1f8c1764" y="346.5"/>
      </g>
     </g>
    </g>
    <g id="xtick_25">
     <g id="line2d_45">
      <path clip-path="url(#p2a3fca5dd4)" d="M 372.475841 346.5 
L 372.475841 47.52 
" style="fill:none;stroke:#d3d3d3;stroke-dasharray:2.96,1.28;stroke-dashoffset:0;stroke-width:0.8;"/>
     </g>
     <g id="line2d_46">
      <g>
       <use style="stroke:#000000;stroke-width:0.6;" x="372.475841" xlink:href="#mfc1f8c1764" y="346.5"/>
      </g>
     </g>
    </g>
    <g id="xtick_26">
     <g id="line2d_47">
      <path clip-path="url(#p2a3fca5dd4)" d="M 379.60306 346.5 
L 379.60306 47.52 
" style="fill:none;stroke:#d3d3d3;stroke-dasharray:2.96,1.28;stroke-dashoffset:0;stroke-width:0.8;"/>
     </g>
     <g id="line2d_48">
      <g>
       <use style="stroke:#000000;stroke-width:0.6;" x="379.60306" xlink:href="#mfc1f8c1764" y="346.5"/>
      </g>
     </g>
    </g>
    <g id="xtick_27">
     <g id="line2d_49">
      <path clip-path="url(#p2a3fca5dd4)" d="M 385.889712 346.5 
L 385.889712 47.52 
" style="fill:none;stroke:#d3d3d3;stroke-dasharray:2.96,1.28;stroke-dashoffset:0;stroke-width:0.8;"/>
     </g>
     <g id="line2d_50">
      <g>
       <use style="stroke:#000000;stroke-width:0.6;" x="385.889712" xlink:href="#mfc1f8c1764" y="346.5"/>
      </g>
     </g>
    </g>
    <g id="xtick_28">
     <g id="line2d_51">
      <path clip-path="url(#p2a3fca5dd4)" d="M 428.509946 346.5 
L 428.509946 47.52 
" style="fill:none;stroke:#d3d3d3;stroke-dasharray:2.96,1.28;stroke-dashoffset:0;stroke-width:0.8;"/>
     </g>
     <g id="line2d_52">
      <g>
       <use style="stroke:#000000;stroke-width:0.6;" x="428.509946" xlink:href="#mfc1f8c1764" y="346.5"/>
      </g>
     </g>
    </g>
    <g id="xtick_29">
     <g id="line2d_53">
      <path clip-path="url(#p2a3fca5dd4)" d="M 450.151588 346.5 
L 450.151588 47.52 
" style="fill:none;stroke:#d3d3d3;stroke-dasharray:2.96,1.28;stroke-dashoffset:0;stroke-width:0.8;"/>
     </g>
     <g id="line2d_54">
      <g>
       <use style="stroke:#000000;stroke-width:0.6;" x="450.151588" xlink:href="#mfc1f8c1764" y="346.5"/>
      </g>
     </g>
    </g>
    <g id="xtick_30">
     <g id="line2d_55">
      <path clip-path="url(#p2a3fca5dd4)" d="M 465.506578 346.5 
L 465.506578 47.52 
" style="fill:none;stroke:#d3d3d3;stroke-dasharray:2.96,1.28;stroke-dashoffset:0;stroke-width:0.8;"/>
     </g>
     <g id="line2d_56">
      <g>
       <use style="stroke:#000000;stroke-width:0.6;" x="465.506578" xlink:href="#mfc1f8c1764" y="346.5"/>
      </g>
     </g>
    </g>
    <g id="xtick_31">
     <g id="line2d_57">
      <path clip-path="url(#p2a3fca5dd4)" d="M 477.416833 346.5 
L 477.416833 47.52 
" style="fill:none;stroke:#d3d3d3;stroke-dasharray:2.96,1.28;stroke-dashoffset:0;stroke-width:0.8;"/>
     </g>
     <g id="line2d_58">
      <g>
       <use style="stroke:#000000;stroke-width:0.6;" x="477.416833" xlink:href="#mfc1f8c1764" y="346.5"/>
      </g>
     </g>
    </g>
    <g id="xtick_32">
     <g id="line2d_59">
      <path clip-path="url(#p2a3fca5dd4)" d="M 487.14822 346.5 
L 487.14822 47.52 
" style="fill:none;stroke:#d3d3d3;stroke-dasharray:2.96,1.28;stroke-dashoffset:0;stroke-width:0.8;"/>
     </g>
     <g id="line2d_60">
      <g>
       <use style="stroke:#000000;stroke-width:0.6;" x="487.14822" xlink:href="#mfc1f8c1764" y="346.5"/>
      </g>
     </g>
    </g>
    <g id="xtick_33">
     <g id="line2d_61">
      <path clip-path="url(#p2a3fca5dd4)" d="M 495.37599 346.5 
L 495.37599 47.52 
" style="fill:none;stroke:#d3d3d3;stroke-dasharray:2.96,1.28;stroke-dashoffset:0;stroke-width:0.8;"/>
     </g>
     <g id="line2d_62">
      <g>
       <use style="stroke:#000000;stroke-width:0.6;" x="495.37599" xlink:href="#mfc1f8c1764" y="346.5"/>
      </g>
     </g>
    </g>
    <g id="xtick_34">
     <g id="line2d_63">
      <path clip-path="url(#p2a3fca5dd4)" d="M 502.503209 346.5 
L 502.503209 47.52 
" style="fill:none;stroke:#d3d3d3;stroke-dasharray:2.96,1.28;stroke-dashoffset:0;stroke-width:0.8;"/>
     </g>
     <g id="line2d_64">
      <g>
       <use style="stroke:#000000;stroke-width:0.6;" x="502.503209" xlink:href="#mfc1f8c1764" y="346.5"/>
      </g>
     </g>
    </g>
    <g id="xtick_35">
     <g id="line2d_65">
      <path clip-path="url(#p2a3fca5dd4)" d="M 508.789862 346.5 
L 508.789862 47.52 
" style="fill:none;stroke:#d3d3d3;stroke-dasharray:2.96,1.28;stroke-dashoffset:0;stroke-width:0.8;"/>
     </g>
     <g id="line2d_66">
      <g>
       <use style="stroke:#000000;stroke-width:0.6;" x="508.789862" xlink:href="#mfc1f8c1764" y="346.5"/>
      </g>
     </g>
    </g>
    <g id="xtick_36">
     <g id="line2d_67">
      <path clip-path="url(#p2a3fca5dd4)" d="M 551.410096 346.5 
L 551.410096 47.52 
" style="fill:none;stroke:#d3d3d3;stroke-dasharray:2.96,1.28;stroke-dashoffset:0;stroke-width:0.8;"/>
     </g>
     <g id="line2d_68">
      <g>
       <use style="stroke:#000000;stroke-width:0.6;" x="551.410096" xlink:href="#mfc1f8c1764" y="346.5"/>
      </g>
     </g>
    </g>
    <g id="xtick_37">
     <g id="line2d_69">
      <path clip-path="url(#p2a3fca5dd4)" d="M 573.051738 346.5 
L 573.051738 47.52 
" style="fill:none;stroke:#d3d3d3;stroke-dasharray:2.96,1.28;stroke-dashoffset:0;stroke-width:0.8;"/>
     </g>
     <g id="line2d_70">
      <g>
       <use style="stroke:#000000;stroke-width:0.6;" x="573.051738" xlink:href="#mfc1f8c1764" y="346.5"/>
      </g>
     </g>
    </g>
    <g id="text_5">
     <!-- PPM Concentration -->
     <defs>
      <path d="M 19.671875 64.796875 
L 19.671875 37.40625 
L 32.078125 37.40625 
Q 38.96875 37.40625 42.71875 40.96875 
Q 46.484375 44.53125 46.484375 51.125 
Q 46.484375 57.671875 42.71875 61.234375 
Q 38.96875 64.796875 32.078125 64.796875 
z
M 9.8125 72.90625 
L 32.078125 72.90625 
Q 44.34375 72.90625 50.609375 67.359375 
Q 56.890625 61.8125 56.890625 51.125 
Q 56.890625 40.328125 50.609375 34.8125 
Q 44.34375 29.296875 32.078125 29.296875 
L 19.671875 29.296875 
L 19.671875 0 
L 9.8125 0 
z
" id="DejaVuSans-80"/>
      <path d="M 9.8125 72.90625 
L 24.515625 72.90625 
L 43.109375 23.296875 
L 61.8125 72.90625 
L 76.515625 72.90625 
L 76.515625 0 
L 66.890625 0 
L 66.890625 64.015625 
L 48.09375 14.015625 
L 38.1875 14.015625 
L 19.390625 64.015625 
L 19.390625 0 
L 9.8125 0 
z
" id="DejaVuSans-77"/>
      <path id="DejaVuSans-32"/>
      <path d="M 64.40625 67.28125 
L 64.40625 56.890625 
Q 59.421875 61.53125 53.78125 63.8125 
Q 48.140625 66.109375 41.796875 66.109375 
Q 29.296875 66.109375 22.65625 58.46875 
Q 16.015625 50.828125 16.015625 36.375 
Q 16.015625 21.96875 22.65625 14.328125 
Q 29.296875 6.6875 41.796875 6.6875 
Q 48.140625 6.6875 53.78125 8.984375 
Q 59.421875 11.28125 64.40625 15.921875 
L 64.40625 5.609375 
Q 59.234375 2.09375 53.4375 0.328125 
Q 47.65625 -1.421875 41.21875 -1.421875 
Q 24.65625 -1.421875 15.125 8.703125 
Q 5.609375 18.84375 5.609375 36.375 
Q 5.609375 53.953125 15.125 64.078125 
Q 24.65625 74.21875 41.21875 74.21875 
Q 47.75 74.21875 53.53125 72.484375 
Q 59.328125 70.75 64.40625 67.28125 
z
" id="DejaVuSans-67"/>
      <path d="M 30.609375 48.390625 
Q 23.390625 48.390625 19.1875 42.75 
Q 14.984375 37.109375 14.984375 27.296875 
Q 14.984375 17.484375 19.15625 11.84375 
Q 23.34375 6.203125 30.609375 6.203125 
Q 37.796875 6.203125 41.984375 11.859375 
Q 46.1875 17.53125 46.1875 27.296875 
Q 46.1875 37.015625 41.984375 42.703125 
Q 37.796875 48.390625 30.609375 48.390625 
z
M 30.609375 56 
Q 42.328125 56 49.015625 48.375 
Q 55.71875 40.765625 55.71875 27.296875 
Q 55.71875 13.875 49.015625 6.21875 
Q 42.328125 -1.421875 30.609375 -1.421875 
Q 18.84375 -1.421875 12.171875 6.21875 
Q 5.515625 13.875 5.515625 27.296875 
Q 5.515625 40.765625 12.171875 48.375 
Q 18.84375 56 30.609375 56 
z
" id="DejaVuSans-111"/>
      <path d="M 54.890625 33.015625 
L 54.890625 0 
L 45.90625 0 
L 45.90625 32.71875 
Q 45.90625 40.484375 42.875 44.328125 
Q 39.84375 48.1875 33.796875 48.1875 
Q 26.515625 48.1875 22.3125 43.546875 
Q 18.109375 38.921875 18.109375 30.90625 
L 18.109375 0 
L 9.078125 0 
L 9.078125 54.6875 
L 18.109375 54.6875 
L 18.109375 46.1875 
Q 21.34375 51.125 25.703125 53.5625 
Q 30.078125 56 35.796875 56 
Q 45.21875 56 50.046875 50.171875 
Q 54.890625 44.34375 54.890625 33.015625 
z
" id="DejaVuSans-110"/>
      <path d="M 48.78125 52.59375 
L 48.78125 44.1875 
Q 44.96875 46.296875 41.140625 47.34375 
Q 37.3125 48.390625 33.40625 48.390625 
Q 24.65625 48.390625 19.8125 42.84375 
Q 14.984375 37.3125 14.984375 27.296875 
Q 14.984375 17.28125 19.8125 11.734375 
Q 24.65625 6.203125 33.40625 6.203125 
Q 37.3125 6.203125 41.140625 7.25 
Q 44.96875 8.296875 48.78125 10.40625 
L 48.78125 2.09375 
Q 45.015625 0.34375 40.984375 -0.53125 
Q 36.96875 -1.421875 32.421875 -1.421875 
Q 20.0625 -1.421875 12.78125 6.34375 
Q 5.515625 14.109375 5.515625 27.296875 
Q 5.515625 40.671875 12.859375 48.328125 
Q 20.21875 56 33.015625 56 
Q 37.15625 56 41.109375 55.140625 
Q 45.0625 54.296875 48.78125 52.59375 
z
" id="DejaVuSans-99"/>
      <path d="M 56.203125 29.59375 
L 56.203125 25.203125 
L 14.890625 25.203125 
Q 15.484375 15.921875 20.484375 11.0625 
Q 25.484375 6.203125 34.421875 6.203125 
Q 39.59375 6.203125 44.453125 7.46875 
Q 49.3125 8.734375 54.109375 11.28125 
L 54.109375 2.78125 
Q 49.265625 0.734375 44.1875 -0.34375 
Q 39.109375 -1.421875 33.890625 -1.421875 
Q 20.796875 -1.421875 13.15625 6.1875 
Q 5.515625 13.8125 5.515625 26.8125 
Q 5.515625 40.234375 12.765625 48.109375 
Q 20.015625 56 32.328125 56 
Q 43.359375 56 49.78125 48.890625 
Q 56.203125 41.796875 56.203125 29.59375 
z
M 47.21875 32.234375 
Q 47.125 39.59375 43.09375 43.984375 
Q 39.0625 48.390625 32.421875 48.390625 
Q 24.90625 48.390625 20.390625 44.140625 
Q 15.875 39.890625 15.1875 32.171875 
z
" id="DejaVuSans-101"/>
      <path d="M 18.3125 70.21875 
L 18.3125 54.6875 
L 36.8125 54.6875 
L 36.8125 47.703125 
L 18.3125 47.703125 
L 18.3125 18.015625 
Q 18.3125 11.328125 20.140625 9.421875 
Q 21.96875 7.515625 27.59375 7.515625 
L 36.8125 7.515625 
L 36.8125 0 
L 27.59375 0 
Q 17.1875 0 13.234375 3.875 
Q 9.28125 7.765625 9.28125 18.015625 
L 9.28125 47.703125 
L 2.6875 47.703125 
L 2.6875 54.6875 
L 9.28125 54.6875 
L 9.28125 70.21875 
z
" id="DejaVuSans-116"/>
      <path d="M 41.109375 46.296875 
Q 39.59375 47.171875 37.8125 47.578125 
Q 36.03125 48 33.890625 48 
Q 26.265625 48 22.1875 43.046875 
Q 18.109375 38.09375 18.109375 28.8125 
L 18.109375 0 
L 9.078125 0 
L 9.078125 54.6875 
L 18.109375 54.6875 
L 18.109375 46.1875 
Q 20.953125 51.171875 25.484375 53.578125 
Q 30.03125 56 36.53125 56 
Q 37.453125 56 38.578125 55.875 
Q 39.703125 55.765625 41.0625 55.515625 
z
" id="DejaVuSans-114"/>
      <path d="M 34.28125 27.484375 
Q 23.390625 27.484375 19.1875 25 
Q 14.984375 22.515625 14.984375 16.5 
Q 14.984375 11.71875 18.140625 8.90625 
Q 21.296875 6.109375 26.703125 6.109375 
Q 34.1875 6.109375 38.703125 11.40625 
Q 43.21875 16.703125 43.21875 25.484375 
L 43.21875 27.484375 
z
M 52.203125 31.203125 
L 52.203125 0 
L 43.21875 0 
L 43.21875 8.296875 
Q 40.140625 3.328125 35.546875 0.953125 
Q 30.953125 -1.421875 24.3125 -1.421875 
Q 15.921875 -1.421875 10.953125 3.296875 
Q 6 8.015625 6 15.921875 
Q 6 25.140625 12.171875 29.828125 
Q 18.359375 34.515625 30.609375 34.515625 
L 43.21875 34.515625 
L 43.21875 35.40625 
Q 43.21875 41.609375 39.140625 45 
Q 35.0625 48.390625 27.6875 48.390625 
Q 23 48.390625 18.546875 47.265625 
Q 14.109375 46.140625 10.015625 43.890625 
L 10.015625 52.203125 
Q 14.9375 54.109375 19.578125 55.046875 
Q 24.21875 56 28.609375 56 
Q 40.484375 56 46.34375 49.84375 
Q 52.203125 43.703125 52.203125 31.203125 
z
" id="DejaVuSans-97"/>
      <path d="M 9.421875 54.6875 
L 18.40625 54.6875 
L 18.40625 0 
L 9.421875 0 
z
M 9.421875 75.984375 
L 18.40625 75.984375 
L 18.40625 64.59375 
L 9.421875 64.59375 
z
" id="DejaVuSans-105"/>
     </defs>
     <g transform="translate(284.796094 374.776563)scale(0.1 -0.1)">
      <use xlink:href="#DejaVuSans-80"/>
      <use x="60.302734" xlink:href="#DejaVuSans-80"/>
      <use x="120.605469" xlink:href="#DejaVuSans-77"/>
      <use x="206.884766" xlink:href="#DejaVuSans-32"/>
      <use x="238.671875" xlink:href="#DejaVuSans-67"/>
      <use x="308.496094" xlink:href="#DejaVuSans-111"/>
      <use x="369.677734" xlink:href="#DejaVuSans-110"/>
      <use x="433.056641" xlink:href="#DejaVuSans-99"/>
      <use x="488.037109" xlink:href="#DejaVuSans-101"/>
      <use x="549.560547" xlink:href="#DejaVuSans-110"/>
      <use x="612.939453" xlink:href="#DejaVuSans-116"/>
      <use x="652.148438" xlink:href="#DejaVuSans-114"/>
      <use x="693.261719" xlink:href="#DejaVuSans-97"/>
      <use x="754.541016" xlink:href="#DejaVuSans-116"/>
      <use x="793.75" xlink:href="#DejaVuSans-105"/>
      <use x="821.533203" xlink:href="#DejaVuSans-111"/>
      <use x="882.714844" xlink:href="#DejaVuSans-110"/>
     </g>
    </g>
   </g>
   <g id="matplotlib.axis_2">
    <g id="ytick_1">
     <g id="line2d_71">
      <defs>
       <path d="M 0 0 
L -3.5 0 
" id="m26c0082eb9" style="stroke:#000000;stroke-width:0.8;"/>
      </defs>
      <g>
       <use style="stroke:#000000;stroke-width:0.8;" x="81" xlink:href="#m26c0082eb9" y="281.549744"/>
      </g>
     </g>
     <g id="text_6">
      <!-- $\mathdefault{10^{-1}}$ -->
      <defs>
       <path d="M 10.59375 35.5 
L 73.1875 35.5 
L 73.1875 27.203125 
L 10.59375 27.203125 
z
" id="DejaVuSans-8722"/>
      </defs>
      <g transform="translate(50.5 285.348963)scale(0.1 -0.1)">
       <use transform="translate(0 0.684375)" xlink:href="#DejaVuSans-49"/>
       <use transform="translate(63.623047 0.684375)" xlink:href="#DejaVuSans-48"/>
       <use transform="translate(128.203125 38.965625)scale(0.7)" xlink:href="#DejaVuSans-8722"/>
       <use transform="translate(186.855469 38.965625)scale(0.7)" xlink:href="#DejaVuSans-49"/>
      </g>
     </g>
    </g>
    <g id="ytick_2">
     <g id="line2d_72">
      <g>
       <use style="stroke:#000000;stroke-width:0.8;" x="81" xlink:href="#m26c0082eb9" y="208.069829"/>
      </g>
     </g>
     <g id="text_7">
      <!-- $\mathdefault{10^{0}}$ -->
      <g transform="translate(56.4 211.869048)scale(0.1 -0.1)">
       <use transform="translate(0 0.765625)" xlink:href="#DejaVuSans-49"/>
       <use transform="translate(63.623047 0.765625)" xlink:href="#DejaVuSans-48"/>
       <use transform="translate(128.203125 39.046875)scale(0.7)" xlink:href="#DejaVuSans-48"/>
      </g>
     </g>
    </g>
    <g id="ytick_3">
     <g id="line2d_73">
      <g>
       <use style="stroke:#000000;stroke-width:0.8;" x="81" xlink:href="#m26c0082eb9" y="134.589915"/>
      </g>
     </g>
     <g id="text_8">
      <!-- $\mathdefault{10^{1}}$ -->
      <g transform="translate(56.4 138.389133)scale(0.1 -0.1)">
       <use transform="translate(0 0.684375)" xlink:href="#DejaVuSans-49"/>
       <use transform="translate(63.623047 0.684375)" xlink:href="#DejaVuSans-48"/>
       <use transform="translate(128.203125 38.965625)scale(0.7)" xlink:href="#DejaVuSans-49"/>
      </g>
     </g>
    </g>
    <g id="ytick_4">
     <g id="line2d_74">
      <g>
       <use style="stroke:#000000;stroke-width:0.8;" x="81" xlink:href="#m26c0082eb9" y="61.11"/>
      </g>
     </g>
     <g id="text_9">
      <!-- $\mathdefault{10^{2}}$ -->
      <g transform="translate(56.4 64.909219)scale(0.1 -0.1)">
       <use transform="translate(0 0.765625)" xlink:href="#DejaVuSans-49"/>
       <use transform="translate(63.623047 0.765625)" xlink:href="#DejaVuSans-48"/>
       <use transform="translate(128.203125 39.046875)scale(0.7)" xlink:href="#DejaVuSans-50"/>
      </g>
     </g>
    </g>
    <g id="ytick_5">
     <g id="line2d_75">
      <path clip-path="url(#p2a3fca5dd4)" d="M 81 332.91 
L 583.2 332.91 
" style="fill:none;stroke:#d3d3d3;stroke-dasharray:2.96,1.28;stroke-dashoffset:0;stroke-width:0.8;"/>
     </g>
     <g id="line2d_76">
      <defs>
       <path d="M 0 0 
L -2 0 
" id="m61be3f5b72" style="stroke:#000000;stroke-width:0.6;"/>
      </defs>
      <g>
       <use style="stroke:#000000;stroke-width:0.6;" x="81" xlink:href="#m61be3f5b72" y="332.91"/>
      </g>
     </g>
    </g>
    <g id="ytick_6">
     <g id="line2d_77">
      <path clip-path="url(#p2a3fca5dd4)" d="M 81 319.970829 
L 583.2 319.970829 
" style="fill:none;stroke:#d3d3d3;stroke-dasharray:2.96,1.28;stroke-dashoffset:0;stroke-width:0.8;"/>
     </g>
     <g id="line2d_78">
      <g>
       <use style="stroke:#000000;stroke-width:0.6;" x="81" xlink:href="#m61be3f5b72" y="319.970829"/>
      </g>
     </g>
    </g>
    <g id="ytick_7">
     <g id="line2d_79">
      <path clip-path="url(#p2a3fca5dd4)" d="M 81 310.790342 
L 583.2 310.790342 
" style="fill:none;stroke:#d3d3d3;stroke-dasharray:2.96,1.28;stroke-dashoffset:0;stroke-width:0.8;"/>
     </g>
     <g id="line2d_80">
      <g>
       <use style="stroke:#000000;stroke-width:0.6;" x="81" xlink:href="#m61be3f5b72" y="310.790342"/>
      </g>
     </g>
    </g>
    <g id="ytick_8">
     <g id="line2d_81">
      <path clip-path="url(#p2a3fca5dd4)" d="M 81 303.669402 
L 583.2 303.669402 
" style="fill:none;stroke:#d3d3d3;stroke-dasharray:2.96,1.28;stroke-dashoffset:0;stroke-width:0.8;"/>
     </g>
     <g id="line2d_82">
      <g>
       <use style="stroke:#000000;stroke-width:0.6;" x="81" xlink:href="#m61be3f5b72" y="303.669402"/>
      </g>
     </g>
    </g>
    <g id="ytick_9">
     <g id="line2d_83">
      <path clip-path="url(#p2a3fca5dd4)" d="M 81 297.851171 
L 583.2 297.851171 
" style="fill:none;stroke:#d3d3d3;stroke-dasharray:2.96,1.28;stroke-dashoffset:0;stroke-width:0.8;"/>
     </g>
     <g id="line2d_84">
      <g>
       <use style="stroke:#000000;stroke-width:0.6;" x="81" xlink:href="#m61be3f5b72" y="297.851171"/>
      </g>
     </g>
    </g>
    <g id="ytick_10">
     <g id="line2d_85">
      <path clip-path="url(#p2a3fca5dd4)" d="M 81 292.931927 
L 583.2 292.931927 
" style="fill:none;stroke:#d3d3d3;stroke-dasharray:2.96,1.28;stroke-dashoffset:0;stroke-width:0.8;"/>
     </g>
     <g id="line2d_86">
      <g>
       <use style="stroke:#000000;stroke-width:0.6;" x="81" xlink:href="#m61be3f5b72" y="292.931927"/>
      </g>
     </g>
    </g>
    <g id="ytick_11">
     <g id="line2d_87">
      <path clip-path="url(#p2a3fca5dd4)" d="M 81 288.670683 
L 583.2 288.670683 
" style="fill:none;stroke:#d3d3d3;stroke-dasharray:2.96,1.28;stroke-dashoffset:0;stroke-width:0.8;"/>
     </g>
     <g id="line2d_88">
      <g>
       <use style="stroke:#000000;stroke-width:0.6;" x="81" xlink:href="#m61be3f5b72" y="288.670683"/>
      </g>
     </g>
    </g>
    <g id="ytick_12">
     <g id="line2d_89">
      <path clip-path="url(#p2a3fca5dd4)" d="M 81 284.912 
L 583.2 284.912 
" style="fill:none;stroke:#d3d3d3;stroke-dasharray:2.96,1.28;stroke-dashoffset:0;stroke-width:0.8;"/>
     </g>
     <g id="line2d_90">
      <g>
       <use style="stroke:#000000;stroke-width:0.6;" x="81" xlink:href="#m61be3f5b72" y="284.912"/>
      </g>
     </g>
    </g>
    <g id="ytick_13">
     <g id="line2d_91">
      <path clip-path="url(#p2a3fca5dd4)" d="M 81 259.430085 
L 583.2 259.430085 
" style="fill:none;stroke:#d3d3d3;stroke-dasharray:2.96,1.28;stroke-dashoffset:0;stroke-width:0.8;"/>
     </g>
     <g id="line2d_92">
      <g>
       <use style="stroke:#000000;stroke-width:0.6;" x="81" xlink:href="#m61be3f5b72" y="259.430085"/>
      </g>
     </g>
    </g>
    <g id="ytick_14">
     <g id="line2d_93">
      <path clip-path="url(#p2a3fca5dd4)" d="M 81 246.490915 
L 583.2 246.490915 
" style="fill:none;stroke:#d3d3d3;stroke-dasharray:2.96,1.28;stroke-dashoffset:0;stroke-width:0.8;"/>
     </g>
     <g id="line2d_94">
      <g>
       <use style="stroke:#000000;stroke-width:0.6;" x="81" xlink:href="#m61be3f5b72" y="246.490915"/>
      </g>
     </g>
    </g>
    <g id="ytick_15">
     <g id="line2d_95">
      <path clip-path="url(#p2a3fca5dd4)" d="M 81 237.310427 
L 583.2 237.310427 
" style="fill:none;stroke:#d3d3d3;stroke-dasharray:2.96,1.28;stroke-dashoffset:0;stroke-width:0.8;"/>
     </g>
     <g id="line2d_96">
      <g>
       <use style="stroke:#000000;stroke-width:0.6;" x="81" xlink:href="#m61be3f5b72" y="237.310427"/>
      </g>
     </g>
    </g>
    <g id="ytick_16">
     <g id="line2d_97">
      <path clip-path="url(#p2a3fca5dd4)" d="M 81 230.189488 
L 583.2 230.189488 
" style="fill:none;stroke:#d3d3d3;stroke-dasharray:2.96,1.28;stroke-dashoffset:0;stroke-width:0.8;"/>
     </g>
     <g id="line2d_98">
      <g>
       <use style="stroke:#000000;stroke-width:0.6;" x="81" xlink:href="#m61be3f5b72" y="230.189488"/>
      </g>
     </g>
    </g>
    <g id="ytick_17">
     <g id="line2d_99">
      <path clip-path="url(#p2a3fca5dd4)" d="M 81 224.371256 
L 583.2 224.371256 
" style="fill:none;stroke:#d3d3d3;stroke-dasharray:2.96,1.28;stroke-dashoffset:0;stroke-width:0.8;"/>
     </g>
     <g id="line2d_100">
      <g>
       <use style="stroke:#000000;stroke-width:0.6;" x="81" xlink:href="#m61be3f5b72" y="224.371256"/>
      </g>
     </g>
    </g>
    <g id="ytick_18">
     <g id="line2d_101">
      <path clip-path="url(#p2a3fca5dd4)" d="M 81 219.452012 
L 583.2 219.452012 
" style="fill:none;stroke:#d3d3d3;stroke-dasharray:2.96,1.28;stroke-dashoffset:0;stroke-width:0.8;"/>
     </g>
     <g id="line2d_102">
      <g>
       <use style="stroke:#000000;stroke-width:0.6;" x="81" xlink:href="#m61be3f5b72" y="219.452012"/>
      </g>
     </g>
    </g>
    <g id="ytick_19">
     <g id="line2d_103">
      <path clip-path="url(#p2a3fca5dd4)" d="M 81 215.190769 
L 583.2 215.190769 
" style="fill:none;stroke:#d3d3d3;stroke-dasharray:2.96,1.28;stroke-dashoffset:0;stroke-width:0.8;"/>
     </g>
     <g id="line2d_104">
      <g>
       <use style="stroke:#000000;stroke-width:0.6;" x="81" xlink:href="#m61be3f5b72" y="215.190769"/>
      </g>
     </g>
    </g>
    <g id="ytick_20">
     <g id="line2d_105">
      <path clip-path="url(#p2a3fca5dd4)" d="M 81 211.432086 
L 583.2 211.432086 
" style="fill:none;stroke:#d3d3d3;stroke-dasharray:2.96,1.28;stroke-dashoffset:0;stroke-width:0.8;"/>
     </g>
     <g id="line2d_106">
      <g>
       <use style="stroke:#000000;stroke-width:0.6;" x="81" xlink:href="#m61be3f5b72" y="211.432086"/>
      </g>
     </g>
    </g>
    <g id="ytick_21">
     <g id="line2d_107">
      <path clip-path="url(#p2a3fca5dd4)" d="M 81 185.950171 
L 583.2 185.950171 
" style="fill:none;stroke:#d3d3d3;stroke-dasharray:2.96,1.28;stroke-dashoffset:0;stroke-width:0.8;"/>
     </g>
     <g id="line2d_108">
      <g>
       <use style="stroke:#000000;stroke-width:0.6;" x="81" xlink:href="#m61be3f5b72" y="185.950171"/>
      </g>
     </g>
    </g>
    <g id="ytick_22">
     <g id="line2d_109">
      <path clip-path="url(#p2a3fca5dd4)" d="M 81 173.011 
L 583.2 173.011 
" style="fill:none;stroke:#d3d3d3;stroke-dasharray:2.96,1.28;stroke-dashoffset:0;stroke-width:0.8;"/>
     </g>
     <g id="line2d_110">
      <g>
       <use style="stroke:#000000;stroke-width:0.6;" x="81" xlink:href="#m61be3f5b72" y="173.011"/>
      </g>
     </g>
    </g>
    <g id="ytick_23">
     <g id="line2d_111">
      <path clip-path="url(#p2a3fca5dd4)" d="M 81 163.830512 
L 583.2 163.830512 
" style="fill:none;stroke:#d3d3d3;stroke-dasharray:2.96,1.28;stroke-dashoffset:0;stroke-width:0.8;"/>
     </g>
     <g id="line2d_112">
      <g>
       <use style="stroke:#000000;stroke-width:0.6;" x="81" xlink:href="#m61be3f5b72" y="163.830512"/>
      </g>
     </g>
    </g>
    <g id="ytick_24">
     <g id="line2d_113">
      <path clip-path="url(#p2a3fca5dd4)" d="M 81 156.709573 
L 583.2 156.709573 
" style="fill:none;stroke:#d3d3d3;stroke-dasharray:2.96,1.28;stroke-dashoffset:0;stroke-width:0.8;"/>
     </g>
     <g id="line2d_114">
      <g>
       <use style="stroke:#000000;stroke-width:0.6;" x="81" xlink:href="#m61be3f5b72" y="156.709573"/>
      </g>
     </g>
    </g>
    <g id="ytick_25">
     <g id="line2d_115">
      <path clip-path="url(#p2a3fca5dd4)" d="M 81 150.891342 
L 583.2 150.891342 
" style="fill:none;stroke:#d3d3d3;stroke-dasharray:2.96,1.28;stroke-dashoffset:0;stroke-width:0.8;"/>
     </g>
     <g id="line2d_116">
      <g>
       <use style="stroke:#000000;stroke-width:0.6;" x="81" xlink:href="#m61be3f5b72" y="150.891342"/>
      </g>
     </g>
    </g>
    <g id="ytick_26">
     <g id="line2d_117">
      <path clip-path="url(#p2a3fca5dd4)" d="M 81 145.972097 
L 583.2 145.972097 
" style="fill:none;stroke:#d3d3d3;stroke-dasharray:2.96,1.28;stroke-dashoffset:0;stroke-width:0.8;"/>
     </g>
     <g id="line2d_118">
      <g>
       <use style="stroke:#000000;stroke-width:0.6;" x="81" xlink:href="#m61be3f5b72" y="145.972097"/>
      </g>
     </g>
    </g>
    <g id="ytick_27">
     <g id="line2d_119">
      <path clip-path="url(#p2a3fca5dd4)" d="M 81 141.710854 
L 583.2 141.710854 
" style="fill:none;stroke:#d3d3d3;stroke-dasharray:2.96,1.28;stroke-dashoffset:0;stroke-width:0.8;"/>
     </g>
     <g id="line2d_120">
      <g>
       <use style="stroke:#000000;stroke-width:0.6;" x="81" xlink:href="#m61be3f5b72" y="141.710854"/>
      </g>
     </g>
    </g>
    <g id="ytick_28">
     <g id="line2d_121">
      <path clip-path="url(#p2a3fca5dd4)" d="M 81 137.952171 
L 583.2 137.952171 
" style="fill:none;stroke:#d3d3d3;stroke-dasharray:2.96,1.28;stroke-dashoffset:0;stroke-width:0.8;"/>
     </g>
     <g id="line2d_122">
      <g>
       <use style="stroke:#000000;stroke-width:0.6;" x="81" xlink:href="#m61be3f5b72" y="137.952171"/>
      </g>
     </g>
    </g>
    <g id="ytick_29">
     <g id="line2d_123">
      <path clip-path="url(#p2a3fca5dd4)" d="M 81 112.470256 
L 583.2 112.470256 
" style="fill:none;stroke:#d3d3d3;stroke-dasharray:2.96,1.28;stroke-dashoffset:0;stroke-width:0.8;"/>
     </g>
     <g id="line2d_124">
      <g>
       <use style="stroke:#000000;stroke-width:0.6;" x="81" xlink:href="#m61be3f5b72" y="112.470256"/>
      </g>
     </g>
    </g>
    <g id="ytick_30">
     <g id="line2d_125">
      <path clip-path="url(#p2a3fca5dd4)" d="M 81 99.531086 
L 583.2 99.531086 
" style="fill:none;stroke:#d3d3d3;stroke-dasharray:2.96,1.28;stroke-dashoffset:0;stroke-width:0.8;"/>
     </g>
     <g id="line2d_126">
      <g>
       <use style="stroke:#000000;stroke-width:0.6;" x="81" xlink:href="#m61be3f5b72" y="99.531086"/>
      </g>
     </g>
    </g>
    <g id="ytick_31">
     <g id="line2d_127">
      <path clip-path="url(#p2a3fca5dd4)" d="M 81 90.350598 
L 583.2 90.350598 
" style="fill:none;stroke:#d3d3d3;stroke-dasharray:2.96,1.28;stroke-dashoffset:0;stroke-width:0.8;"/>
     </g>
     <g id="line2d_128">
      <g>
       <use style="stroke:#000000;stroke-width:0.6;" x="81" xlink:href="#m61be3f5b72" y="90.350598"/>
      </g>
     </g>
    </g>
    <g id="ytick_32">
     <g id="line2d_129">
      <path clip-path="url(#p2a3fca5dd4)" d="M 81 83.229658 
L 583.2 83.229658 
" style="fill:none;stroke:#d3d3d3;stroke-dasharray:2.96,1.28;stroke-dashoffset:0;stroke-width:0.8;"/>
     </g>
     <g id="line2d_130">
      <g>
       <use style="stroke:#000000;stroke-width:0.6;" x="81" xlink:href="#m61be3f5b72" y="83.229658"/>
      </g>
     </g>
    </g>
    <g id="ytick_33">
     <g id="line2d_131">
      <path clip-path="url(#p2a3fca5dd4)" d="M 81 77.411427 
L 583.2 77.411427 
" style="fill:none;stroke:#d3d3d3;stroke-dasharray:2.96,1.28;stroke-dashoffset:0;stroke-width:0.8;"/>
     </g>
     <g id="line2d_132">
      <g>
       <use style="stroke:#000000;stroke-width:0.6;" x="81" xlink:href="#m61be3f5b72" y="77.411427"/>
      </g>
     </g>
    </g>
    <g id="ytick_34">
     <g id="line2d_133">
      <path clip-path="url(#p2a3fca5dd4)" d="M 81 72.492183 
L 583.2 72.492183 
" style="fill:none;stroke:#d3d3d3;stroke-dasharray:2.96,1.28;stroke-dashoffset:0;stroke-width:0.8;"/>
     </g>
     <g id="line2d_134">
      <g>
       <use style="stroke:#000000;stroke-width:0.6;" x="81" xlink:href="#m61be3f5b72" y="72.492183"/>
      </g>
     </g>
    </g>
    <g id="ytick_35">
     <g id="line2d_135">
      <path clip-path="url(#p2a3fca5dd4)" d="M 81 68.230939 
L 583.2 68.230939 
" style="fill:none;stroke:#d3d3d3;stroke-dasharray:2.96,1.28;stroke-dashoffset:0;stroke-width:0.8;"/>
     </g>
     <g id="line2d_136">
      <g>
       <use style="stroke:#000000;stroke-width:0.6;" x="81" xlink:href="#m61be3f5b72" y="68.230939"/>
      </g>
     </g>
    </g>
    <g id="ytick_36">
     <g id="line2d_137">
      <path clip-path="url(#p2a3fca5dd4)" d="M 81 64.472256 
L 583.2 64.472256 
" style="fill:none;stroke:#d3d3d3;stroke-dasharray:2.96,1.28;stroke-dashoffset:0;stroke-width:0.8;"/>
     </g>
     <g id="line2d_138">
      <g>
       <use style="stroke:#000000;stroke-width:0.6;" x="81" xlink:href="#m61be3f5b72" y="64.472256"/>
      </g>
     </g>
    </g>
    <g id="text_10">
     <!-- Rs/Ro -->
     <defs>
      <path d="M 44.390625 34.1875 
Q 47.5625 33.109375 50.5625 29.59375 
Q 53.5625 26.078125 56.59375 19.921875 
L 66.609375 0 
L 56 0 
L 46.6875 18.703125 
Q 43.0625 26.03125 39.671875 28.421875 
Q 36.28125 30.8125 30.421875 30.8125 
L 19.671875 30.8125 
L 19.671875 0 
L 9.8125 0 
L 9.8125 72.90625 
L 32.078125 72.90625 
Q 44.578125 72.90625 50.734375 67.671875 
Q 56.890625 62.453125 56.890625 51.90625 
Q 56.890625 45.015625 53.6875 40.46875 
Q 50.484375 35.9375 44.390625 34.1875 
z
M 19.671875 64.796875 
L 19.671875 38.921875 
L 32.078125 38.921875 
Q 39.203125 38.921875 42.84375 42.21875 
Q 46.484375 45.515625 46.484375 51.90625 
Q 46.484375 58.296875 42.84375 61.546875 
Q 39.203125 64.796875 32.078125 64.796875 
z
" id="DejaVuSans-82"/>
      <path d="M 44.28125 53.078125 
L 44.28125 44.578125 
Q 40.484375 46.53125 36.375 47.5 
Q 32.28125 48.484375 27.875 48.484375 
Q 21.1875 48.484375 17.84375 46.4375 
Q 14.5 44.390625 14.5 40.28125 
Q 14.5 37.15625 16.890625 35.375 
Q 19.28125 33.59375 26.515625 31.984375 
L 29.59375 31.296875 
Q 39.15625 29.25 43.1875 25.515625 
Q 47.21875 21.78125 47.21875 15.09375 
Q 47.21875 7.46875 41.1875 3.015625 
Q 35.15625 -1.421875 24.609375 -1.421875 
Q 20.21875 -1.421875 15.453125 -0.5625 
Q 10.6875 0.296875 5.421875 2 
L 5.421875 11.28125 
Q 10.40625 8.6875 15.234375 7.390625 
Q 20.0625 6.109375 24.8125 6.109375 
Q 31.15625 6.109375 34.5625 8.28125 
Q 37.984375 10.453125 37.984375 14.40625 
Q 37.984375 18.0625 35.515625 20.015625 
Q 33.0625 21.96875 24.703125 23.78125 
L 21.578125 24.515625 
Q 13.234375 26.265625 9.515625 29.90625 
Q 5.8125 33.546875 5.8125 39.890625 
Q 5.8125 47.609375 11.28125 51.796875 
Q 16.75 56 26.8125 56 
Q 31.78125 56 36.171875 55.265625 
Q 40.578125 54.546875 44.28125 53.078125 
z
" id="DejaVuSans-115"/>
      <path d="M 25.390625 72.90625 
L 33.6875 72.90625 
L 8.296875 -9.28125 
L 0 -9.28125 
z
" id="DejaVuSans-47"/>
     </defs>
     <g transform="translate(44.420313 211.30375)rotate(-90)scale(0.1 -0.1)">
      <use xlink:href="#DejaVuSans-82"/>
      <use x="69.482422" xlink:href="#DejaVuSans-115"/>
      <use x="121.582031" xlink:href="#DejaVuSans-47"/>
      <use x="155.273438" xlink:href="#DejaVuSans-82"/>
      <use x="224.693359" xlink:href="#DejaVuSans-111"/>
     </g>
    </g>
   </g>
   <g id="line2d_139">
    <path clip-path="url(#p2a3fca5dd4)" d="M 455.104786 332.91 
L 455.045398 319.970829 
L 454.985943 310.790342 
L 454.926423 303.669402 
L 454.866836 297.851171 
L 454.807182 292.931927 
L 454.747462 288.670683 
L 454.687674 284.912 
L 454.62782 281.549744 
L 454.025556 259.430085 
L 453.416419 246.490915 
L 452.800249 237.310427 
L 452.176884 230.189488 
L 451.546152 224.371256 
L 450.907877 219.452012 
L 450.261877 215.190769 
L 449.607963 211.432086 
L 448.945937 208.069829 
L 441.830578 185.950171 
L 433.618616 173.011 
L 423.909353 163.830512 
L 412.032267 156.709573 
L 396.732514 150.891342 
L 375.201173 145.972097 
L 338.534084 141.710854 
L 103.827273 137.952171 
L -1 137.949305 
" style="fill:none;stroke:#1f77b4;stroke-linecap:square;"/>
    <defs>
     <path d="M 0 3 
C 0.795609 3 1.55874 2.683901 2.12132 2.12132 
C 2.683901 1.55874 3 0.795609 3 0 
C 3 -0.795609 2.683901 -1.55874 2.12132 -2.12132 
C 1.55874 -2.683901 0.795609 -3 0 -3 
C -0.795609 -3 -1.55874 -2.683901 -2.12132 -2.12132 
C -2.683901 -1.55874 -3 -0.795609 -3 0 
C -3 0.795609 -2.683901 1.55874 -2.12132 2.12132 
C -1.55874 2.683901 -0.795609 3 0 3 
z
" id="m062f6fb103" style="stroke:#1f77b4;"/>
    </defs>
    <g clip-path="url(#p2a3fca5dd4)">
     <use style="fill:#1f77b4;stroke:#1f77b4;" x="455.104786" xlink:href="#m062f6fb103" y="332.91"/>
     <use style="fill:#1f77b4;stroke:#1f77b4;" x="455.045398" xlink:href="#m062f6fb103" y="319.970829"/>
     <use style="fill:#1f77b4;stroke:#1f77b4;" x="454.985943" xlink:href="#m062f6fb103" y="310.790342"/>
     <use style="fill:#1f77b4;stroke:#1f77b4;" x="454.926423" xlink:href="#m062f6fb103" y="303.669402"/>
     <use style="fill:#1f77b4;stroke:#1f77b4;" x="454.866836" xlink:href="#m062f6fb103" y="297.851171"/>
     <use style="fill:#1f77b4;stroke:#1f77b4;" x="454.807182" xlink:href="#m062f6fb103" y="292.931927"/>
     <use style="fill:#1f77b4;stroke:#1f77b4;" x="454.747462" xlink:href="#m062f6fb103" y="288.670683"/>
     <use style="fill:#1f77b4;stroke:#1f77b4;" x="454.687674" xlink:href="#m062f6fb103" y="284.912"/>
     <use style="fill:#1f77b4;stroke:#1f77b4;" x="454.62782" xlink:href="#m062f6fb103" y="281.549744"/>
     <use style="fill:#1f77b4;stroke:#1f77b4;" x="454.025556" xlink:href="#m062f6fb103" y="259.430085"/>
     <use style="fill:#1f77b4;stroke:#1f77b4;" x="453.416419" xlink:href="#m062f6fb103" y="246.490915"/>
     <use style="fill:#1f77b4;stroke:#1f77b4;" x="452.800249" xlink:href="#m062f6fb103" y="237.310427"/>
     <use style="fill:#1f77b4;stroke:#1f77b4;" x="452.176884" xlink:href="#m062f6fb103" y="230.189488"/>
     <use style="fill:#1f77b4;stroke:#1f77b4;" x="451.546152" xlink:href="#m062f6fb103" y="224.371256"/>
     <use style="fill:#1f77b4;stroke:#1f77b4;" x="450.907877" xlink:href="#m062f6fb103" y="219.452012"/>
     <use style="fill:#1f77b4;stroke:#1f77b4;" x="450.261877" xlink:href="#m062f6fb103" y="215.190769"/>
     <use style="fill:#1f77b4;stroke:#1f77b4;" x="449.607963" xlink:href="#m062f6fb103" y="211.432086"/>
     <use style="fill:#1f77b4;stroke:#1f77b4;" x="448.945937" xlink:href="#m062f6fb103" y="208.069829"/>
     <use style="fill:#1f77b4;stroke:#1f77b4;" x="441.830578" xlink:href="#m062f6fb103" y="185.950171"/>
     <use style="fill:#1f77b4;stroke:#1f77b4;" x="433.618616" xlink:href="#m062f6fb103" y="173.011"/>
     <use style="fill:#1f77b4;stroke:#1f77b4;" x="423.909353" xlink:href="#m062f6fb103" y="163.830512"/>
     <use style="fill:#1f77b4;stroke:#1f77b4;" x="412.032267" xlink:href="#m062f6fb103" y="156.709573"/>
     <use style="fill:#1f77b4;stroke:#1f77b4;" x="396.732514" xlink:href="#m062f6fb103" y="150.891342"/>
     <use style="fill:#1f77b4;stroke:#1f77b4;" x="375.201173" xlink:href="#m062f6fb103" y="145.972097"/>
     <use style="fill:#1f77b4;stroke:#1f77b4;" x="338.534084" xlink:href="#m062f6fb103" y="141.710854"/>
     <use style="fill:#1f77b4;stroke:#1f77b4;" x="103.827273" xlink:href="#m062f6fb103" y="137.952171"/>
     <use style="fill:#1f77b4;stroke:#1f77b4;" x="-1" xlink:href="#m062f6fb103" y="137.949305"/>
    </g>
   </g>
   <g id="line2d_140">
    <path clip-path="url(#p2a3fca5dd4)" d="M 428.475243 332.91 
L 428.459219 319.970829 
L 428.44319 310.790342 
L 428.427156 303.669402 
L 428.411118 297.851171 
L 428.395074 292.931927 
L 428.379026 288.670683 
L 428.362973 284.912 
L 428.346915 281.549744 
L 428.186069 259.430085 
L 428.024737 246.490915 
L 427.862916 237.310427 
L 427.700603 230.189488 
L 427.537794 224.371256 
L 427.374488 219.452012 
L 427.21068 215.190769 
L 427.046368 211.432086 
L 426.881549 208.069829 
L 425.204743 185.950171 
L 423.473546 173.011 
L 421.684311 163.830512 
L 419.83301 156.709573 
L 417.915182 150.891342 
L 415.925868 145.972097 
L 413.859531 141.710854 
L 411.709966 137.952171 
L 409.470185 134.589915 
L 379.601725 112.470256 
L 305.615134 99.531086 
L -1 99.508234 
" style="fill:none;stroke:#ff7f0e;stroke-linecap:square;"/>
    <defs>
     <path d="M 0 3 
C 0.795609 3 1.55874 2.683901 2.12132 2.12132 
C 2.683901 1.55874 3 0.795609 3 0 
C 3 -0.795609 2.683901 -1.55874 2.12132 -2.12132 
C 1.55874 -2.683901 0.795609 -3 0 -3 
C -0.795609 -3 -1.55874 -2.683901 -2.12132 -2.12132 
C -2.683901 -1.55874 -3 -0.795609 -3 0 
C -3 0.795609 -2.683901 1.55874 -2.12132 2.12132 
C -1.55874 2.683901 -0.795609 3 0 3 
z
" id="m110010e1e2" style="stroke:#ff7f0e;"/>
    </defs>
    <g clip-path="url(#p2a3fca5dd4)">
     <use style="fill:#ff7f0e;stroke:#ff7f0e;" x="428.475243" xlink:href="#m110010e1e2" y="332.91"/>
     <use style="fill:#ff7f0e;stroke:#ff7f0e;" x="428.459219" xlink:href="#m110010e1e2" y="319.970829"/>
     <use style="fill:#ff7f0e;stroke:#ff7f0e;" x="428.44319" xlink:href="#m110010e1e2" y="310.790342"/>
     <use style="fill:#ff7f0e;stroke:#ff7f0e;" x="428.427156" xlink:href="#m110010e1e2" y="303.669402"/>
     <use style="fill:#ff7f0e;stroke:#ff7f0e;" x="428.411118" xlink:href="#m110010e1e2" y="297.851171"/>
     <use style="fill:#ff7f0e;stroke:#ff7f0e;" x="428.395074" xlink:href="#m110010e1e2" y="292.931927"/>
     <use style="fill:#ff7f0e;stroke:#ff7f0e;" x="428.379026" xlink:href="#m110010e1e2" y="288.670683"/>
     <use style="fill:#ff7f0e;stroke:#ff7f0e;" x="428.362973" xlink:href="#m110010e1e2" y="284.912"/>
     <use style="fill:#ff7f0e;stroke:#ff7f0e;" x="428.346915" xlink:href="#m110010e1e2" y="281.549744"/>
     <use style="fill:#ff7f0e;stroke:#ff7f0e;" x="428.186069" xlink:href="#m110010e1e2" y="259.430085"/>
     <use style="fill:#ff7f0e;stroke:#ff7f0e;" x="428.024737" xlink:href="#m110010e1e2" y="246.490915"/>
     <use style="fill:#ff7f0e;stroke:#ff7f0e;" x="427.862916" xlink:href="#m110010e1e2" y="237.310427"/>
     <use style="fill:#ff7f0e;stroke:#ff7f0e;" x="427.700603" xlink:href="#m110010e1e2" y="230.189488"/>
     <use style="fill:#ff7f0e;stroke:#ff7f0e;" x="427.537794" xlink:href="#m110010e1e2" y="224.371256"/>
     <use style="fill:#ff7f0e;stroke:#ff7f0e;" x="427.374488" xlink:href="#m110010e1e2" y="219.452012"/>
     <use style="fill:#ff7f0e;stroke:#ff7f0e;" x="427.21068" xlink:href="#m110010e1e2" y="215.190769"/>
     <use style="fill:#ff7f0e;stroke:#ff7f0e;" x="427.046368" xlink:href="#m110010e1e2" y="211.432086"/>
     <use style="fill:#ff7f0e;stroke:#ff7f0e;" x="426.881549" xlink:href="#m110010e1e2" y="208.069829"/>
     <use style="fill:#ff7f0e;stroke:#ff7f0e;" x="425.204743" xlink:href="#m110010e1e2" y="185.950171"/>
     <use style="fill:#ff7f0e;stroke:#ff7f0e;" x="423.473546" xlink:href="#m110010e1e2" y="173.011"/>
     <use style="fill:#ff7f0e;stroke:#ff7f0e;" x="421.684311" xlink:href="#m110010e1e2" y="163.830512"/>
     <use style="fill:#ff7f0e;stroke:#ff7f0e;" x="419.83301" xlink:href="#m110010e1e2" y="156.709573"/>
     <use style="fill:#ff7f0e;stroke:#ff7f0e;" x="417.915182" xlink:href="#m110010e1e2" y="150.891342"/>
     <use style="fill:#ff7f0e;stroke:#ff7f0e;" x="415.925868" xlink:href="#m110010e1e2" y="145.972097"/>
     <use style="fill:#ff7f0e;stroke:#ff7f0e;" x="413.859531" xlink:href="#m110010e1e2" y="141.710854"/>
     <use style="fill:#ff7f0e;stroke:#ff7f0e;" x="411.709966" xlink:href="#m110010e1e2" y="137.952171"/>
     <use style="fill:#ff7f0e;stroke:#ff7f0e;" x="409.470185" xlink:href="#m110010e1e2" y="134.589915"/>
     <use style="fill:#ff7f0e;stroke:#ff7f0e;" x="379.601725" xlink:href="#m110010e1e2" y="112.470256"/>
     <use style="fill:#ff7f0e;stroke:#ff7f0e;" x="305.615134" xlink:href="#m110010e1e2" y="99.531086"/>
     <use style="fill:#ff7f0e;stroke:#ff7f0e;" x="-1" xlink:href="#m110010e1e2" y="99.508234"/>
    </g>
   </g>
   <g id="line2d_141">
    <path clip-path="url(#p2a3fca5dd4)" d="M 560.372727 332.91 
L 560.361671 319.970829 
L 560.350612 310.790342 
L 560.339551 303.669402 
L 560.328487 297.851171 
L 560.317422 292.931927 
L 560.306353 288.670683 
L 560.295283 284.912 
L 560.284211 281.549744 
L 560.173358 259.430085 
L 560.062274 246.490915 
L 559.950959 237.310427 
L 559.839411 230.189488 
L 559.72763 224.371256 
L 559.615614 219.452012 
L 559.503363 215.190769 
L 559.390874 211.432086 
L 559.278149 208.069829 
L 558.137601 185.950171 
L 556.972148 173.011 
L 555.780678 163.830512 
L 554.562003 156.709573 
L 553.314851 150.891342 
L 552.03786 145.972097 
L 550.729566 141.710854 
L 549.388397 137.952171 
L 548.012656 134.589915 
L 531.861738 112.470256 
L 508.591721 99.531086 
L 466.388827 90.350598 
L -1 90.323614 
" style="fill:none;stroke:#2ca02c;stroke-linecap:square;"/>
    <defs>
     <path d="M 0 3 
C 0.795609 3 1.55874 2.683901 2.12132 2.12132 
C 2.683901 1.55874 3 0.795609 3 0 
C 3 -0.795609 2.683901 -1.55874 2.12132 -2.12132 
C 1.55874 -2.683901 0.795609 -3 0 -3 
C -0.795609 -3 -1.55874 -2.683901 -2.12132 -2.12132 
C -2.683901 -1.55874 -3 -0.795609 -3 0 
C -3 0.795609 -2.683901 1.55874 -2.12132 2.12132 
C -1.55874 2.683901 -0.795609 3 0 3 
z
" id="mdc1b58adfa" style="stroke:#2ca02c;"/>
    </defs>
    <g clip-path="url(#p2a3fca5dd4)">
     <use style="fill:#2ca02c;stroke:#2ca02c;" x="560.372727" xlink:href="#mdc1b58adfa" y="332.91"/>
     <use style="fill:#2ca02c;stroke:#2ca02c;" x="560.361671" xlink:href="#mdc1b58adfa" y="319.970829"/>
     <use style="fill:#2ca02c;stroke:#2ca02c;" x="560.350612" xlink:href="#mdc1b58adfa" y="310.790342"/>
     <use style="fill:#2ca02c;stroke:#2ca02c;" x="560.339551" xlink:href="#mdc1b58adfa" y="303.669402"/>
     <use style="fill:#2ca02c;stroke:#2ca02c;" x="560.328487" xlink:href="#mdc1b58adfa" y="297.851171"/>
     <use style="fill:#2ca02c;stroke:#2ca02c;" x="560.317422" xlink:href="#mdc1b58adfa" y="292.931927"/>
     <use style="fill:#2ca02c;stroke:#2ca02c;" x="560.306353" xlink:href="#mdc1b58adfa" y="288.670683"/>
     <use style="fill:#2ca02c;stroke:#2ca02c;" x="560.295283" xlink:href="#mdc1b58adfa" y="284.912"/>
     <use style="fill:#2ca02c;stroke:#2ca02c;" x="560.284211" xlink:href="#mdc1b58adfa" y="281.549744"/>
     <use style="fill:#2ca02c;stroke:#2ca02c;" x="560.173358" xlink:href="#mdc1b58adfa" y="259.430085"/>
     <use style="fill:#2ca02c;stroke:#2ca02c;" x="560.062274" xlink:href="#mdc1b58adfa" y="246.490915"/>
     <use style="fill:#2ca02c;stroke:#2ca02c;" x="559.950959" xlink:href="#mdc1b58adfa" y="237.310427"/>
     <use style="fill:#2ca02c;stroke:#2ca02c;" x="559.839411" xlink:href="#mdc1b58adfa" y="230.189488"/>
     <use style="fill:#2ca02c;stroke:#2ca02c;" x="559.72763" xlink:href="#mdc1b58adfa" y="224.371256"/>
     <use style="fill:#2ca02c;stroke:#2ca02c;" x="559.615614" xlink:href="#mdc1b58adfa" y="219.452012"/>
     <use style="fill:#2ca02c;stroke:#2ca02c;" x="559.503363" xlink:href="#mdc1b58adfa" y="215.190769"/>
     <use style="fill:#2ca02c;stroke:#2ca02c;" x="559.390874" xlink:href="#mdc1b58adfa" y="211.432086"/>
     <use style="fill:#2ca02c;stroke:#2ca02c;" x="559.278149" xlink:href="#mdc1b58adfa" y="208.069829"/>
     <use style="fill:#2ca02c;stroke:#2ca02c;" x="558.137601" xlink:href="#mdc1b58adfa" y="185.950171"/>
     <use style="fill:#2ca02c;stroke:#2ca02c;" x="556.972148" xlink:href="#mdc1b58adfa" y="173.011"/>
     <use style="fill:#2ca02c;stroke:#2ca02c;" x="555.780678" xlink:href="#mdc1b58adfa" y="163.830512"/>
     <use style="fill:#2ca02c;stroke:#2ca02c;" x="554.562003" xlink:href="#mdc1b58adfa" y="156.709573"/>
     <use style="fill:#2ca02c;stroke:#2ca02c;" x="553.314851" xlink:href="#mdc1b58adfa" y="150.891342"/>
     <use style="fill:#2ca02c;stroke:#2ca02c;" x="552.03786" xlink:href="#mdc1b58adfa" y="145.972097"/>
     <use style="fill:#2ca02c;stroke:#2ca02c;" x="550.729566" xlink:href="#mdc1b58adfa" y="141.710854"/>
     <use style="fill:#2ca02c;stroke:#2ca02c;" x="549.388397" xlink:href="#mdc1b58adfa" y="137.952171"/>
     <use style="fill:#2ca02c;stroke:#2ca02c;" x="548.012656" xlink:href="#mdc1b58adfa" y="134.589915"/>
     <use style="fill:#2ca02c;stroke:#2ca02c;" x="531.861738" xlink:href="#mdc1b58adfa" y="112.470256"/>
     <use style="fill:#2ca02c;stroke:#2ca02c;" x="508.591721" xlink:href="#mdc1b58adfa" y="99.531086"/>
     <use style="fill:#2ca02c;stroke:#2ca02c;" x="466.388827" xlink:href="#mdc1b58adfa" y="90.350598"/>
     <use style="fill:#2ca02c;stroke:#2ca02c;" x="-1" xlink:href="#mdc1b58adfa" y="90.323614"/>
    </g>
   </g>
   <g id="line2d_142">
    <path clip-path="url(#p2a3fca5dd4)" d="M 552.451267 332.91 
L 552.443415 319.970829 
L 552.435562 310.790342 
L 552.427708 303.669402 
L 552.419852 297.851171 
L 552.411995 292.931927 
L 552.404137 288.670683 
L 552.396278 284.912 
L 552.388418 281.549744 
L 552.309752 259.430085 
L 552.23097 246.490915 
L 552.152072 237.310427 
L 552.073056 230.189488 
L 551.993924 224.371256 
L 551.914674 219.452012 
L 551.835306 215.190769 
L 551.75582 211.432086 
L 551.676216 208.069829 
L 550.873571 185.950171 
L 550.058673 173.011 
L 549.231139 163.830512 
L 548.390573 156.709573 
L 547.536558 150.891342 
L 546.668655 145.972097 
L 545.786407 141.710854 
L 544.88933 137.952171 
L 543.976917 134.589915 
L 533.876159 112.470256 
L 521.407009 99.531086 
L 505.107323 90.350598 
L 481.524596 83.229658 
L 438.241428 77.411427 
L -1 77.393905 
" style="fill:none;stroke:#d62728;stroke-linecap:square;"/>
    <defs>
     <path d="M 0 3 
C 0.795609 3 1.55874 2.683901 2.12132 2.12132 
C 2.683901 1.55874 3 0.795609 3 0 
C 3 -0.795609 2.683901 -1.55874 2.12132 -2.12132 
C 1.55874 -2.683901 0.795609 -3 0 -3 
C -0.795609 -3 -1.55874 -2.683901 -2.12132 -2.12132 
C -2.683901 -1.55874 -3 -0.795609 -3 0 
C -3 0.795609 -2.683901 1.55874 -2.12132 2.12132 
C -1.55874 2.683901 -0.795609 3 0 3 
z
" id="m3956ddb726" style="stroke:#d62728;"/>
    </defs>
    <g clip-path="url(#p2a3fca5dd4)">
     <use style="fill:#d62728;stroke:#d62728;" x="552.451267" xlink:href="#m3956ddb726" y="332.91"/>
     <use style="fill:#d62728;stroke:#d62728;" x="552.443415" xlink:href="#m3956ddb726" y="319.970829"/>
     <use style="fill:#d62728;stroke:#d62728;" x="552.435562" xlink:href="#m3956ddb726" y="310.790342"/>
     <use style="fill:#d62728;stroke:#d62728;" x="552.427708" xlink:href="#m3956ddb726" y="303.669402"/>
     <use style="fill:#d62728;stroke:#d62728;" x="552.419852" xlink:href="#m3956ddb726" y="297.851171"/>
     <use style="fill:#d62728;stroke:#d62728;" x="552.411995" xlink:href="#m3956ddb726" y="292.931927"/>
     <use style="fill:#d62728;stroke:#d62728;" x="552.404137" xlink:href="#m3956ddb726" y="288.670683"/>
     <use style="fill:#d62728;stroke:#d62728;" x="552.396278" xlink:href="#m3956ddb726" y="284.912"/>
     <use style="fill:#d62728;stroke:#d62728;" x="552.388418" xlink:href="#m3956ddb726" y="281.549744"/>
     <use style="fill:#d62728;stroke:#d62728;" x="552.309752" xlink:href="#m3956ddb726" y="259.430085"/>
     <use style="fill:#d62728;stroke:#d62728;" x="552.23097" xlink:href="#m3956ddb726" y="246.490915"/>
     <use style="fill:#d62728;stroke:#d62728;" x="552.152072" xlink:href="#m3956ddb726" y="237.310427"/>
     <use style="fill:#d62728;stroke:#d62728;" x="552.073056" xlink:href="#m3956ddb726" y="230.189488"/>
     <use style="fill:#d62728;stroke:#d62728;" x="551.993924" xlink:href="#m3956ddb726" y="224.371256"/>
     <use style="fill:#d62728;stroke:#d62728;" x="551.914674" xlink:href="#m3956ddb726" y="219.452012"/>
     <use style="fill:#d62728;stroke:#d62728;" x="551.835306" xlink:href="#m3956ddb726" y="215.190769"/>
     <use style="fill:#d62728;stroke:#d62728;" x="551.75582" xlink:href="#m3956ddb726" y="211.432086"/>
     <use style="fill:#d62728;stroke:#d62728;" x="551.676216" xlink:href="#m3956ddb726" y="208.069829"/>
     <use style="fill:#d62728;stroke:#d62728;" x="550.873571" xlink:href="#m3956ddb726" y="185.950171"/>
     <use style="fill:#d62728;stroke:#d62728;" x="550.058673" xlink:href="#m3956ddb726" y="173.011"/>
     <use style="fill:#d62728;stroke:#d62728;" x="549.231139" xlink:href="#m3956ddb726" y="163.830512"/>
     <use style="fill:#d62728;stroke:#d62728;" x="548.390573" xlink:href="#m3956ddb726" y="156.709573"/>
     <use style="fill:#d62728;stroke:#d62728;" x="547.536558" xlink:href="#m3956ddb726" y="150.891342"/>
     <use style="fill:#d62728;stroke:#d62728;" x="546.668655" xlink:href="#m3956ddb726" y="145.972097"/>
     <use style="fill:#d62728;stroke:#d62728;" x="545.786407" xlink:href="#m3956ddb726" y="141.710854"/>
     <use style="fill:#d62728;stroke:#d62728;" x="544.88933" xlink:href="#m3956ddb726" y="137.952171"/>
     <use style="fill:#d62728;stroke:#d62728;" x="543.976917" xlink:href="#m3956ddb726" y="134.589915"/>
     <use style="fill:#d62728;stroke:#d62728;" x="533.876159" xlink:href="#m3956ddb726" y="112.470256"/>
     <use style="fill:#d62728;stroke:#d62728;" x="521.407009" xlink:href="#m3956ddb726" y="99.531086"/>
     <use style="fill:#d62728;stroke:#d62728;" x="505.107323" xlink:href="#m3956ddb726" y="90.350598"/>
     <use style="fill:#d62728;stroke:#d62728;" x="481.524596" xlink:href="#m3956ddb726" y="83.229658"/>
     <use style="fill:#d62728;stroke:#d62728;" x="438.241428" xlink:href="#m3956ddb726" y="77.411427"/>
     <use style="fill:#d62728;stroke:#d62728;" x="-1" xlink:href="#m3956ddb726" y="77.393905"/>
    </g>
   </g>
   <g id="line2d_143">
    <path clip-path="url(#p2a3fca5dd4)" d="M 497.761007 332.91 
L 497.712375 319.970829 
L 497.663698 310.790342 
L 497.614976 303.669402 
L 497.56621 297.851171 
L 497.5174 292.931927 
L 497.468544 288.670683 
L 497.419644 284.912 
L 497.3707 281.549744 
L 496.878766 259.430085 
L 496.382257 246.490915 
L 495.881086 237.310427 
L 495.375164 230.189488 
L 494.864401 224.371256 
L 494.348703 219.452012 
L 493.827973 215.190769 
L 493.302114 211.432086 
L 492.771021 208.069829 
L 487.147478 185.950171 
L 480.8609 173.011 
L 473.733776 163.830512 
L 465.506133 156.709573 
L 455.774924 150.891342 
L 443.864936 145.972097 
L 428.510391 141.710854 
L 406.869639 137.952171 
L 369.875676 134.589915 
L -1 134.523352 
" style="fill:none;stroke:#9467bd;stroke-linecap:square;"/>
    <defs>
     <path d="M 0 3 
C 0.795609 3 1.55874 2.683901 2.12132 2.12132 
C 2.683901 1.55874 3 0.795609 3 0 
C 3 -0.795609 2.683901 -1.55874 2.12132 -2.12132 
C 1.55874 -2.683901 0.795609 -3 0 -3 
C -0.795609 -3 -1.55874 -2.683901 -2.12132 -2.12132 
C -2.683901 -1.55874 -3 -0.795609 -3 0 
C -3 0.795609 -2.683901 1.55874 -2.12132 2.12132 
C -1.55874 2.683901 -0.795609 3 0 3 
z
" id="mdae7330924" style="stroke:#9467bd;"/>
    </defs>
    <g clip-path="url(#p2a3fca5dd4)">
     <use style="fill:#9467bd;stroke:#9467bd;" x="497.761007" xlink:href="#mdae7330924" y="332.91"/>
     <use style="fill:#9467bd;stroke:#9467bd;" x="497.712375" xlink:href="#mdae7330924" y="319.970829"/>
     <use style="fill:#9467bd;stroke:#9467bd;" x="497.663698" xlink:href="#mdae7330924" y="310.790342"/>
     <use style="fill:#9467bd;stroke:#9467bd;" x="497.614976" xlink:href="#mdae7330924" y="303.669402"/>
     <use style="fill:#9467bd;stroke:#9467bd;" x="497.56621" xlink:href="#mdae7330924" y="297.851171"/>
     <use style="fill:#9467bd;stroke:#9467bd;" x="497.5174" xlink:href="#mdae7330924" y="292.931927"/>
     <use style="fill:#9467bd;stroke:#9467bd;" x="497.468544" xlink:href="#mdae7330924" y="288.670683"/>
     <use style="fill:#9467bd;stroke:#9467bd;" x="497.419644" xlink:href="#mdae7330924" y="284.912"/>
     <use style="fill:#9467bd;stroke:#9467bd;" x="497.3707" xlink:href="#mdae7330924" y="281.549744"/>
     <use style="fill:#9467bd;stroke:#9467bd;" x="496.878766" xlink:href="#mdae7330924" y="259.430085"/>
     <use style="fill:#9467bd;stroke:#9467bd;" x="496.382257" xlink:href="#mdae7330924" y="246.490915"/>
     <use style="fill:#9467bd;stroke:#9467bd;" x="495.881086" xlink:href="#mdae7330924" y="237.310427"/>
     <use style="fill:#9467bd;stroke:#9467bd;" x="495.375164" xlink:href="#mdae7330924" y="230.189488"/>
     <use style="fill:#9467bd;stroke:#9467bd;" x="494.864401" xlink:href="#mdae7330924" y="224.371256"/>
     <use style="fill:#9467bd;stroke:#9467bd;" x="494.348703" xlink:href="#mdae7330924" y="219.452012"/>
     <use style="fill:#9467bd;stroke:#9467bd;" x="493.827973" xlink:href="#mdae7330924" y="215.190769"/>
     <use style="fill:#9467bd;stroke:#9467bd;" x="493.302114" xlink:href="#mdae7330924" y="211.432086"/>
     <use style="fill:#9467bd;stroke:#9467bd;" x="492.771021" xlink:href="#mdae7330924" y="208.069829"/>
     <use style="fill:#9467bd;stroke:#9467bd;" x="487.147478" xlink:href="#mdae7330924" y="185.950171"/>
     <use style="fill:#9467bd;stroke:#9467bd;" x="480.8609" xlink:href="#mdae7330924" y="173.011"/>
     <use style="fill:#9467bd;stroke:#9467bd;" x="473.733776" xlink:href="#mdae7330924" y="163.830512"/>
     <use style="fill:#9467bd;stroke:#9467bd;" x="465.506133" xlink:href="#mdae7330924" y="156.709573"/>
     <use style="fill:#9467bd;stroke:#9467bd;" x="455.774924" xlink:href="#mdae7330924" y="150.891342"/>
     <use style="fill:#9467bd;stroke:#9467bd;" x="443.864936" xlink:href="#mdae7330924" y="145.972097"/>
     <use style="fill:#9467bd;stroke:#9467bd;" x="428.510391" xlink:href="#mdae7330924" y="141.710854"/>
     <use style="fill:#9467bd;stroke:#9467bd;" x="406.869639" xlink:href="#mdae7330924" y="137.952171"/>
     <use style="fill:#9467bd;stroke:#9467bd;" x="369.875676" xlink:href="#mdae7330924" y="134.589915"/>
     <use style="fill:#9467bd;stroke:#9467bd;" x="-1" xlink:href="#mdae7330924" y="134.523352"/>
    </g>
   </g>
   <g id="patch_3">
    <path d="M 81 346.5 
L 81 47.52 
" style="fill:none;stroke:#000000;stroke-linecap:square;stroke-linejoin:miter;stroke-width:0.8;"/>
   </g>
   <g id="patch_4">
    <path d="M 583.2 346.5 
L 583.2 47.52 
" style="fill:none;stroke:#000000;stroke-linecap:square;stroke-linejoin:miter;stroke-width:0.8;"/>
   </g>
   <g id="patch_5">
    <path d="M 81 346.5 
L 583.2 346.5 
" style="fill:none;stroke:#000000;stroke-linecap:square;stroke-linejoin:miter;stroke-width:0.8;"/>
   </g>
   <g id="patch_6">
    <path d="M 81 47.52 
L 583.2 47.52 
" style="fill:none;stroke:#000000;stroke-linecap:square;stroke-linejoin:miter;stroke-width:0.8;"/>
   </g>
   <g id="legend_1">
    <g id="patch_7">
     <path d="M 88 341.5 
L 156.470313 341.5 
Q 158.470313 341.5 158.470313 339.5 
L 158.470313 267.109375 
Q 158.470313 265.109375 156.470313 265.109375 
L 88 265.109375 
Q 86 265.109375 86 267.109375 
L 86 339.5 
Q 86 341.5 88 341.5 
z
" style="fill:#ffffff;opacity:0.8;stroke:#cccccc;stroke-linejoin:miter;"/>
    </g>
    <g id="line2d_144">
     <path d="M 90 273.207812 
L 110 273.207812 
" style="fill:none;stroke:#1f77b4;stroke-linecap:square;"/>
    </g>
    <g id="line2d_145">
     <g>
      <use style="fill:#1f77b4;stroke:#1f77b4;" x="100" xlink:href="#m062f6fb103" y="273.207812"/>
     </g>
    </g>
    <g id="text_11">
     <!-- H2 -->
     <defs>
      <path d="M 9.8125 72.90625 
L 19.671875 72.90625 
L 19.671875 43.015625 
L 55.515625 43.015625 
L 55.515625 72.90625 
L 65.375 72.90625 
L 65.375 0 
L 55.515625 0 
L 55.515625 34.71875 
L 19.671875 34.71875 
L 19.671875 0 
L 9.8125 0 
z
" id="DejaVuSans-72"/>
     </defs>
     <g transform="translate(118 276.707812)scale(0.1 -0.1)">
      <use xlink:href="#DejaVuSans-72"/>
      <use x="75.195312" xlink:href="#DejaVuSans-50"/>
     </g>
    </g>
    <g id="line2d_146">
     <path d="M 90 287.885938 
L 110 287.885938 
" style="fill:none;stroke:#ff7f0e;stroke-linecap:square;"/>
    </g>
    <g id="line2d_147">
     <g>
      <use style="fill:#ff7f0e;stroke:#ff7f0e;" x="100" xlink:href="#m110010e1e2" y="287.885938"/>
     </g>
    </g>
    <g id="text_12">
     <!-- LPG -->
     <defs>
      <path d="M 9.8125 72.90625 
L 19.671875 72.90625 
L 19.671875 8.296875 
L 55.171875 8.296875 
L 55.171875 0 
L 9.8125 0 
z
" id="DejaVuSans-76"/>
      <path d="M 59.515625 10.40625 
L 59.515625 29.984375 
L 43.40625 29.984375 
L 43.40625 38.09375 
L 69.28125 38.09375 
L 69.28125 6.78125 
Q 63.578125 2.734375 56.6875 0.65625 
Q 49.8125 -1.421875 42 -1.421875 
Q 24.90625 -1.421875 15.25 8.5625 
Q 5.609375 18.5625 5.609375 36.375 
Q 5.609375 54.25 15.25 64.234375 
Q 24.90625 74.21875 42 74.21875 
Q 49.125 74.21875 55.546875 72.453125 
Q 61.96875 70.703125 67.390625 67.28125 
L 67.390625 56.78125 
Q 61.921875 61.421875 55.765625 63.765625 
Q 49.609375 66.109375 42.828125 66.109375 
Q 29.4375 66.109375 22.71875 58.640625 
Q 16.015625 51.171875 16.015625 36.375 
Q 16.015625 21.625 22.71875 14.15625 
Q 29.4375 6.6875 42.828125 6.6875 
Q 48.046875 6.6875 52.140625 7.59375 
Q 56.25 8.5 59.515625 10.40625 
z
" id="DejaVuSans-71"/>
     </defs>
     <g transform="translate(118 291.385938)scale(0.1 -0.1)">
      <use xlink:href="#DejaVuSans-76"/>
      <use x="55.712891" xlink:href="#DejaVuSans-80"/>
      <use x="116.015625" xlink:href="#DejaVuSans-71"/>
     </g>
    </g>
    <g id="line2d_148">
     <path d="M 90 302.564062 
L 110 302.564062 
" style="fill:none;stroke:#2ca02c;stroke-linecap:square;"/>
    </g>
    <g id="line2d_149">
     <g>
      <use style="fill:#2ca02c;stroke:#2ca02c;" x="100" xlink:href="#mdc1b58adfa" y="302.564062"/>
     </g>
    </g>
    <g id="text_13">
     <!-- CH4 -->
     <g transform="translate(118 306.064062)scale(0.1 -0.1)">
      <use xlink:href="#DejaVuSans-67"/>
      <use x="69.824219" xlink:href="#DejaVuSans-72"/>
      <use x="145.019531" xlink:href="#DejaVuSans-52"/>
     </g>
    </g>
    <g id="line2d_150">
     <path d="M 90 317.242188 
L 110 317.242188 
" style="fill:none;stroke:#d62728;stroke-linecap:square;"/>
    </g>
    <g id="line2d_151">
     <g>
      <use style="fill:#d62728;stroke:#d62728;" x="100" xlink:href="#m3956ddb726" y="317.242188"/>
     </g>
    </g>
    <g id="text_14">
     <!-- CO -->
     <defs>
      <path d="M 39.40625 66.21875 
Q 28.65625 66.21875 22.328125 58.203125 
Q 16.015625 50.203125 16.015625 36.375 
Q 16.015625 22.609375 22.328125 14.59375 
Q 28.65625 6.59375 39.40625 6.59375 
Q 50.140625 6.59375 56.421875 14.59375 
Q 62.703125 22.609375 62.703125 36.375 
Q 62.703125 50.203125 56.421875 58.203125 
Q 50.140625 66.21875 39.40625 66.21875 
z
M 39.40625 74.21875 
Q 54.734375 74.21875 63.90625 63.9375 
Q 73.09375 53.65625 73.09375 36.375 
Q 73.09375 19.140625 63.90625 8.859375 
Q 54.734375 -1.421875 39.40625 -1.421875 
Q 24.03125 -1.421875 14.8125 8.828125 
Q 5.609375 19.09375 5.609375 36.375 
Q 5.609375 53.65625 14.8125 63.9375 
Q 24.03125 74.21875 39.40625 74.21875 
z
" id="DejaVuSans-79"/>
     </defs>
     <g transform="translate(118 320.742188)scale(0.1 -0.1)">
      <use xlink:href="#DejaVuSans-67"/>
      <use x="69.824219" xlink:href="#DejaVuSans-79"/>
     </g>
    </g>
    <g id="line2d_152">
     <path d="M 90 331.920313 
L 110 331.920313 
" style="fill:none;stroke:#9467bd;stroke-linecap:square;"/>
    </g>
    <g id="line2d_153">
     <g>
      <use style="fill:#9467bd;stroke:#9467bd;" x="100" xlink:href="#mdae7330924" y="331.920313"/>
     </g>
    </g>
    <g id="text_15">
     <!-- Alcohol -->
     <defs>
      <path d="M 34.1875 63.1875 
L 20.796875 26.90625 
L 47.609375 26.90625 
z
M 28.609375 72.90625 
L 39.796875 72.90625 
L 67.578125 0 
L 57.328125 0 
L 50.6875 18.703125 
L 17.828125 18.703125 
L 11.1875 0 
L 0.78125 0 
z
" id="DejaVuSans-65"/>
      <path d="M 9.421875 75.984375 
L 18.40625 75.984375 
L 18.40625 0 
L 9.421875 0 
z
" id="DejaVuSans-108"/>
      <path d="M 54.890625 33.015625 
L 54.890625 0 
L 45.90625 0 
L 45.90625 32.71875 
Q 45.90625 40.484375 42.875 44.328125 
Q 39.84375 48.1875 33.796875 48.1875 
Q 26.515625 48.1875 22.3125 43.546875 
Q 18.109375 38.921875 18.109375 30.90625 
L 18.109375 0 
L 9.078125 0 
L 9.078125 75.984375 
L 18.109375 75.984375 
L 18.109375 46.1875 
Q 21.34375 51.125 25.703125 53.5625 
Q 30.078125 56 35.796875 56 
Q 45.21875 56 50.046875 50.171875 
Q 54.890625 44.34375 54.890625 33.015625 
z
" id="DejaVuSans-104"/>
     </defs>
     <g transform="translate(118 335.420313)scale(0.1 -0.1)">
      <use xlink:href="#DejaVuSans-65"/>
      <use x="68.408203" xlink:href="#DejaVuSans-108"/>
      <use x="96.191406" xlink:href="#DejaVuSans-99"/>
      <use x="151.171875" xlink:href="#DejaVuSans-111"/>
      <use x="212.353516" xlink:href="#DejaVuSans-104"/>
      <use x="275.732422" xlink:href="#DejaVuSans-111"/>
      <use x="336.914062" xlink:href="#DejaVuSans-108"/>
     </g>
    </g>
   </g>
  </g>
  <g id="text_16">
   <!-- Calibration plot for MQ-8 data -->
   <defs>
    <path d="M 48.6875 27.296875 
Q 48.6875 37.203125 44.609375 42.84375 
Q 40.53125 48.484375 33.40625 48.484375 
Q 26.265625 48.484375 22.1875 42.84375 
Q 18.109375 37.203125 18.109375 27.296875 
Q 18.109375 17.390625 22.1875 11.75 
Q 26.265625 6.109375 33.40625 6.109375 
Q 40.53125 6.109375 44.609375 11.75 
Q 48.6875 17.390625 48.6875 27.296875 
z
M 18.109375 46.390625 
Q 20.953125 51.265625 25.265625 53.625 
Q 29.59375 56 35.59375 56 
Q 45.5625 56 51.78125 48.09375 
Q 58.015625 40.1875 58.015625 27.296875 
Q 58.015625 14.40625 51.78125 6.484375 
Q 45.5625 -1.421875 35.59375 -1.421875 
Q 29.59375 -1.421875 25.265625 0.953125 
Q 20.953125 3.328125 18.109375 8.203125 
L 18.109375 0 
L 9.078125 0 
L 9.078125 75.984375 
L 18.109375 75.984375 
z
" id="DejaVuSans-98"/>
    <path d="M 18.109375 8.203125 
L 18.109375 -20.796875 
L 9.078125 -20.796875 
L 9.078125 54.6875 
L 18.109375 54.6875 
L 18.109375 46.390625 
Q 20.953125 51.265625 25.265625 53.625 
Q 29.59375 56 35.59375 56 
Q 45.5625 56 51.78125 48.09375 
Q 58.015625 40.1875 58.015625 27.296875 
Q 58.015625 14.40625 51.78125 6.484375 
Q 45.5625 -1.421875 35.59375 -1.421875 
Q 29.59375 -1.421875 25.265625 0.953125 
Q 20.953125 3.328125 18.109375 8.203125 
z
M 48.6875 27.296875 
Q 48.6875 37.203125 44.609375 42.84375 
Q 40.53125 48.484375 33.40625 48.484375 
Q 26.265625 48.484375 22.1875 42.84375 
Q 18.109375 37.203125 18.109375 27.296875 
Q 18.109375 17.390625 22.1875 11.75 
Q 26.265625 6.109375 33.40625 6.109375 
Q 40.53125 6.109375 44.609375 11.75 
Q 48.6875 17.390625 48.6875 27.296875 
z
" id="DejaVuSans-112"/>
    <path d="M 37.109375 75.984375 
L 37.109375 68.5 
L 28.515625 68.5 
Q 23.6875 68.5 21.796875 66.546875 
Q 19.921875 64.59375 19.921875 59.515625 
L 19.921875 54.6875 
L 34.71875 54.6875 
L 34.71875 47.703125 
L 19.921875 47.703125 
L 19.921875 0 
L 10.890625 0 
L 10.890625 47.703125 
L 2.296875 47.703125 
L 2.296875 54.6875 
L 10.890625 54.6875 
L 10.890625 58.5 
Q 10.890625 67.625 15.140625 71.796875 
Q 19.390625 75.984375 28.609375 75.984375 
z
" id="DejaVuSans-102"/>
    <path d="M 39.40625 66.21875 
Q 28.65625 66.21875 22.328125 58.203125 
Q 16.015625 50.203125 16.015625 36.375 
Q 16.015625 22.609375 22.328125 14.59375 
Q 28.65625 6.59375 39.40625 6.59375 
Q 50.140625 6.59375 56.421875 14.59375 
Q 62.703125 22.609375 62.703125 36.375 
Q 62.703125 50.203125 56.421875 58.203125 
Q 50.140625 66.21875 39.40625 66.21875 
z
M 53.21875 1.3125 
L 66.21875 -12.890625 
L 54.296875 -12.890625 
L 43.5 -1.21875 
Q 41.890625 -1.3125 41.03125 -1.359375 
Q 40.1875 -1.421875 39.40625 -1.421875 
Q 24.03125 -1.421875 14.8125 8.859375 
Q 5.609375 19.140625 5.609375 36.375 
Q 5.609375 53.65625 14.8125 63.9375 
Q 24.03125 74.21875 39.40625 74.21875 
Q 54.734375 74.21875 63.90625 63.9375 
Q 73.09375 53.65625 73.09375 36.375 
Q 73.09375 23.6875 67.984375 14.640625 
Q 62.890625 5.609375 53.21875 1.3125 
z
" id="DejaVuSans-81"/>
    <path d="M 4.890625 31.390625 
L 31.203125 31.390625 
L 31.203125 23.390625 
L 4.890625 23.390625 
z
" id="DejaVuSans-45"/>
    <path d="M 31.78125 34.625 
Q 24.75 34.625 20.71875 30.859375 
Q 16.703125 27.09375 16.703125 20.515625 
Q 16.703125 13.921875 20.71875 10.15625 
Q 24.75 6.390625 31.78125 6.390625 
Q 38.8125 6.390625 42.859375 10.171875 
Q 46.921875 13.96875 46.921875 20.515625 
Q 46.921875 27.09375 42.890625 30.859375 
Q 38.875 34.625 31.78125 34.625 
z
M 21.921875 38.8125 
Q 15.578125 40.375 12.03125 44.71875 
Q 8.5 49.078125 8.5 55.328125 
Q 8.5 64.0625 14.71875 69.140625 
Q 20.953125 74.21875 31.78125 74.21875 
Q 42.671875 74.21875 48.875 69.140625 
Q 55.078125 64.0625 55.078125 55.328125 
Q 55.078125 49.078125 51.53125 44.71875 
Q 48 40.375 41.703125 38.8125 
Q 48.828125 37.15625 52.796875 32.3125 
Q 56.78125 27.484375 56.78125 20.515625 
Q 56.78125 9.90625 50.3125 4.234375 
Q 43.84375 -1.421875 31.78125 -1.421875 
Q 19.734375 -1.421875 13.25 4.234375 
Q 6.78125 9.90625 6.78125 20.515625 
Q 6.78125 27.484375 10.78125 32.3125 
Q 14.796875 37.15625 21.921875 38.8125 
z
M 18.3125 54.390625 
Q 18.3125 48.734375 21.84375 45.5625 
Q 25.390625 42.390625 31.78125 42.390625 
Q 38.140625 42.390625 41.71875 45.5625 
Q 45.3125 48.734375 45.3125 54.390625 
Q 45.3125 60.0625 41.71875 63.234375 
Q 38.140625 66.40625 31.78125 66.40625 
Q 25.390625 66.40625 21.84375 63.234375 
Q 18.3125 60.0625 18.3125 54.390625 
z
" id="DejaVuSans-56"/>
    <path d="M 45.40625 46.390625 
L 45.40625 75.984375 
L 54.390625 75.984375 
L 54.390625 0 
L 45.40625 0 
L 45.40625 8.203125 
Q 42.578125 3.328125 38.25 0.953125 
Q 33.9375 -1.421875 27.875 -1.421875 
Q 17.96875 -1.421875 11.734375 6.484375 
Q 5.515625 14.40625 5.515625 27.296875 
Q 5.515625 40.1875 11.734375 48.09375 
Q 17.96875 56 27.875 56 
Q 33.9375 56 38.25 53.625 
Q 42.578125 51.265625 45.40625 46.390625 
z
M 14.796875 27.296875 
Q 14.796875 17.390625 18.875 11.75 
Q 22.953125 6.109375 30.078125 6.109375 
Q 37.203125 6.109375 41.296875 11.75 
Q 45.40625 17.390625 45.40625 27.296875 
Q 45.40625 37.203125 41.296875 42.84375 
Q 37.203125 48.484375 30.078125 48.484375 
Q 22.953125 48.484375 18.875 42.84375 
Q 14.796875 37.203125 14.796875 27.296875 
z
" id="DejaVuSans-100"/>
   </defs>
   <g transform="translate(234.578438 17.038125)scale(0.12 -0.12)">
    <use xlink:href="#DejaVuSans-67"/>
    <use x="69.824219" xlink:href="#DejaVuSans-97"/>
    <use x="131.103516" xlink:href="#DejaVuSans-108"/>
    <use x="158.886719" xlink:href="#DejaVuSans-105"/>
    <use x="186.669922" xlink:href="#DejaVuSans-98"/>
    <use x="250.146484" xlink:href="#DejaVuSans-114"/>
    <use x="291.259766" xlink:href="#DejaVuSans-97"/>
    <use x="352.539062" xlink:href="#DejaVuSans-116"/>
    <use x="391.748047" xlink:href="#DejaVuSans-105"/>
    <use x="419.53125" xlink:href="#DejaVuSans-111"/>
    <use x="480.712891" xlink:href="#DejaVuSans-110"/>
    <use x="544.091797" xlink:href="#DejaVuSans-32"/>
    <use x="575.878906" xlink:href="#DejaVuSans-112"/>
    <use x="639.355469" xlink:href="#DejaVuSans-108"/>
    <use x="667.138672" xlink:href="#DejaVuSans-111"/>
    <use x="728.320312" xlink:href="#DejaVuSans-116"/>
    <use x="767.529297" xlink:href="#DejaVuSans-32"/>
    <use x="799.316406" xlink:href="#DejaVuSans-102"/>
    <use x="834.521484" xlink:href="#DejaVuSans-111"/>
    <use x="895.703125" xlink:href="#DejaVuSans-114"/>
    <use x="936.816406" xlink:href="#DejaVuSans-32"/>
    <use x="968.603516" xlink:href="#DejaVuSans-77"/>
    <use x="1054.882812" xlink:href="#DejaVuSans-81"/>
    <use x="1133.625" xlink:href="#DejaVuSans-45"/>
    <use x="1169.708984" xlink:href="#DejaVuSans-56"/>
    <use x="1233.332031" xlink:href="#DejaVuSans-32"/>
    <use x="1265.119141" xlink:href="#DejaVuSans-100"/>
    <use x="1328.595703" xlink:href="#DejaVuSans-97"/>
    <use x="1389.875" xlink:href="#DejaVuSans-116"/>
    <use x="1429.083984" xlink:href="#DejaVuSans-97"/>
   </g>
  </g>
 </g>
 <defs>
  <clipPath id="p2a3fca5dd4">
   <rect height="298.98" width="502.2" x="81" y="47.52"/>
  </clipPath>
 </defs>
</svg>
